<svg width="71" height="90" viewBox="0 0 71 90" fill="none" xmlns="http://www.w3.org/2000/svg">
<path d="M66.4521 64.8895L61.7041 67.0447C61.0435 67.3456 60.2948 67.3891 59.6045 67.1669L58.398 66.7807L55.9955 58.3924L50.9851 40.8883L57.2274 36.4585L58.5398 37.0517C59.5479 37.5063 60.359 38.3127 60.8019 39.3261C62.9701 44.2805 64.5361 49.4388 65.4665 54.8121C66.0346 58.09 66.3658 61.448 66.4521 64.8895Z" fill="white"/>
<path d="M60.4976 67.3817C60.921 67.3817 61.3426 67.2913 61.7353 67.1122L66.5283 64.9367L66.5272 64.8874C66.4417 61.4768 66.1096 58.0829 65.5407 54.7995C64.6216 49.4921 63.0504 44.2764 60.8708 39.2966C60.4232 38.2721 59.6065 37.4509 58.571 36.984L57.2198 36.3733L50.8997 40.8582L58.3382 66.8396L59.5826 67.2376C59.8811 67.3339 60.1898 67.3817 60.4976 67.3817ZM66.3766 64.8419L61.6735 66.9766C61.0287 67.2706 60.3018 67.3129 59.6275 67.0959L58.459 66.722L56.0676 58.3719L51.0715 40.9186L57.2359 36.5442L58.5092 37.1199C59.5111 37.5716 60.301 38.3657 60.734 39.3563C62.9086 44.3254 64.4763 49.5298 65.3933 54.8251C65.9585 58.0852 66.2894 61.4553 66.3766 64.8419Z" fill="#14CBA8"/>
<path d="M7.84328 45.6403C8.06386 45.9832 8.56192 46.3317 9.33163 46.6134C10.3741 46.9966 12.0128 47.4034 12.7092 47.6449C12.8612 47.6971 13.0194 47.7312 13.1775 47.7732C13.2044 47.7808 13.2312 47.7896 13.2566 47.8001C13.2834 47.8091 13.3088 47.8211 13.3342 47.8345C13.3835 47.8598 13.4296 47.8896 13.4713 47.924C13.4742 47.9269 13.4757 47.9284 13.4789 47.9316C13.4999 47.9479 13.5192 47.966 13.537 47.9852C13.5562 48.0045 13.5758 48.0255 13.5936 48.0479V48.0494C13.6712 48.1448 13.7471 48.2401 13.8261 48.334C15.6185 50.5341 17.7733 52.6341 19.9461 54.3211C19.9893 54.3556 20.0342 54.3897 20.0774 54.4241C20.1655 54.4912 20.2548 54.5597 20.3429 54.6253C20.9977 55.1187 21.6521 55.5734 22.2964 55.9787C22.3635 56.0219 22.4306 56.0636 22.4977 56.1039C22.6512 56.1992 22.8049 56.2917 22.957 56.3812C23.1717 56.5078 23.3879 56.6285 23.6056 56.7463C23.6353 56.7626 23.6668 56.779 23.6981 56.7941C24.6314 57.2607 25.6947 57.3964 26.7074 57.1773C26.8997 57.1356 27.0908 57.0805 27.2784 57.012C27.356 56.9837 27.4319 56.9554 27.5081 56.9271C27.6601 56.8705 27.8109 56.8122 27.96 56.7527C27.9691 56.7498 27.9764 56.7451 27.9854 56.7422C28.0884 56.7005 28.1911 56.6588 28.2926 56.6171C28.5506 56.5098 28.8012 56.3981 29.0443 56.2818L29.0621 56.2727L29.3022 56.1549L29.341 56.1356C29.4767 56.0671 29.6109 55.9971 29.7422 55.9239L29.7407 55.9225V55.921L27.5874 51.8432L26.6791 50.1232C24.9434 48.19 23.3193 46.859 20.8261 45.3597C20.0433 44.8887 19.9552 44.1212 19.9552 43.7158C19.9552 42.5668 21.0572 41.6709 21.3286 41.0328C22.2754 38.8165 18.2448 37.9028 17.0263 41.2968L9.19157 44.2553C8.57739 44.3562 8.15782 44.5414 7.92586 44.7712C7.92586 44.7712 7.92586 44.7712 7.92556 44.7712V44.7715C7.67026 45.0226 7.64254 45.3294 7.84328 45.6403Z" fill="white"/>
<g opacity="0.3">
<path opacity="0.3" d="M7.84282 45.5386C8.0634 45.8813 8.56146 46.2301 9.33116 46.5118C10.3737 46.895 12.0123 47.3018 12.7087 47.5433C12.8608 47.5955 13.0189 47.6296 13.177 47.6716C13.2039 47.6792 13.2307 47.6879 13.2561 47.6984C13.283 47.7089 13.3083 47.7194 13.3337 47.7328C13.3816 47.7582 13.4277 47.7879 13.4709 47.8224C13.4738 47.8253 13.4752 47.8267 13.4784 47.8299C13.4995 47.8463 13.5172 47.8644 13.5365 47.8836C13.5558 47.9029 13.5739 47.9238 13.5931 47.9463V47.9478C13.6693 48.0431 13.7451 48.1385 13.8227 48.2324C13.8242 48.2324 13.8242 48.2324 13.8257 48.2324C14.0255 48.2607 14.2058 48.3665 14.3342 48.5261C16.1088 50.7497 17.9759 52.659 19.9456 54.2195C19.9888 54.2539 20.0338 54.288 20.0769 54.3224C20.1651 54.3895 20.2543 54.4581 20.3424 54.5237C20.3769 54.5505 20.411 54.5759 20.4454 54.6012C21.0538 55.0603 21.6697 55.4866 22.2962 55.8771C22.3633 55.9203 22.4304 55.962 22.4975 56.0022C22.651 56.0976 22.8047 56.19 22.9568 56.2796C23.1715 56.4061 23.3877 56.5269 23.6054 56.6447C23.6351 56.661 23.6666 56.6773 23.6979 56.6925C24.6312 57.1679 25.693 57.2991 26.7072 57.0754C26.8995 57.0337 27.0906 56.9786 27.2782 56.9101C27.3558 56.8818 27.4317 56.8535 27.5079 56.8252C27.6599 56.7686 27.8107 56.7103 27.9598 56.6508C27.9689 56.6479 27.9762 56.6432 27.9852 56.6403C28.0882 56.5986 28.1909 56.5569 28.2924 56.5152C28.4027 56.4674 28.5116 56.4213 28.6189 56.3735C28.7622 56.3093 28.9037 56.2451 29.0423 56.1781L29.0438 56.1795L29.0616 56.1705L29.3017 56.0527L29.3405 56.0334L29.7417 55.8366V55.8217L29.7402 55.8202V55.8188L29.6045 53.151C29.5628 52.3268 30.1817 51.6217 30.9957 51.5488C31.0302 50.6844 31.0538 50.0554 31.0538 50.0554L31.2656 48.6917L27.5869 51.7413L27.0457 52.1912C26.5998 52.5607 25.972 52.6205 25.4634 52.3432L16.5012 47.438C16.5012 47.438 16.8741 46.3202 15.3082 46.1712C13.7752 46.0251 10.7422 46.9239 7.9251 44.6687C8.01292 44.932 7.91138 45.245 7.84282 45.5386Z" fill="#14CBA8"/>
</g>
<path d="M25.1864 48.5827L25.2013 48.6139L27.0071 52.2193L27.0445 52.2922L29.0008 56.1971L29.0425 56.2805L29.3393 56.1344L30.4591 55.5873L30.7946 56.5829L32.8689 62.7325C32.8689 62.7325 33.5861 66.0696 36.4986 67.8179L51.8223 64.7281L57.2266 51.8816L57.1834 51.6104L56.8003 49.2436L54.7021 42.5842L53.9073 40.0593L44.635 41.4545L35.1567 42.8823L30.4594 43.5889C30.3967 43.6382 30.3342 43.6886 30.27 43.7408C28.6834 45.0161 26.9654 46.7035 25.1864 48.5827Z" fill="white"/>
<g opacity="0.3">
<path opacity="0.3" d="M27.0084 52.2195L27.0457 52.2924L29.002 56.1973C29.0155 56.1914 29.0289 56.1839 29.0423 56.178L29.0438 56.1795L29.0616 56.1704L29.3017 56.0526L29.3405 56.0334L29.7417 55.8365V55.8217L29.7402 55.8202V55.8187L29.6046 53.1509C29.5628 52.3268 30.1817 51.6216 30.9957 51.5487C31.0302 50.6843 31.0538 50.0553 31.0538 50.0553L31.2656 48.6917L27.5869 51.7412L27.0457 52.1912C27.0337 52.2017 27.0218 52.2104 27.0084 52.2195Z" fill="#14CBA8"/>
</g>
<g opacity="0.3">
<path opacity="0.3" d="M66.4531 64.8894L61.7051 67.0446C61.0445 67.3455 60.2958 67.389 59.6055 67.1667L58.399 66.7806L55.9965 58.3923C59.2355 57.8096 62.8949 56.1476 65.4672 54.8123C66.0356 58.0899 66.3668 61.4479 66.4531 64.8894Z" fill="#14CBA8"/>
</g>
<path d="M65.3591 73.0514L64.8179 78.2666L64.1363 84.8156C64.075 85.4103 63.5816 85.8678 62.9835 85.8842C58.7799 85.9991 57.2586 83.4532 57.827 78.8387L49.6164 77.8772C47.7315 77.6568 46.0165 76.6492 44.9474 75.0826C44.8952 75.0065 44.8444 74.9292 44.7954 74.8516L56.4956 69.3293L56.8924 69.4232L63.9682 71.094C64.8582 71.3031 65.4545 72.1421 65.3591 73.0514Z" fill="white"/>
<path d="M62.7199 85.9625C62.8074 85.9625 62.8961 85.9613 62.9863 85.9587C63.6197 85.9415 64.1464 85.4533 64.2111 84.8231L65.434 73.0588C65.5332 72.1142 64.9105 71.2382 63.9856 71.0215L56.4878 69.2507L56.4642 69.2618L44.6876 74.8199L44.7328 74.8914C44.7827 74.9696 44.8337 75.0477 44.8863 75.1247C45.9583 76.6951 47.6794 77.7254 49.6081 77.9512L57.7445 78.9039C57.4358 81.5046 57.8122 83.409 58.8641 84.5653C59.7076 85.4929 61.0039 85.9625 62.7199 85.9625ZM56.5039 69.4079L63.9509 71.1667C64.8029 71.3665 65.3765 72.1731 65.2852 73.0434L64.0623 84.8076C64.0051 85.3635 63.5406 85.7942 62.9819 85.8097C61.1773 85.8595 59.8304 85.4063 58.9744 84.4652C57.9429 83.3314 57.582 81.4414 57.9012 78.8479L57.9105 78.7735L49.6253 77.8033C47.7395 77.5825 46.0572 76.5758 45.0091 75.0407C44.9732 74.9885 44.9382 74.9357 44.9041 74.8829L56.5039 69.4079Z" fill="#14CBA8"/>
<path d="M59.6949 62.3139C59.1192 68.802 54.0537 72.9528 44.8228 74.1691C44.8228 74.1691 45.0212 74.9635 44.3247 75.6596L43.6598 86.0766C43.5821 87.3107 42.619 88.2973 41.3886 88.4286C38.1289 88.7759 35.027 88.5134 32.0669 87.7085C30.9845 87.4134 29.9195 87.0468 28.8726 86.61C28.3194 86.3775 27.9585 85.82 27.9987 85.2209C28.1612 82.7558 30.4727 80.3977 34.135 81.1489L34.4782 72.844C34.5304 71.5591 34.8867 70.2998 35.5458 69.1969C37.4858 65.9552 40.625 63.7834 45.9531 63.5615L55.0778 54.1492L57.2401 51.918L57.4908 51.6602C58.5391 54.0687 59.219 56.3148 59.5382 58.3836C59.5411 58.3985 59.5425 58.4148 59.5458 58.4297V58.4373C59.7544 59.8085 59.8037 61.1022 59.6949 62.3139Z" fill="white"/>
<g opacity="0.3">
<path opacity="0.3" d="M64.8184 78.2661L64.1368 84.8152C64.0755 85.4098 63.5821 85.8673 62.984 85.8837C58.7804 85.9986 57.259 83.4527 57.8274 78.8382L49.6169 77.8768C47.732 77.6563 46.0169 76.6487 44.9479 75.0821C44.8956 75.006 44.8449 74.9287 44.7959 74.8511L56.4961 69.3289L56.8929 69.4228C56.8929 69.4228 55.694 73.7094 51.699 74.3606L58.6823 75.1594C60.47 82.0132 62.5011 83.3903 64.8184 78.2661Z" fill="#14CBA8"/>
</g>
<path d="M60.4973 67.8287C60.9843 67.8287 61.4692 67.7252 61.9212 67.5199L66.6686 65.3642C66.8595 65.2776 66.98 65.0854 66.9744 64.876C66.7471 55.8994 64.8313 47.2329 61.2807 39.1169C60.7882 37.9915 59.8916 37.0892 58.7557 36.5762L57.4427 35.9833C57.1798 35.8649 56.8708 35.9813 56.7521 36.244C56.6333 36.5065 56.75 36.8156 57.0126 36.9343L58.3256 37.5272C59.2257 37.9337 59.9356 38.6468 60.3243 39.5351C63.7754 47.423 65.6579 55.8394 65.9214 64.5576L61.4896 66.5701C60.9461 66.8168 60.3333 66.8527 59.7647 66.6707L58.5579 66.2846C58.2839 66.1965 57.9895 66.3479 57.9017 66.6223C57.8138 66.8967 57.965 67.1904 58.2395 67.2781L59.4463 67.6643C59.7892 67.7742 60.1437 67.8287 60.4973 67.8287Z" fill="#14CBA8"/>
<path d="M50.1652 48.1352C50.2875 48.3052 50.4173 48.4691 50.5544 48.6254C51.9652 50.2352 54.1663 51.1293 56.8758 51.5633L57.1845 51.6111L58.777 51.8616C60.122 53.7082 61.0659 55.8412 61.6474 58.2334C60.3082 59.2275 59.94 60.4168 60.4827 61.788H60.4841C60.4841 61.7909 60.4856 61.7924 60.4871 61.7956C60.5886 62.0534 60.7243 62.3188 60.8912 62.59C61 62.7673 61.1284 62.9329 61.2775 63.0758C61.2804 63.0773 61.2819 63.0802 61.2851 63.0834C61.4312 63.2234 61.5967 63.3427 61.7802 63.4322C62.2322 63.6512 62.7585 63.9166 62.7807 64.1193C62.809 64.38 63.0879 64.6498 63.5428 64.8466C63.771 64.9463 64.0453 65.0268 64.354 65.079C65.0878 65.2041 65.8184 65.1237 66.488 64.8764C67.2008 64.6139 67.8421 64.1625 68.3446 63.5664L68.3489 63.562C68.5056 63.3756 69.2572 63.1432 69.3839 62.93C69.7463 62.3234 69.9983 61.6988 70.1594 61.0625C70.8363 58.399 69.9134 55.518 68.707 52.7575C67.8658 50.8348 66.734 49.0731 65.3696 47.517C63.5548 45.4452 61.3268 43.7357 58.8231 42.4957L56.3386 41.2645L53.9078 40.0601L51.938 44.3108L50.1652 48.1352Z" fill="white"/>
<g opacity="0.3">
<path opacity="0.3" d="M50.5555 48.6262C51.9662 50.236 54.1674 51.1301 56.8768 51.5641L57.1855 51.6119L58.778 51.8624C60.1231 53.709 61.067 55.8419 61.6485 58.2342C60.3092 59.2283 59.941 60.4176 60.4837 61.7888H60.4852C60.4852 61.7917 60.4866 61.7932 60.4881 61.7964C60.6048 62.0933 60.767 62.4 60.9704 62.7147C61.0576 62.8497 61.1787 62.9573 61.2823 63.0801C61.2835 63.0813 61.2844 63.0827 61.2858 63.0842C61.432 63.2242 61.5974 63.3435 61.781 63.433C62.2329 63.652 62.7593 63.9174 62.7815 64.1201C62.8098 64.3808 63.0887 64.6505 63.5436 64.8474C63.7717 64.9471 64.046 65.0276 64.3547 65.0798C65.0885 65.2049 65.8191 65.1244 66.4887 64.8771C67.2016 64.6147 67.8429 64.1632 68.3453 63.5671L68.3497 63.5628C68.5064 63.3764 69.258 63.144 69.3846 62.9308C69.747 62.3242 69.9991 61.6996 70.1602 61.0632C70.0825 61.2093 70.0035 61.3808 69.9244 61.582C68.806 64.414 64.1087 63.7433 64.1087 61.7684C64.1087 59.7935 62.9157 60.4642 63.5762 59.3091C64.2368 58.154 63.5762 56.9288 63.5762 56.9288C62.3096 53.2281 60.8187 51.0945 59.6843 49.9012C58.8489 49.0222 57.6211 48.6388 56.4263 48.847C53.629 49.3334 51.4162 48.8642 50.5555 48.6262Z" fill="#14CBA8"/>
</g>
<path d="M55.5798 41.3354C55.7073 41.3354 55.8339 41.2812 55.9223 41.1762C57.6234 39.1567 60.2654 38.8338 60.2919 38.8306C60.5373 38.8026 60.7136 38.581 60.6856 38.3354C60.6575 38.0899 60.4367 37.9146 60.1901 37.942C60.0676 37.956 57.1656 38.3115 55.2378 40.6002C55.0788 40.7892 55.103 41.0712 55.2921 41.2301C55.3758 41.301 55.4779 41.3354 55.5798 41.3354Z" fill="#14CBA8"/>
<g opacity="0.3">
<path opacity="0.3" d="M56.3398 41.2639C55.8164 41.7305 55.2705 42.1718 54.7039 42.5844C53.83 43.2254 52.9068 43.8023 51.939 44.3103C48.8611 45.9259 45.3463 46.8425 41.6137 46.8425C37.462 46.8425 33.5805 45.7098 30.2715 43.7407C28.5267 42.7034 26.9415 41.4334 25.5593 39.9758C28.4105 41.6212 31.6735 42.6512 35.1584 42.8822C35.6506 42.9134 36.1473 42.93 36.6482 42.93C39.4668 42.93 42.1613 42.4068 44.6367 41.4544L53.9094 40.0595L56.3398 41.2639Z" fill="#14CBA8"/>
</g>
<path d="M49.9839 48.2649C50.4495 48.9572 51.0521 49.5588 51.731 50.0461C52.4106 50.5349 53.1598 50.9158 53.9328 51.2179C54.7071 51.5183 55.5051 51.7449 56.3107 51.9184C56.7172 52.0065 57.114 52.0764 57.5088 52.152L58.6969 52.3759L58.3558 52.1677C59.0237 53.0843 59.5882 54.0758 60.0492 55.1161C60.5111 56.1563 60.87 57.2441 61.1411 58.3558L61.3371 57.8136C60.8432 58.1828 60.3708 58.6401 60.0533 59.2411C59.8955 59.5389 59.7823 59.8714 59.7341 60.2131C59.6831 60.5543 59.6965 60.9025 59.7586 61.23C59.8187 61.5596 59.9273 61.8687 60.0586 62.1589C60.1251 62.3035 60.1972 62.4441 60.2754 62.5791C60.3145 62.6468 60.3536 62.7144 60.3956 62.7792L60.4583 62.8783L60.5429 62.9973C60.7804 63.2991 61.069 63.5149 61.3943 63.6733C61.558 63.7512 61.7337 63.8124 61.9268 63.8486C62.12 63.8833 62.3353 63.8955 62.574 63.8369L61.9262 63.2656C61.8968 63.5117 61.8886 63.7815 61.9598 64.0693C62.0272 64.356 62.1955 64.6444 62.4097 64.8439C62.623 65.0474 62.859 65.1749 63.0843 65.2723C63.311 65.3688 63.533 65.4336 63.7516 65.4872C63.8604 65.5129 63.9692 65.5371 64.0766 65.5572C64.1834 65.5782 64.289 65.5963 64.4107 65.6126C64.6456 65.6429 64.8787 65.652 65.1083 65.6453C65.5679 65.6319 66.0128 65.5534 66.4429 65.4376C67.3013 65.2005 68.1052 64.8083 68.8165 64.2577C69.171 63.9815 69.5004 63.6596 69.7779 63.2784C69.8471 63.1842 69.9127 63.0813 69.9728 62.9821L70.135 62.6949C70.2372 62.4995 70.3343 62.3015 70.4207 62.0982C70.7685 61.2852 70.9576 60.4036 70.9926 59.5284C71.0299 58.6518 70.9234 57.7856 70.7393 56.953C70.5543 56.1193 70.2944 55.3147 70.0008 54.5319C69.7038 53.7469 69.3858 52.9913 69.0415 52.2275C67.6427 49.1645 65.4789 46.4647 62.8272 44.4005C62.1658 43.882 61.4725 43.4052 60.7562 42.9663C60.3968 42.749 60.0335 42.5376 59.6621 42.3413C59.4777 42.2404 59.2895 42.1471 59.1027 42.0518L58.5507 41.7776L54.1408 39.5928C53.8826 39.4647 53.5695 39.5703 53.4414 39.8284C53.3133 40.0865 53.4189 40.3994 53.6772 40.5274L58.0871 42.7123L58.6371 42.9853C58.815 43.0762 58.9945 43.1652 59.1701 43.2614C59.5241 43.4484 59.8701 43.6499 60.2124 43.8566C60.8948 44.2748 61.5551 44.7286 62.1848 45.2223C64.7095 47.1879 66.765 49.7548 68.0926 52.6614C68.7482 54.1371 69.3782 55.6436 69.7207 57.1782C69.8905 57.9452 69.983 58.7209 69.9504 59.4841C69.9191 60.2467 69.7578 60.9941 69.4608 61.6896C69.3869 61.8637 69.3032 62.0338 69.2157 62.202L69.0756 62.4502C69.0295 62.526 68.9849 62.5963 68.9326 62.6675C68.7275 62.9498 68.4667 63.209 68.1743 63.4359C67.5893 63.8906 66.8911 64.2335 66.1684 64.4315C65.8071 64.5289 65.438 64.5928 65.0771 64.603C64.8968 64.6083 64.7188 64.601 64.5473 64.5788C64.4659 64.568 64.369 64.552 64.2747 64.5333C64.1805 64.5158 64.0889 64.4951 63.9981 64.4738C63.6407 64.3889 63.3017 64.2571 63.133 64.0915C63.0484 64.0095 63.0023 63.9293 62.9731 63.8171C62.9442 63.7057 62.9428 63.5584 62.9623 63.3986L62.9655 63.3712C62.9994 63.0941 62.8021 62.8422 62.525 62.8083C62.4529 62.7996 62.38 62.8072 62.3146 62.827C62.2355 62.8515 62.0243 62.8229 61.8434 62.7316C61.6587 62.643 61.4839 62.5068 61.3707 62.3613L61.3319 62.307L61.2811 62.2262C61.2458 62.172 61.2143 62.1166 61.1822 62.0615C61.1183 61.9509 61.0611 61.8387 61.0089 61.7258C60.9068 61.4995 60.8268 61.2691 60.7857 61.0396C60.6984 60.5803 60.7618 60.1326 60.978 59.7267C61.1913 59.319 61.5475 58.9583 61.9601 58.6515L61.968 58.6454C62.1363 58.5156 62.2031 58.303 62.1562 58.1093C61.8723 56.9437 61.4938 55.7962 61.0042 54.6929C60.5152 53.59 59.9136 52.5325 59.2005 51.5536C59.1159 51.4375 58.991 51.3663 58.8594 51.3453L57.6608 51.1952C57.2605 51.1441 56.8599 51.0983 56.4747 51.0391C55.6965 50.921 54.9283 50.753 54.184 50.5159C53.4411 50.2771 52.7225 49.9654 52.0663 49.5524C51.4107 49.14 50.8221 48.6215 50.3486 48.0045C50.2736 47.9062 50.1333 47.8872 50.0349 47.9622C49.9395 48.0342 49.9191 48.1675 49.9839 48.2649Z" fill="#14CBA8"/>
<path d="M59.2639 51.6728L58.1186 49.5448C58.0597 49.4351 57.9229 49.3943 57.8134 49.4532C57.7207 49.5031 57.6769 49.6087 57.7017 49.7064L58.2908 52.0499C58.3617 52.3316 58.6473 52.5025 58.9292 52.4316C59.211 52.3607 59.382 52.0752 59.3111 51.7935C59.3003 51.7515 59.2834 51.7095 59.2639 51.6728Z" fill="#14CBA8"/>
<path d="M57.2882 51.6279C54.5076 53.4273 50.6626 54.2742 46.1684 54.5401C45.7205 54.5667 45.3782 54.951 45.4045 55.3987L45.5346 57.6331C45.5603 58.0744 45.9347 58.4144 46.3767 58.3998C51.5134 58.2283 55.7897 57.205 58.6826 54.8116" fill="white"/>
<path d="M46.3499 58.4747C46.3595 58.4747 46.3694 58.4747 46.3793 58.4741C51.984 58.2872 56.024 57.1078 58.7305 54.869L58.6353 54.7541C55.9554 56.9711 51.9449 58.1393 46.3747 58.3251C45.9691 58.3408 45.6327 58.0259 45.6093 57.6287L45.4792 55.3942C45.4556 54.9883 45.7669 54.6384 46.173 54.6141C51.0892 54.3231 54.7381 53.3669 57.3288 51.6903L57.248 51.5652C54.6792 53.2275 51.0539 54.1761 46.1643 54.4654C45.6762 54.4943 45.3018 54.9148 45.3304 55.403L45.4605 57.6374C45.4877 58.1049 45.8836 58.4747 46.3499 58.4747Z" fill="#14CBA8"/>
<path d="M57.0126 51.8677C57.5264 53.0651 57.9842 54.2847 58.3521 55.5276C58.7194 56.7699 58.9975 58.0367 59.1349 59.3138C59.2727 60.5896 59.2668 61.8772 59.0649 63.1283C58.8645 64.3785 58.4639 65.5896 57.8558 66.6899C57.2372 67.7847 56.4115 68.7572 55.4492 69.5796C54.4867 70.4035 53.3896 71.0771 52.2274 71.6213C51.0641 72.1661 49.8361 72.5837 48.5823 72.9109C47.3277 73.2378 46.0465 73.4749 44.7551 73.6519L44.3168 74.2955C44.3142 74.2841 44.3154 74.29 44.3157 74.2923L44.3174 74.3028C44.3189 74.3113 44.3203 74.32 44.3212 74.3308C44.3241 74.3503 44.3247 74.3734 44.3265 74.395C44.3276 74.4402 44.3273 74.4862 44.3233 74.5329C44.3148 74.6256 44.2976 74.7184 44.2658 74.8065C44.2334 74.8942 44.1966 74.9808 44.1418 75.0605C44.0922 75.1424 44.0256 75.2168 43.9571 75.2908L43.9425 75.3066C43.8582 75.3979 43.8127 75.5116 43.8054 75.6265L43.2174 84.8352L43.1439 85.9863C43.1416 86.0382 43.1366 86.0746 43.1322 86.112L43.1203 86.226C43.1019 86.2998 43.0949 86.3765 43.0704 86.4488C43.0324 86.5963 42.97 86.736 42.9003 86.8711C42.7526 87.137 42.5452 87.3721 42.2951 87.5482C42.0439 87.7214 41.7568 87.8468 41.4528 87.8923L41.339 87.9101L41.1992 87.923L40.9174 87.9486C40.7295 87.9644 40.5418 87.9862 40.3537 87.9947L39.7891 88.0282C39.6009 88.0384 39.4124 88.0402 39.2239 88.0463C38.8472 88.0624 38.4702 88.051 38.0936 88.0516C37.7172 88.0364 37.3402 88.0309 36.965 87.9997C36.2131 87.9539 35.4644 87.8649 34.7212 87.7454C33.9769 87.6307 33.2405 87.4689 32.5107 87.2828C31.7798 87.1003 31.0615 86.8687 30.3504 86.6194L29.8194 86.4249L29.2939 86.2152L29.1626 86.1627C29.1203 86.1458 29.0684 86.1257 29.0477 86.1146C28.991 86.091 28.94 86.0568 28.8892 86.0227C28.7921 85.9487 28.7045 85.8588 28.6438 85.753C28.5805 85.6486 28.5405 85.5328 28.5265 85.415C28.519 85.3529 28.5169 85.3041 28.5242 85.2298L28.5551 84.9784L28.5697 84.8524L28.5986 84.7288L28.6555 84.4812C28.6768 84.3992 28.7101 84.3205 28.736 84.24C28.7667 84.161 28.7842 84.0767 28.8253 84.002C29.0952 83.3788 29.5221 82.8242 30.0587 82.406C30.5993 81.9916 31.2479 81.7241 31.9298 81.6075C32.6131 81.4897 33.3277 81.5226 34.0297 81.66L34.0326 81.6603L34.0592 81.6644C34.3437 81.7078 34.6098 81.5127 34.6535 81.2281C34.6564 81.2091 34.6582 81.1896 34.6591 81.1706L34.9118 75.0415L34.9751 73.5093C34.9864 73.2573 34.994 72.9905 35.0086 72.7511C35.0235 72.5125 35.0483 72.2743 35.0868 72.0389C35.2359 71.094 35.5668 70.1888 36.0721 69.3796C36.5801 68.5406 37.1733 67.7587 37.8636 67.0702C38.5549 66.3828 39.3494 65.7984 40.218 65.3373C41.0837 64.8698 42.0203 64.5211 42.9893 64.2773C43.958 64.0285 44.9567 63.8789 45.9651 63.7853L45.9686 63.785C46.0917 63.7736 46.1822 63.6646 46.1708 63.5415C46.16 63.4254 46.0611 63.3382 45.9467 63.3385C44.9121 63.3446 43.8719 63.4278 42.8428 63.6208C41.8154 63.8174 40.7977 64.1247 39.8358 64.5779C38.8764 65.0343 37.9774 65.6348 37.1858 66.3554C36.3908 67.0731 35.7103 67.9136 35.1516 68.8182C34.5733 69.7441 34.2019 70.8045 34.0455 71.8803C34.0046 72.1497 33.9792 72.4209 33.9652 72.6927L33.932 73.4667L33.8689 74.9989L33.6163 81.1281L34.2427 80.6384L34.2395 80.6378C33.4327 80.4792 32.5863 80.4357 31.7518 80.5795C30.9197 80.7215 30.1045 81.0551 29.4229 81.5789C28.7448 82.1056 28.2047 82.8061 27.8651 83.5943C27.8155 83.6897 27.7895 83.795 27.7516 83.8953C27.718 83.9974 27.6783 84.0974 27.6509 84.2012L27.578 84.5156L27.5424 84.6731L27.5225 84.8335L27.4843 85.1545C27.4773 85.2053 27.4782 85.2829 27.477 85.3459C27.4814 85.4121 27.4814 85.4791 27.4922 85.5444C27.5246 85.8084 27.6136 86.0633 27.7493 86.2884C27.8823 86.5156 28.0652 86.7095 28.2753 86.8658C28.3824 86.9411 28.4944 87.0108 28.6147 87.0635C28.6806 87.0947 28.7188 87.1082 28.7655 87.1274L28.9021 87.1819L29.4486 87.3998L30.0012 87.6022C30.7414 87.862 31.4895 88.1026 32.2516 88.2933C33.0123 88.4873 33.7808 88.6558 34.5572 88.7757C35.3328 88.9005 36.1139 88.9929 36.8979 89.0411C37.2894 89.0731 37.6822 89.0793 38.0746 89.095C38.467 89.0947 38.8598 89.1061 39.2519 89.0898C39.448 89.0831 39.6443 89.0813 39.8401 89.0705L40.4275 89.0355C40.6235 89.0265 40.8185 89.004 41.0136 88.9877L41.3066 88.9612L41.4539 88.9475L41.6252 88.9218C42.0827 88.8512 42.5204 88.6649 42.9 88.4004C43.2787 88.1335 43.5944 87.778 43.8185 87.3718C43.9267 87.1665 44.0195 86.9518 44.0788 86.727C44.1141 86.6162 44.1295 86.5004 44.154 86.387L44.1736 86.2143C44.18 86.156 44.1861 86.0971 44.1882 86.0531L44.2617 84.902L44.8496 75.6933L44.6979 76.029C44.8164 75.905 44.9302 75.7735 45.0238 75.623C45.1216 75.4763 45.1965 75.3118 45.2564 75.1439C45.3159 74.975 45.3506 74.7977 45.3661 74.6195C45.3739 74.5303 45.3751 74.4402 45.3719 74.3492C45.369 74.3031 45.3666 74.2576 45.3605 74.2098C45.3582 74.1867 45.3547 74.162 45.3506 74.1366L45.3436 74.0969L45.3322 74.0436L44.894 74.6872C46.2224 74.5052 47.5456 74.2608 48.8501 73.9208C50.1538 73.5805 51.4402 73.1439 52.673 72.567C53.9043 71.9905 55.0825 71.2699 56.1294 70.3743C57.1757 69.4808 58.0872 68.4096 58.7693 67.2005C59.4416 65.9862 59.8813 64.6517 60.0984 63.2936C60.3175 61.934 60.321 60.5544 60.1757 59.2035C60.0301 57.8513 59.738 56.5258 59.3564 55.2345C58.9739 53.9429 58.5009 52.6839 57.9725 51.4524C57.8587 51.1876 57.5521 51.0651 57.2871 51.1785C57.0222 51.292 56.8996 51.5988 57.0131 51.8636L57.0126 51.8677Z" fill="#14CBA8"/>
<path d="M45.6944 62.0769L42.4525 62.2423C42.4496 62.2437 42.4449 62.2437 42.442 62.2437C42.4344 62.2437 42.4257 62.2452 42.4166 62.2452L38.3262 62.454L31.6262 62.7969H31.6037C30.7672 62.8281 30.0617 62.1828 30.0185 61.3467L29.6039 53.252C29.5607 52.4083 30.2108 51.6886 31.0549 51.6454L42.5433 51.0581H42.5447L45.1231 50.9268C45.9687 50.8837 46.6873 51.5334 46.7308 52.3771L47.1454 60.4718C47.1886 61.3152 46.5385 62.0352 45.6944 62.0769Z" fill="white"/>
<path d="M31.5471 63.3092C31.5821 63.3092 31.6172 63.3084 31.6525 63.3066L45.7207 62.5866C46.264 62.5598 46.7652 62.3221 47.1311 61.9179C47.497 61.5131 47.6835 60.9902 47.6554 60.4457L47.5481 58.3472C47.5338 58.0658 47.2904 57.8511 47.0121 57.8637C46.7305 57.878 46.5137 58.118 46.5283 58.3994L46.6357 60.4979C46.6497 60.77 46.5566 61.0313 46.3737 61.2334C46.1913 61.4352 45.941 61.5539 45.6696 61.5673L31.6005 62.2874C31.0333 62.3168 30.5577 61.8823 30.5288 61.3206L30.1145 53.2259C30.1005 52.9541 30.1936 52.6928 30.3762 52.4904C30.5589 52.288 30.8095 52.1688 31.0815 52.1551L45.1497 51.4368C45.7119 51.4076 46.1925 51.8416 46.2214 52.4035L46.3302 54.5216C46.3445 54.803 46.5803 55.0197 46.8662 55.0051C47.1478 54.9906 47.3646 54.7508 47.35 54.4691L47.2411 52.3513C47.1834 51.2277 46.224 50.3624 45.0975 50.4175L31.0292 51.1358C30.4848 51.1638 29.9838 51.4021 29.6182 51.8069C29.2526 52.2116 29.0667 52.7342 29.0948 53.2784L29.5091 61.3731C29.5648 62.4612 30.469 63.3092 31.5471 63.3092Z" fill="#14CBA8"/>
<path d="M31.6038 63.2437C31.6114 63.2437 31.6193 63.2437 31.6271 63.2431L42.44 62.6917C42.4482 62.6914 42.4567 62.6908 42.4634 62.6902C42.4663 62.6902 42.4695 62.6899 42.4727 62.6896C43.5499 62.617 44.3812 61.6812 44.3255 60.6033L43.905 52.3657C43.8677 51.6157 43.4163 50.9577 42.7268 50.6495C42.5013 50.5486 42.2367 50.6495 42.1357 50.8749C42.0348 51.1004 42.1357 51.3649 42.3612 51.4658C42.7417 51.6361 42.9909 51.998 43.0113 52.4109L43.4318 60.6494C43.4624 61.2426 43.0052 61.7576 42.4123 61.7975C42.4073 61.7978 42.4027 61.7981 42.3986 61.7984C42.3971 61.7984 42.3957 61.7984 42.3942 61.7987L31.5813 62.3502C31.3345 62.3627 31.1448 62.573 31.1574 62.8194C31.1696 63.0583 31.3675 63.2437 31.6038 63.2437Z" fill="#14CBA8"/>
<g opacity="0.3">
<path opacity="0.3" d="M31.6039 62.7965L38.3262 62.4539L31.6261 62.7965H31.6039Z" fill="#0C8E76"/>
<path opacity="0.3" d="M31.6041 62.8713H31.6262L38.3301 62.5284L38.3225 62.3796L31.6 62.7223L31.6041 62.8713Z" fill="#14CBA8"/>
</g>
<g opacity="0.3">
<path opacity="0.3" d="M45.6951 62.0767L42.4532 62.242C43.2883 62.1808 43.922 61.464 43.8788 60.6264L43.4584 52.3886C43.4286 51.7893 43.0572 51.2885 42.5457 51.0576L45.1241 50.9263C45.9697 50.8832 46.6883 51.5329 46.7318 52.3766L46.8407 54.4947C46.6183 54.511 46.3948 54.5259 46.1681 54.5393C45.7208 54.5661 45.3777 54.9508 45.4045 55.3979L45.5344 57.632C45.5612 58.0732 45.9356 58.4144 46.377 58.3996C46.5994 58.392 46.8199 58.3832 47.0391 58.3727L47.1464 60.4713C47.1893 61.315 46.5392 62.035 45.6951 62.0767Z" fill="#14CBA8"/>
</g>
<path d="M37.1545 62.8708C37.1615 62.8708 37.1685 62.8705 37.1758 62.8702C37.3768 62.8585 37.5306 62.6862 37.5189 62.4852L37.2464 57.7533C37.2251 57.3821 37.0209 57.0482 36.6999 56.8598L35.0426 55.8869C34.9314 55.8216 34.8611 55.7061 34.8547 55.5775L34.6481 51.4542C34.6379 51.2532 34.4699 51.099 34.2656 51.1083C34.0646 51.1185 33.9094 51.2897 33.9196 51.4906L34.1262 55.6137C34.1448 55.9884 34.3494 56.3255 34.6732 56.5154L36.3305 57.4882C36.4405 57.553 36.5108 57.6676 36.5181 57.795L36.7906 62.5272C36.802 62.7209 36.9625 62.8708 37.1545 62.8708Z" fill="#14CBA8"/>
<path d="M46.3506 58.9218C46.3652 58.9218 46.3801 58.9215 46.3947 58.9212C52.1021 58.7308 56.2304 57.5179 59.016 55.2135C59.238 55.0297 59.269 54.7008 59.0851 54.4788C58.9013 54.2572 58.5725 54.2257 58.3502 54.4097C55.7496 56.5611 51.8275 57.6958 46.3597 57.8783C46.2027 57.883 46.065 57.7599 46.0559 57.6028L45.9258 55.3683C45.9165 55.2082 46.0393 55.0703 46.1995 55.0606C51.1947 54.7652 54.9148 53.7854 57.572 52.0656C57.8139 51.909 57.883 51.5859 57.7264 51.3442C57.5697 51.1021 57.2464 51.0333 57.0045 51.1899C54.5025 52.809 50.9478 53.7346 46.1376 54.0192C45.4032 54.0627 44.8407 54.6952 44.8836 55.429L45.0137 57.6634C45.0552 58.3662 45.6501 58.9218 46.3506 58.9218Z" fill="#14CBA8"/>
<path d="M31.6786 46.7525C31.5631 46.9546 31.4825 47.1406 31.4035 47.3395C31.3244 47.5358 31.2579 47.7353 31.1937 47.9356C31.0691 48.3372 30.9737 48.7458 30.8938 49.157C30.8112 49.5681 30.7578 49.9831 30.7094 50.399C30.6869 50.6069 30.672 50.8154 30.653 51.0239L30.6183 51.6504C30.6049 51.8921 30.7902 52.0989 31.0321 52.112C31.2739 52.1254 31.4808 51.9402 31.4942 51.6985C31.4951 51.6836 31.4951 51.669 31.4945 51.6544L31.4939 51.6407L31.4659 51.0414C31.4639 50.842 31.4577 50.6416 31.4586 50.4416C31.4642 50.0423 31.4744 49.6416 31.5129 49.2444C31.5488 48.847 31.5995 48.45 31.678 48.0599C31.7192 47.8653 31.7626 47.6711 31.8175 47.4813C31.8694 47.2935 31.9351 47.0966 32.0063 46.9348L32.0124 46.9208C32.0541 46.8263 32.011 46.7157 31.9164 46.674C31.8283 46.635 31.7256 46.6708 31.6786 46.7525Z" fill="#14CBA8"/>
<path d="M36.4991 68.3395C36.6763 68.3395 36.8493 68.2491 36.947 68.0864C37.0953 67.8394 37.0153 67.5189 36.7682 67.3708C34.0812 65.7584 33.3868 62.654 33.3801 62.6228C33.3194 62.3411 33.041 62.162 32.76 62.2224C32.4782 62.2831 32.2987 62.5604 32.3591 62.8421C32.3903 62.9873 33.1595 66.4227 36.2304 68.2655C36.3153 68.3153 36.4078 68.3395 36.4991 68.3395Z" fill="#14CBA8"/>
<path d="M25.2683 49.0271C25.4069 49.0271 25.5449 48.9723 25.6473 48.8641C27.7551 46.639 29.3392 45.1383 30.784 43.9977C31.0102 43.8193 31.0487 43.4912 30.8701 43.2652C30.6915 43.0392 30.3633 43.0007 30.1369 43.1791C28.6514 44.3518 27.033 45.884 24.8893 48.147C24.6912 48.3561 24.7002 48.6862 24.9094 48.8845C25.0104 48.9799 25.1393 49.0271 25.2683 49.0271Z" fill="#14CBA8"/>
<path d="M26.8458 49.9728C26.4032 49.2735 25.8812 48.6281 25.3046 48.0306C25.0158 47.7322 24.7129 47.4473 24.3993 47.1743C24.0812 46.9072 23.7574 46.6462 23.4174 46.4088C22.7408 45.9288 22.0417 45.4899 21.3415 45.0612L21.0835 44.9031L20.9907 44.8416L20.9056 44.7745C20.7973 44.6812 20.7109 44.5727 20.6444 44.4494C20.5779 44.326 20.5297 44.1878 20.5047 44.0361C20.4772 43.8894 20.472 43.7116 20.4857 43.5754C20.5157 43.2846 20.6491 42.9784 20.8417 42.6725C21.0336 42.3628 21.2793 42.0676 21.5358 41.7069C21.5997 41.615 21.6647 41.5176 21.7281 41.4024C21.7587 41.3456 21.7925 41.2779 21.8176 41.2155C21.8413 41.1566 21.8649 41.098 21.8845 41.0356C21.9667 40.7915 22.0111 40.5141 21.9866 40.2275C21.9618 39.9411 21.8582 39.6506 21.6922 39.4127C21.5273 39.1727 21.3091 38.9872 21.0774 38.8536C20.6106 38.585 20.0956 38.5063 19.6072 38.5378C19.1167 38.5719 18.644 38.725 18.23 38.9679C17.8142 39.2091 17.4597 39.5392 17.1781 39.9105C16.8966 40.2829 16.6871 40.6955 16.5348 41.1184L16.5345 41.1196C16.4367 41.3905 16.5771 41.6894 16.8484 41.7874C17.1195 41.8851 17.4186 41.7448 17.5166 41.4736L17.5175 41.471C17.7582 40.7929 18.1807 40.2018 18.7563 39.8694C19.0408 39.702 19.3606 39.6011 19.6789 39.5789C19.9955 39.5564 20.3165 39.6162 20.5537 39.7562C20.7955 39.8965 20.9257 40.0913 20.947 40.3211C20.9563 40.4383 20.9409 40.5704 20.8933 40.7095C20.8831 40.7442 20.8682 40.7792 20.8545 40.8145C20.8417 40.846 20.8297 40.8691 20.8128 40.9014C20.7786 40.9641 20.7319 41.0359 20.68 41.1102C20.4685 41.4109 20.1939 41.7401 19.9573 42.1193C19.7209 42.4966 19.5042 42.9457 19.4481 43.4654C19.4233 43.7323 19.4338 43.9632 19.4767 44.2152C19.5185 44.4631 19.601 44.7136 19.7274 44.9469C19.8528 45.1802 20.0244 45.3931 20.2234 45.564L20.3769 45.6853L20.5373 45.792L20.7976 45.9518C21.4803 46.3683 22.1406 46.8151 22.7712 47.2942C23.4052 47.769 24.0275 48.2513 24.6458 48.7494C25.2655 49.2458 25.8704 49.7684 26.5134 50.272L26.5149 50.2729C26.6135 50.3502 26.7562 50.333 26.8335 50.2341C26.8933 50.1565 26.8954 50.0515 26.8458 49.9728Z" fill="#14CBA8"/>
<path d="M19.4366 43.8395L20.0219 46.7522C20.0464 46.8738 20.1648 46.9529 20.2865 46.9284C20.393 46.9071 20.4668 46.8135 20.4671 46.7088L20.4756 43.738C20.4765 43.4484 20.2422 43.213 19.9524 43.2122C19.6627 43.2113 19.4272 43.4455 19.4264 43.735C19.4261 43.7695 19.4302 43.8065 19.4366 43.8395Z" fill="#14CBA8"/>
<path d="M25.7473 57.8005C26.325 57.8005 26.903 57.7013 27.4551 57.5013C28.4632 57.1356 29.2938 56.7681 29.9947 56.3779C30.2465 56.2377 30.3369 55.9201 30.1966 55.6684C30.0562 55.4167 29.7379 55.3266 29.4867 55.4666C28.8352 55.8297 28.0541 56.1744 27.0988 56.5208C26.0286 56.9093 24.8323 56.8165 23.8169 56.2671C20.561 54.5054 16.7994 51.231 13.9998 47.7222C13.8236 47.5011 13.5785 47.3401 13.3095 47.269C13.2631 47.2567 13.2167 47.2451 13.1703 47.2334C13.0659 47.2071 12.967 47.1824 12.8783 47.1514C12.576 47.0465 12.1272 46.9187 11.6079 46.7706C10.9021 46.5694 10.102 46.3416 9.51 46.124C8.42606 45.7263 8.22269 45.311 8.23057 45.2296C8.23611 45.1713 8.43918 44.9062 9.27454 44.7692C9.55902 44.7225 9.75188 44.4542 9.7052 44.1699C9.65851 43.8855 9.39038 43.6928 9.10561 43.7397C7.5306 43.9981 7.23036 44.7225 7.19156 45.1311C7.11861 45.901 7.8323 46.6198 9.15025 47.1033C9.77873 47.334 10.5986 47.5676 11.3216 47.7738C11.8051 47.9114 12.2617 48.0418 12.5363 48.1369C12.6685 48.1826 12.7945 48.2141 12.9165 48.2448C12.9585 48.2553 13.0002 48.2658 13.0422 48.2768C13.0962 48.2911 13.1464 48.325 13.184 48.3719C16.0653 51.9834 19.9491 55.3599 23.3203 57.184C24.0754 57.5931 24.9111 57.8005 25.7473 57.8005Z" fill="#14CBA8"/>
<path d="M12.9265 48.2406C13.4295 48.2732 13.9425 48.268 14.4434 48.1846C14.9456 48.1061 15.4151 47.9405 15.8565 47.771L15.8577 47.7705C15.9353 47.7407 15.9738 47.6538 15.944 47.5762C15.9192 47.5115 15.8539 47.4739 15.788 47.4806C15.3147 47.5305 14.8578 47.5628 14.4169 47.5141C13.9757 47.4707 13.5468 47.3593 13.1255 47.2164C12.8501 47.1228 12.551 47.2703 12.4573 47.5456C12.3637 47.8209 12.5113 48.1198 12.7867 48.2134C12.8305 48.2283 12.8751 48.2371 12.9192 48.2403L12.9265 48.2406Z" fill="#14CBA8"/>
<path d="M18.8884 53.8891C18.8887 53.8891 18.889 53.8891 18.8893 53.8891C21.4493 53.8836 24.4254 50.8568 24.7858 47.8909C24.8155 47.6457 24.6408 47.4229 24.3957 47.3931C24.1497 47.3625 23.9274 47.5381 23.8976 47.783C23.5962 50.2627 20.974 52.9903 18.8872 52.9947C18.6401 52.9953 18.4402 53.1959 18.4408 53.4426C18.4417 53.6897 18.6419 53.8891 18.8884 53.8891Z" fill="#14CBA8"/>
<path d="M38.285 87.0767C40.2799 87.0767 42.2182 86.8189 43.841 86.191C44.0715 86.1018 44.1859 85.8428 44.0966 85.6127C44.0073 85.3823 43.7485 85.2677 43.518 85.3572C38.9622 87.1204 31.744 85.7947 28.2847 84.1601C28.0618 84.0542 27.7948 84.1499 27.6889 84.373C27.5833 84.5964 27.6787 84.8629 27.9022 84.9685C30.2854 86.0948 34.3921 87.0767 38.285 87.0767Z" fill="#14CBA8"/>
<path d="M34.052 81.6639C34.1428 81.6677 34.2697 81.6835 34.3814 81.7001C34.497 81.7173 34.6128 81.7392 34.7286 81.7628C34.9603 81.8115 35.1899 81.875 35.4155 81.9506C35.6422 82.0249 35.8631 82.1162 36.0775 82.2212C36.2952 82.3227 36.4965 82.4504 36.6972 82.584L36.7083 82.5913C36.8113 82.6598 36.9505 82.6318 37.0191 82.5292C37.0792 82.4388 37.0652 82.3209 36.9913 82.2469C36.8046 82.0594 36.6091 81.8742 36.3944 81.7158C36.182 81.5534 35.9585 81.4047 35.7256 81.2726C35.4931 81.1393 35.253 81.018 35.005 80.9118C34.8807 80.8593 34.7552 80.8086 34.6268 80.7625C34.4946 80.7156 34.3762 80.6744 34.2186 80.6336L34.2052 80.6301C33.9242 80.5575 33.6374 80.7266 33.5651 81.0075C33.4924 81.2883 33.6613 81.575 33.9423 81.6476C33.9776 81.6569 34.0164 81.6622 34.052 81.6639Z" fill="#14CBA8"/>
<path d="M44.3237 76.1062C44.4766 76.1062 44.6254 76.0278 44.7089 75.8869C44.8349 75.6743 44.7646 75.4002 44.5522 75.2742C41.9528 73.7347 36.4455 72.5486 34.1632 74.0654C33.9572 74.2021 33.9015 74.4795 34.0383 74.6854C34.1752 74.891 34.453 74.947 34.6584 74.8102C36.4443 73.6238 41.4888 74.4993 44.0961 76.0438C44.1676 76.0861 44.2464 76.1062 44.3237 76.1062Z" fill="#14CBA8"/>
<path d="M45.1963 73.8047L43.5784 72.572C43.4792 72.4962 43.3371 72.5154 43.2615 72.6146C43.1997 72.6956 43.2014 72.8053 43.258 72.8837L44.4487 74.5326C44.6191 74.7688 44.9491 74.8219 45.1855 74.6516C45.4218 74.4813 45.4749 74.1514 45.3045 73.9152C45.2736 73.8729 45.2357 73.835 45.1963 73.8047Z" fill="#14CBA8"/>
<path d="M62.7188 86.4097C62.811 86.4097 62.9041 86.4085 62.9983 86.4059C63.855 86.3826 64.5675 85.7223 64.6562 84.8699L65.879 73.1045C66.0004 71.9383 65.2307 70.8555 64.089 70.586L56.6163 68.8222C56.3362 68.7566 56.0547 68.9296 55.9884 69.2101C55.9222 69.4904 56.0958 69.7715 56.3765 69.8377L63.8492 71.6015C64.4817 71.7508 64.908 72.3506 64.8409 72.9966L63.6181 84.762C63.5833 85.0956 63.3047 85.354 62.97 85.3631C61.3028 85.4074 60.0704 85.0055 59.3056 84.1653C58.3658 83.1324 58.0428 81.3616 58.3451 78.9026C58.362 78.7647 58.3232 78.6259 58.2374 78.5168C58.1517 78.4077 58.0256 78.3372 57.8876 78.3211L49.6779 77.3596C47.9208 77.1537 46.354 76.217 45.3795 74.7895C45.3305 74.7178 45.2826 74.6449 45.2356 74.5717C45.0807 74.3287 44.7577 74.2573 44.515 74.4122C44.2719 74.567 44.2004 74.8895 44.3554 75.1325C44.4079 75.215 44.4619 75.2967 44.517 75.3777C45.6619 77.0549 47.4987 78.1552 49.5562 78.3961L57.2524 79.2975C57.0228 81.8084 57.4529 83.6807 58.5327 84.8676C59.4649 85.8915 60.8725 86.4097 62.7188 86.4097Z" fill="#14CBA8"/>
<path d="M51.6405 78.5616C51.6907 78.5616 51.7418 78.5531 51.792 78.5351C52.0245 78.4517 52.1453 78.1953 52.0616 77.9629C51.5699 76.5966 52.304 73.436 52.6282 72.3333C52.6979 72.0965 52.562 71.8478 52.3251 71.7781C52.0884 71.7084 51.8392 71.844 51.7698 72.0808C51.7187 72.254 50.5289 76.3449 51.2195 78.2653C51.2852 78.4479 51.4573 78.5616 51.6405 78.5616Z" fill="#14CBA8"/>
<path d="M58.3363 78.9494L58.4819 76.8753C58.4906 76.7508 58.3967 76.6429 58.2721 76.6341C58.1699 76.6268 58.0786 76.6892 58.0445 76.7802L57.3162 78.728C57.2144 79.0007 57.3527 79.3043 57.6255 79.4063C57.8983 79.5081 58.202 79.3699 58.3042 79.0972C58.3223 79.0491 58.3328 78.9978 58.3363 78.9494Z" fill="#14CBA8"/>
<path d="M62.2034 86.3246C62.4304 86.3246 62.6247 86.1525 62.6477 85.9221L64.1364 71.1244C64.1612 70.8786 63.982 70.6596 63.7361 70.6348C63.4901 70.6106 63.271 70.7893 63.2462 71.0349L61.7575 85.8326C61.7327 86.0784 61.9119 86.2975 62.1579 86.3222C62.1733 86.324 62.1882 86.3246 62.2034 86.3246Z" fill="#14CBA8"/>
<path d="M60.7161 67.745C60.7295 67.745 60.7432 67.7444 60.757 67.7432C61.0029 67.721 61.1844 67.5038 61.1622 67.2577C61.1564 67.1938 60.5769 60.8357 59.6371 56.5722C59.584 56.331 59.3453 56.1785 59.1038 56.2318C58.8625 56.2849 58.7099 56.5235 58.7633 56.7646C59.6911 60.9734 60.2656 67.2751 60.2711 67.3381C60.2919 67.5703 60.4871 67.745 60.7161 67.745Z" fill="#14CBA8"/>
<path d="M59.7506 53.8155C59.8939 53.8155 60.0345 53.747 60.1212 53.6199C60.2402 53.4455 63.083 49.3621 67.2656 50.6905C67.5014 50.7648 67.7526 50.6351 67.8276 50.3997C67.9023 50.1644 67.7721 49.913 67.5367 49.8381C62.7127 48.3073 59.4139 53.0693 59.3809 53.1177C59.2423 53.3221 59.2957 53.6 59.5003 53.7388C59.577 53.7905 59.6645 53.8155 59.7506 53.8155Z" fill="#14CBA8"/>
<g opacity="0.3">
<path opacity="0.3" d="M44.8235 74.1691C44.8235 74.1691 45.0219 74.9635 44.3255 75.6596L43.6605 86.0765C43.5829 87.3107 42.6198 88.2973 41.3893 88.4285C38.1296 88.7758 35.0278 88.5134 32.0677 87.7085C32.0735 87.7099 32.0811 87.7114 32.087 87.7129C39.3597 89.2824 40.4364 82.9748 40.4364 82.9748C40.4364 82.9748 41.4804 75.9696 41.2087 74.1691C40.9374 72.3671 41.8156 71.5727 41.8156 71.5727C42.5553 71.4669 42.8952 71.0913 42.351 70.1196C53.6141 70.5996 57.8612 61.1917 55.0786 54.1492C54.406 52.4455 53.3218 50.8791 51.8247 49.6257C53.5666 50.7882 55.3782 51.4679 57.2289 51.8823L57.2409 51.9182L59.5389 58.3839L59.5448 58.4002C59.5448 58.4002 59.5448 58.4107 59.5462 58.43V58.4375C59.5582 58.7088 59.6311 60.4229 59.6953 62.3142C59.1199 68.802 54.0544 72.953 44.8235 74.1691Z" fill="#14CBA8"/>
</g>
<path d="M37.8585 45.5183C25.7666 44.5702 16.7211 34.1557 17.655 22.2567C18.5889 10.3578 29.1484 1.48037 41.2403 2.42842C53.3323 3.37647 62.3777 13.791 61.4439 25.6899C60.51 37.5889 49.9505 46.4663 37.8585 45.5183Z" fill="white"/>
<path d="M39.6365 45.6631C44.8654 45.6631 49.8667 43.8545 53.8815 40.4795C58.3518 36.7216 61.0636 31.4714 61.517 25.6963C61.9704 19.9212 60.1112 14.3126 56.282 9.90353C52.453 5.495 47.1129 2.81349 41.2447 2.3533C35.3774 1.89224 29.6831 3.70908 25.2131 7.46669C20.7429 11.2246 18.0311 16.4748 17.5777 22.2499C17.1243 28.025 18.9834 33.6335 22.8127 38.0426C26.6417 42.4512 31.982 45.1327 37.8502 45.5929C38.4475 45.6398 39.0439 45.6631 39.6365 45.6631ZM39.4582 2.43233C40.0473 2.43233 40.639 2.45537 41.2331 2.50203C47.0619 2.95901 52.3663 5.62244 56.1693 10.0012C59.972 14.3797 61.8184 19.9495 61.3682 25.6843C60.918 31.4192 58.2252 36.6329 53.7855 40.3652C49.3456 44.0977 43.6907 45.902 37.8616 45.4441C32.0328 44.9872 26.7283 42.3237 22.9253 37.9449C19.1223 33.5665 17.2763 27.9967 17.7265 22.2618C18.1767 16.5267 20.8695 11.313 25.3091 7.58101C29.2968 4.22876 34.2646 2.43233 39.4582 2.43233Z" fill="#14CBA8"/>
<g opacity="0.3">
<path opacity="0.3" d="M61.3048 25.5305C60.3706 37.4295 49.8103 46.3072 37.718 45.3588C31.3996 44.8633 25.914 41.7838 22.2501 37.258C25.347 39.3845 29.0403 40.7537 33.0738 41.0702C45.1662 42.0185 55.7267 33.1408 56.6606 21.2418C57.1068 15.5598 55.2782 10.2151 51.9245 6.07983C58.1169 10.3286 61.9272 17.6003 61.3048 25.5305Z" fill="#14CBA8"/>
</g>
<g opacity="0.3">
<path opacity="0.3" d="M52.9385 32.8503C47.3177 41.6265 34.7428 43.9114 26.2979 41.1232C23.5436 39.0727 21.479 36.7146 20.0574 34.0719C17.6984 29.6917 17.1061 24.5264 18.064 18.672C24.229 9.40318 42.6423 11.423 50.6069 20.7667C51.2509 21.52 51.8251 22.3214 52.3193 23.1691L52.9385 32.8503Z" fill="#14CBA8"/>
<g opacity="0.3">
<g opacity="0.3">
<path opacity="0.3" d="M31.4343 33.0159C31.4585 33.3641 31.4617 33.7129 31.4431 34.0599C31.4177 34.5475 31.35 35.0316 31.242 35.5067C30.7737 37.5679 29.5427 39.4591 27.6418 40.7204C25.7368 41.9846 23.5094 42.3835 21.4235 42.0108C20.9654 41.9289 20.514 41.8099 20.0749 41.6545C19.7303 41.5329 19.3933 41.3888 19.0656 41.2234C21.0462 40.3684 23.297 39.1427 25.5854 37.6242C27.8735 36.106 29.8771 34.5084 31.4343 33.0159Z" fill="#FFB200"/>
</g>
<g opacity="0.3">
<g opacity="0.3">
<path opacity="0.3" d="M21.4576 42.151L21.4243 42.0116L21.3377 41.8964L21.3616 41.8784L21.3911 41.8711C22.5164 41.6039 24.5735 40.5488 26.6313 39.1834C28.7006 37.8104 30.4233 36.3686 31.1276 35.4211L31.3584 35.5926C30.6357 36.5652 28.8853 38.033 26.7904 39.4231C24.6747 40.827 22.6311 41.8722 21.4576 42.151Z" fill="#C4001D"/>
</g>
</g>
<g opacity="0.3">
<path opacity="0.3" d="M25.5851 37.6242C27.8732 36.1057 29.8768 34.5084 31.4343 33.0159C31.4585 33.3641 31.4617 33.7129 31.4431 34.0599C30.2529 35.2594 28.2936 36.8204 25.9673 38.364C23.739 39.8426 21.6269 41.005 20.0749 41.6545C19.7303 41.5328 19.3933 41.3888 19.0656 41.2234C21.0459 40.3684 23.2964 39.1427 25.5851 37.6242Z" fill="#C4001D"/>
</g>
<g opacity="0.3">
<path opacity="0.3" d="M31.4343 31.8347C31.4585 32.1829 31.4617 32.5317 31.4431 32.8787C31.4177 33.3663 31.35 33.8504 31.242 34.3255C30.7737 36.3867 29.5427 38.2779 27.6418 39.5392C25.7368 40.8034 23.5094 41.2024 21.4235 40.8297C20.9654 40.7477 20.514 40.6287 20.0749 40.4733C19.7303 40.3517 19.3933 40.2076 19.0656 40.0423C21.0462 39.1872 23.297 37.9615 25.5854 36.443C27.8735 34.9248 29.8771 33.3273 31.4343 31.8347Z" fill="#14CBA8"/>
</g>
<g opacity="0.35">
<path opacity="0.35" d="M30.5635 28.6769C30.5118 28.7352 30.4579 28.7941 30.401 28.8545C30.4491 28.7828 30.4967 28.7093 30.5419 28.6355C30.5492 28.6489 30.5562 28.6623 30.5635 28.6769Z" fill="#0C8E76"/>
</g>
<g opacity="0.3">
<path opacity="0.3" d="M30.0297 28.9014C30.2287 29.2009 30.4061 29.5082 30.5625 29.822C29.3732 31.1519 26.9203 33.1419 23.9264 35.1285C20.9327 37.115 18.1454 38.6023 16.4575 39.1818C16.2287 38.9161 16.0143 38.6333 15.8153 38.3338C15.806 38.3198 15.7966 38.3058 15.7876 38.2915C15.7003 38.1591 15.6178 38.0252 15.5396 37.8899C15.3555 37.5732 15.1941 37.2489 15.0552 36.9191C15.0497 36.9057 15.0438 36.8922 15.0386 36.8788C14.8346 36.3877 14.6797 35.885 14.5729 35.3764C14.3692 34.4085 14.3383 33.4207 14.4711 32.4572C14.7935 30.118 16.0811 27.923 18.2043 26.5141C20.3101 25.1166 22.81 24.7766 25.0774 25.3674C26.0082 25.6098 26.8998 26.0093 27.7089 26.5567C28.1416 26.8492 28.5507 27.1846 28.9297 27.5608C28.9604 27.5908 28.9907 27.6214 29.0208 27.6523C29.2708 27.9084 29.5074 28.1828 29.728 28.4756C29.81 28.5841 29.8897 28.6949 29.967 28.8083C29.9877 28.839 30.0087 28.8699 30.0297 28.9014Z" fill="#FFB200"/>
</g>
<g opacity="0.3">
<path opacity="0.3" d="M30.9878 20.2795C30.9878 21.3673 30.9924 21.6814 32.1992 21.6814C30.9834 21.6814 30.9878 21.95 30.9878 23.1197C30.9878 21.95 30.9831 21.6814 29.7763 21.6814C30.9921 21.6817 30.9878 21.3676 30.9878 20.2795Z" fill="white"/>
</g>
<g opacity="0.3">
<path opacity="0.3" d="M43.2329 27.8076C43.2329 28.8954 43.2376 29.2095 44.4443 29.2095C43.2285 29.2095 43.2329 29.4781 43.2329 30.6478C43.2329 29.4781 43.2282 29.2095 42.0214 29.2095C43.2373 29.2098 43.2329 28.8957 43.2329 27.8076Z" fill="white"/>
</g>
<g opacity="0.3">
<path opacity="0.3" d="M41.254 16.897C41.254 17.1023 41.4206 17.2688 41.626 17.2688C41.8314 17.2688 41.998 17.1023 41.998 16.897C41.998 16.6917 41.8314 16.5251 41.626 16.5251C41.4206 16.5251 41.254 16.6917 41.254 16.897Z" fill="white"/>
</g>
<g opacity="0.3">
<path opacity="0.3" d="M45.2828 21.9567C45.2526 21.7704 45.3792 21.5948 45.5656 21.5646C45.752 21.5343 45.9277 21.6609 45.9579 21.8472C45.9882 22.0335 45.8616 22.2091 45.6751 22.2393C45.4887 22.2696 45.3131 22.143 45.2828 21.9567Z" fill="white"/>
</g>
<g opacity="0.3">
<path opacity="0.3" d="M35.0269 16.5779C35.0269 16.8129 35.2178 17.0037 35.4529 17.0037C35.6881 17.0037 35.8789 16.8129 35.8789 16.5779C35.8789 16.3428 35.6881 16.1521 35.4529 16.1521C35.2175 16.1521 35.0269 16.3428 35.0269 16.5779Z" fill="white"/>
</g>
<g opacity="0.3">
<path opacity="0.3" d="M38.0752 23.8134C37.9339 23.7549 37.8668 23.593 37.9253 23.4518C37.9839 23.3106 38.1458 23.2435 38.2871 23.302C38.4284 23.3605 38.4955 23.5224 38.437 23.6637C38.3785 23.8049 38.2165 23.8719 38.0752 23.8134Z" fill="white"/>
</g>
<g opacity="0.3">
<path opacity="0.3" d="M47.6882 33.356C47.6882 33.5067 47.8104 33.6289 47.9613 33.6289C48.1121 33.6289 48.2344 33.5067 48.2344 33.356C48.2344 33.2052 48.1121 33.083 47.9613 33.083C47.8104 33.0833 47.6882 33.2055 47.6882 33.356Z" fill="white"/>
</g>
<g opacity="0.3">
<path opacity="0.3" d="M29.0221 33.6787C28.8154 33.6787 28.6478 33.5112 28.6478 33.3046C28.6478 33.0979 28.8154 32.9304 29.0221 32.9304C29.2289 32.9304 29.3965 33.0979 29.3965 33.3046C29.3965 33.5112 29.2289 33.6787 29.0221 33.6787Z" fill="white"/>
</g>
<g opacity="0.3">
<path opacity="0.3" d="M23.7573 37.3972C23.7573 37.6276 23.9441 37.8143 24.1746 37.8143C24.4051 37.8143 24.5918 37.6276 24.5918 37.3972C24.5918 37.1669 24.4051 36.9802 24.1746 36.9802C23.9443 36.9802 23.7573 37.1669 23.7573 37.3972Z" fill="white"/>
</g>
<g opacity="0.3">
<path opacity="0.3" d="M37.2566 35.1746C37.1166 35.0348 37.1166 34.808 37.2565 34.6682C37.3965 34.5283 37.6233 34.5283 37.7633 34.6682C37.9032 34.808 37.9032 35.0348 37.7633 35.1746C37.6233 35.3145 37.3965 35.3145 37.2566 35.1746Z" fill="white"/>
</g>
<g opacity="0.3">
<path opacity="0.3" d="M23.0657 32.3448C23.0657 32.4285 23.1337 32.4964 23.2174 32.4964C23.3012 32.4964 23.3691 32.4285 23.3691 32.3448C23.3691 32.2611 23.3012 32.1931 23.2174 32.1931C23.1337 32.1931 23.0657 32.2611 23.0657 32.3448Z" fill="white"/>
</g>
<g opacity="0.3">
<path opacity="0.3" d="M45.315 36.789C45.2695 36.5965 45.3888 36.4036 45.5814 36.3582C45.7739 36.3127 45.9669 36.4319 46.0124 36.6244C46.0579 36.8169 45.9386 37.0097 45.746 37.0552C45.5535 37.1006 45.3605 36.9815 45.315 36.789Z" fill="white"/>
</g>
<g opacity="0.3">
<path opacity="0.3" d="M29.9664 28.8079C29.9877 28.8388 30.0087 28.8697 30.0297 28.9012C30.2287 29.2007 30.4061 29.5081 30.5625 29.8218C29.3732 31.1517 26.9203 33.1417 23.9264 35.1283C20.9328 37.1149 18.1454 38.6022 16.4575 39.1816C16.2288 38.9159 16.0143 38.6331 15.8153 38.3336C15.806 38.3196 15.7966 38.3056 15.7876 38.2913C17.4043 37.8416 20.2497 36.3785 23.3017 34.3531C26.4741 32.2482 29.0006 30.1126 29.9664 28.8079Z" fill="#C4001D"/>
</g>
<g opacity="0.3">
<g opacity="0.3">
<path opacity="0.3" d="M14.6049 35.662L14.5419 35.0907C15.699 34.9636 18.5453 33.5221 21.4639 31.5857C24.9457 29.2754 27.1077 27.2512 27.4439 26.446L27.9746 26.6674C27.5297 27.733 25.0411 29.9018 21.782 32.0642C18.7478 34.0779 15.8636 35.5238 14.6049 35.662Z" fill="#C4001D"/>
</g>
</g>
<g opacity="0.3">
<g opacity="0.3">
<path opacity="0.3" d="M14.5585 32.7302L14.3837 32.1825C15.643 31.7809 17.756 30.6485 19.8977 29.2275C22.1417 27.7384 24.0409 26.1896 24.8538 25.1858L25.3008 25.5474C24.4538 26.5935 22.5053 28.1872 20.2157 29.7063C18.0329 31.1551 15.8651 32.3137 14.5585 32.7302Z" fill="#C4001D"/>
</g>
</g>
<g opacity="0.3">
<g opacity="0.3">
<path opacity="0.3" d="M15.0832 37.1626L14.9936 36.5948C16.3115 36.3869 19.2506 34.8844 22.3072 32.8561C25.5133 30.7287 28.1311 28.4975 28.6726 27.4304L29.1855 27.6905C28.5941 28.8553 25.9579 31.1239 22.6253 33.3353C19.4575 35.4373 16.4968 36.9398 15.0832 37.1626Z" fill="#C4001D"/>
</g>
</g>
<g opacity="0.3">
<path opacity="0.3" d="M22.9196 42.5879C24.6603 42.5879 26.394 42.0851 27.8894 41.093C30.576 39.31 32.1055 36.203 31.8806 32.9849C31.8686 32.8117 31.7574 32.6615 31.5952 32.5991C31.433 32.5367 31.2497 32.5734 31.1246 32.6935C29.5309 34.2211 27.5299 35.7973 25.3378 37.2523C23.146 38.7069 20.9157 39.9381 18.8881 40.8136C18.7288 40.8824 18.6235 41.037 18.6182 41.2105C18.613 41.384 18.7087 41.5447 18.8636 41.6232C20.141 42.2682 21.5325 42.5879 22.9196 42.5879ZM30.9965 34.0324C30.8631 36.5672 29.5379 38.9256 27.3945 40.3479C25.2511 41.7701 22.5621 42.0758 20.1728 41.2149C21.9891 40.3625 23.9268 39.2616 25.8326 37.9968C27.7391 36.7317 29.5058 35.3742 30.9965 34.0324Z" fill="#14CBA8"/>
</g>
<g opacity="0.3">
<path opacity="0.3" d="M34.7314 27.2321C35.4226 28.2726 34.0644 30.4954 31.4343 33.0162C29.8771 34.5088 27.8735 36.106 25.5851 37.6245C23.2967 39.143 21.046 40.3688 19.0654 41.2238C15.7199 42.6682 13.1435 43.0564 12.4523 42.0156C11.8244 41.0704 12.8868 39.1512 15.0558 36.9188C15.195 37.2486 15.3561 37.5729 15.5402 37.8896C14.9487 38.5583 14.685 39.0553 14.8437 39.2941C15.0053 39.5373 15.5845 39.481 16.4581 39.1815C18.146 38.6024 20.933 37.1148 23.9269 35.1282C26.9209 33.1416 29.3741 31.1516 30.5631 29.8218C31.1781 29.1335 31.455 28.622 31.2934 28.3785C31.135 28.1399 30.5742 28.1898 29.7283 28.4747C29.5077 28.1822 29.2714 27.9078 29.0211 27.6515C31.9216 26.5202 34.1035 26.2869 34.7314 27.2321Z" fill="#FFC536"/>
</g>
<g opacity="0.3">
<g opacity="0.3">
<path opacity="0.3" d="M14.8787 40.3923C14.4594 40.3923 14.1388 40.2856 13.9695 40.0307C13.629 39.518 14.0244 38.6531 15.1784 37.3874L15.5224 37.7006C14.4381 38.8902 14.2097 39.5513 14.3573 39.7735C14.6053 40.1471 16.1736 39.9114 19.0315 38.514C20.6296 37.7321 22.4123 36.6966 24.1866 35.519C25.9612 34.3414 27.608 33.1014 28.949 31.9328C31.3471 29.8427 32.1725 28.489 31.9248 28.116C31.7769 27.8935 31.0786 27.8474 29.5611 28.3846L29.4056 27.946C31.0212 27.3741 31.9715 27.3458 32.3123 27.8585C32.9241 28.7795 30.9873 30.773 29.2548 32.2831C27.8986 33.4647 26.2352 34.7176 24.444 35.906C22.6531 37.0946 20.8519 38.1407 19.2358 38.9313C17.7422 39.6618 15.9743 40.3923 14.8787 40.3923Z" fill="#FFEC90"/>
</g>
</g>
<g opacity="0.3">
<g opacity="0.3">
<path opacity="0.3" d="M14.3514 41.63C13.7602 41.63 13.2887 41.4821 13.0407 41.1086C12.3994 40.1433 13.7617 38.3684 15.0175 37.0497L15.3548 37.3705C13.514 39.3037 13.1528 40.4364 13.4285 40.8517C13.7687 41.3637 15.4207 41.3874 18.9579 39.7677C20.7865 38.9307 22.8102 37.7866 24.8109 36.4589C26.8114 35.1314 28.6519 33.7112 30.1335 32.3516C32.9999 29.722 33.6196 28.191 33.2794 27.6789C33.0037 27.2639 31.8197 27.1568 29.3221 28.102L29.1572 27.6672C30.8606 27.0224 33.0259 26.4564 33.6669 27.4216C34.4999 28.6756 32.0079 31.2635 30.448 32.6945C28.9489 34.0702 27.0885 35.5058 25.0683 36.8464C23.0477 38.1871 21.0018 39.3436 19.1517 40.1905C17.8002 40.8091 15.7443 41.63 14.3514 41.63Z" fill="#FFEC90"/>
</g>
</g>
<g opacity="0.3">
<path opacity="0.3" d="M13.4664 41.0037C14.1567 42.0439 16.7337 41.6549 20.0786 40.2107C22.0186 39.3732 24.2183 38.1807 26.458 36.7051C24.2942 37.3714 22.718 37.3936 22.2004 36.6141C22.0752 36.4248 22.0169 36.1968 22.023 35.936C20.1947 37.0002 18.5917 37.7841 17.4719 38.1687C16.598 38.4682 16.0194 38.5248 15.8569 38.2819C15.8181 38.2224 15.8047 38.1463 15.8167 38.0553L15.1143 36.9538C13.6035 38.7292 12.94 40.2093 13.4664 41.0037Z" fill="#14CBA8"/>
</g>
<g opacity="0.3">
<path opacity="0.3" d="M14.0134 43.052C15.6389 43.052 17.7977 42.2579 19.2423 41.6341C21.318 40.7379 23.5967 39.4801 25.832 37.9969C28.0679 36.5134 30.1118 34.9025 31.7431 33.3388C33.473 31.6809 36.2102 28.6506 35.1035 26.9845C34.1503 25.5497 31.1809 26.3289 28.8577 27.2353C28.718 27.2898 28.6147 27.4108 28.5832 27.5572C28.5514 27.7039 28.5954 27.8567 28.7002 27.9641C28.9389 28.2084 29.1644 28.4709 29.3701 28.7439C29.4859 28.8976 29.6873 28.9603 29.8702 28.8984C30.4012 28.7194 30.6968 28.6786 30.8479 28.6745C30.7843 28.815 30.6253 29.0798 30.2285 29.5237C29.0276 30.8669 26.5177 32.8716 23.6784 34.7555C20.8392 36.6394 18.0165 38.1734 16.3117 38.7584C15.7462 38.9523 15.4405 38.9954 15.2867 38.9992C15.3483 38.863 15.5 38.6087 15.8743 38.1856C16.0021 38.0412 16.0228 37.8313 15.926 37.6648C15.7544 37.3693 15.5998 37.0599 15.4667 36.7447C15.4084 36.6064 15.2846 36.5067 15.1373 36.479C14.99 36.4513 14.8382 36.4994 14.7338 36.607C12.9963 38.395 11.1254 40.8277 12.0783 42.2625C12.4594 42.8347 13.1634 43.052 14.0134 43.052ZM34.3586 27.4791C34.7858 28.1221 33.9513 29.9839 31.1246 32.6931C29.5309 34.2206 27.5299 35.7969 25.3378 37.2518C23.1459 38.7064 20.9156 39.9377 18.8881 40.8132C15.2928 42.3655 13.2527 42.4113 12.8253 41.7682C12.4999 41.2783 12.881 39.9313 14.9293 37.7035C14.952 37.7476 14.9751 37.7916 14.9984 37.8354C14.5354 38.3979 14.1435 39.0479 14.4715 39.5414C14.8522 40.115 15.811 39.8762 16.6038 39.6044C18.4026 38.987 21.2328 37.453 24.1748 35.5006C27.1167 33.5484 29.6298 31.5368 30.897 30.1195C31.4554 29.4948 32.0471 28.7042 31.6664 28.1312C31.3387 27.638 30.5874 27.7459 29.8892 27.9542C29.858 27.9157 29.8264 27.8775 29.7944 27.8392C32.6435 26.8174 34.033 26.9892 34.3586 27.4791Z" fill="#14CBA8"/>
</g>
<g opacity="0.3">
<path opacity="0.3" d="M31.493 28.8934C30.304 30.2232 27.8508 32.2133 24.8569 34.1998C21.8632 36.1864 19.0756 37.674 17.3877 38.2531C17.1595 37.9869 16.9448 37.704 16.7455 37.4051C16.7362 37.3908 16.7274 37.3771 16.7178 37.3631C16.6308 37.2304 16.5482 37.0968 16.47 36.9615C16.2859 36.6448 16.1246 36.3205 15.9854 35.9904C15.9799 35.977 15.974 35.9636 15.9691 35.9502C15.7651 35.4591 15.6102 34.9563 15.5028 34.4477C15.2994 33.4801 15.2685 32.4921 15.4013 31.5282C15.6624 29.6364 16.5538 27.8394 18.0089 26.4761C17.6891 27.2028 17.4729 27.9701 17.3649 28.7534C17.2319 29.7172 17.2628 30.7047 17.4665 31.6729C17.5733 32.1815 17.7282 32.6842 17.9321 33.175C17.9377 33.189 17.9435 33.2022 17.9491 33.2156C17.9564 33.2334 17.9663 33.255 17.9785 33.2803C18.6374 34.6594 20.292 35.0184 21.7745 34.644C24.6001 33.9304 30.2763 29.5942 31.474 28.6117C31.6012 28.819 31.3859 28.679 31.493 28.8934Z" fill="#14CBA8"/>
</g>
<g opacity="0.41">
<g opacity="0.41">
<path opacity="0.41" d="M30.3613 30.027C30.223 30.1818 30.0678 30.3452 29.8959 30.5169C29.7813 30.3084 29.657 30.1025 29.5234 29.901C29.5023 29.8695 29.4813 29.8389 29.46 29.808C29.3827 29.6942 29.3031 29.5831 29.2211 29.4749C29.0005 29.1824 28.7639 28.9077 28.5138 28.6517C28.4838 28.6208 28.4531 28.5907 28.4228 28.5604C28.044 28.1842 27.6347 27.8485 27.2017 27.556C26.3926 27.0086 25.5012 26.6091 24.5705 26.3671C22.3031 25.7762 19.8028 26.116 17.6971 27.5135C16.2913 28.4464 15.2517 29.724 14.6165 31.1602C15.1931 29.4035 16.3421 27.8208 18.0032 26.7185C20.1089 25.3216 22.6089 24.981 24.876 25.5721C25.8067 25.8144 26.6987 26.2137 27.5078 26.7613C27.9402 27.0539 28.3495 27.3889 28.7283 27.7651C28.7592 27.7955 28.7892 27.8261 28.8193 27.857C29.0696 28.1133 29.306 28.3872 29.5263 28.6797C29.6085 28.7884 29.6882 28.8996 29.7652 29.0127C29.7868 29.0436 29.8078 29.0742 29.8285 29.1063C30.0272 29.4058 30.2049 29.7135 30.3613 30.027Z" fill="white"/>
</g>
</g>
<g opacity="0.3">
<path opacity="0.3" d="M16.4584 39.6286C16.5068 39.6286 16.5558 39.6208 16.6037 39.6044C18.4022 38.9871 21.2324 37.4531 24.1747 35.5007C27.1167 33.5485 29.6297 31.5369 30.8969 30.1196C31.0189 29.9831 31.0454 29.7862 30.964 29.6223C30.7994 29.2916 30.611 28.9656 30.4035 28.6535C30.302 28.5007 30.1952 28.3497 30.0855 28.205C29.8573 27.9023 29.6067 27.611 29.3414 27.3392C26.335 24.2625 21.5475 23.7586 17.9575 26.1409C14.3675 28.5232 12.974 33.1286 14.6438 37.0921C14.7915 37.4423 14.963 37.7858 15.1539 38.1142C15.2446 38.2708 15.3423 38.4277 15.4436 38.5805C15.6508 38.8926 15.878 39.1927 16.119 39.4729C16.2057 39.5735 16.3303 39.6286 16.4584 39.6286ZM30.021 29.7498C28.7529 31.0857 26.3633 32.9746 23.6795 34.7555C20.9955 36.5365 18.3263 38.0046 16.6025 38.654C16.4572 38.4715 16.3186 38.2813 16.1891 38.0859C16.0978 37.9483 16.0096 37.8068 15.9276 37.6654C15.7558 37.3694 15.6012 37.06 15.4681 36.7447C13.9649 33.1773 15.2198 29.0309 18.4524 26.886C21.6847 24.7414 25.9951 25.1946 28.7013 27.9641C28.94 28.2085 29.1652 28.471 29.3712 28.7439C29.4701 28.8749 29.5664 29.0108 29.658 29.1481C29.7876 29.3438 29.9092 29.5453 30.021 29.7498ZM30.0306 28.9011H30.0292H30.0306Z" fill="#14CBA8"/>
</g>
</g>
</g>
<path d="M52.9385 32.8499C47.3177 41.6262 34.7428 43.9111 26.2979 41.1228C23.5436 39.0724 21.479 36.7143 20.0574 34.0716C29.4517 43.9146 51.9695 37.229 50.6069 20.7664C51.2509 21.5196 51.8251 22.321 52.3193 23.1688L52.9385 32.8499Z" fill="#0C8E76"/>
<path d="M53.217 21.2411L53.9727 20.7619C51.967 17.6019 49.0037 14.8827 45.4026 12.8985C42.0942 11.0755 38.3382 9.90087 34.5401 9.50193C28.4015 8.85714 22.8957 10.352 19.8113 13.5013L20.4506 14.1268C23.3456 11.1712 28.5774 9.7746 34.4465 10.3914C42.3014 11.217 49.4936 15.3741 53.217 21.2411Z" fill="#14CBA8"/>
<path d="M51.9325 23.3937L52.7051 22.9428C50.9121 19.8726 48.0008 17.2336 44.2862 15.3112C40.8462 13.5311 36.8051 12.4413 32.907 12.2424C26.3411 11.9065 20.9027 14.0074 17.9847 18.0038L18.7077 18.5311C21.4443 14.7825 26.6052 12.8164 32.8614 13.1357C40.9255 13.5472 48.5896 17.6696 51.9325 23.3937Z" fill="#14CBA8"/>
<path d="M33.6693 42.6938C36.0441 42.6938 38.467 42.3818 40.7939 41.7553C46.2273 40.2925 50.6743 37.2156 53.316 33.0917C53.4493 32.8838 53.3886 32.6073 53.1803 32.474C52.9723 32.3407 52.6957 32.4014 52.5623 32.6096C47.1038 41.1321 34.7521 43.4442 26.4385 40.6988C26.2034 40.6215 25.951 40.7486 25.8733 40.9831C25.7957 41.2176 25.9232 41.4704 26.1578 41.548C28.469 42.3106 31.0395 42.6938 33.6693 42.6938Z" fill="#14CBA8"/>
<path d="M34.0975 44.604C42.7177 44.604 49.9517 41.0578 54.6417 34.4731C54.7849 34.2719 54.738 33.9928 54.5366 33.8496C54.3356 33.7061 54.0564 33.7534 53.9128 33.9546C48.9932 40.8615 41.1471 44.2975 31.8254 43.627C31.5754 43.6095 31.3647 43.7947 31.3472 44.0408C31.3294 44.2873 31.515 44.5013 31.7613 44.5188C32.5502 44.576 33.3295 44.604 34.0975 44.604Z" fill="#14CBA8"/>
<g opacity="0.4">
<path opacity="0.4" d="M30.9833 15.2604C24.2713 18.7549 21.327 24.5971 22.1501 32.7875C22.1886 33.1712 21.685 33.3483 21.479 33.0222C19.467 29.8353 18.6054 26.2836 19.2715 22.2463C19.5189 20.7473 20.2944 19.377 21.4688 18.4123C24.1683 16.1948 27.2536 14.869 30.7846 14.573C31.1832 14.5398 31.3381 15.0758 30.9833 15.2604Z" fill="white"/>
<path opacity="0.4" d="M21.7831 33.2665C21.8342 33.2665 21.8841 33.2577 21.9293 33.2423C22.0939 33.1854 22.2494 33.0206 22.2252 32.78C21.4094 24.6614 24.368 18.7895 31.0187 15.3267C31.2399 15.2115 31.2889 14.9864 31.239 14.8143C31.1891 14.6426 31.0286 14.4784 30.7795 14.4994C27.3339 14.7881 24.1859 16.0852 21.4228 18.3553C20.2417 19.3255 19.4522 20.7032 19.1992 22.2348C18.5549 26.1365 19.2806 29.6783 21.417 33.0623C21.5092 33.2081 21.6501 33.2665 21.7831 33.2665ZM30.8212 14.6464C30.9781 14.6464 31.0668 14.7566 31.0954 14.8557C31.1261 14.961 31.1062 15.113 30.9496 15.1946C24.2393 18.6883 21.2542 24.6098 22.0767 32.7952C22.0939 32.9655 21.9818 33.0667 21.8806 33.1017C21.7811 33.1361 21.6329 33.1253 21.543 32.983C19.4271 29.6313 18.7084 26.1233 19.346 22.2593C19.5931 20.7635 20.364 19.418 21.517 18.4708C24.2565 16.2206 27.3771 14.9345 30.7917 14.6484C30.8016 14.6466 30.8115 14.6464 30.8212 14.6464Z" fill="#14CBA8"/>
</g>
<g opacity="0.4">
<path opacity="0.4" d="M41.9772 22.2011C42.9884 23.2764 43.8244 24.468 44.4855 25.7762C44.9296 26.6552 46.0646 26.9395 46.8405 26.3326C46.8498 26.3253 46.8589 26.318 46.8682 26.3108C47.5492 25.7619 47.7934 24.8261 47.5151 23.997C47.0088 22.4896 46.1898 21.1933 44.857 20.244C44.0987 19.7039 43.0675 19.6666 42.3349 20.2411C42.1137 20.4146 41.9398 20.624 41.8044 20.8632C41.5587 21.2965 41.6358 21.8384 41.9772 22.2011Z" fill="white"/>
<path opacity="0.4" d="M45.9039 26.7248C46.2569 26.7248 46.6012 26.6084 46.8837 26.3876L46.9126 26.3646C47.6049 25.8064 47.874 24.8461 47.5813 23.975C47.024 22.3159 46.1464 21.0768 44.8976 20.1874C44.0934 19.6143 43.0217 19.614 42.292 20.1862C42.0723 20.3586 41.8876 20.5749 41.7438 20.8287C41.4844 21.2862 41.5579 21.8566 41.9264 22.2489C42.9284 23.3142 43.7684 24.5113 44.4234 25.8076C44.6504 26.2567 45.061 26.5766 45.5497 26.6857C45.6676 26.7119 45.7863 26.7248 45.9039 26.7248ZM43.5659 19.8966C43.9974 19.8966 44.4383 20.0313 44.8167 20.3011C46.0404 21.1731 46.9018 22.3891 47.4491 24.0196C47.7234 24.8356 47.4725 25.7347 46.8247 26.2567L46.7979 26.278C46.4542 26.5466 46.0101 26.6457 45.5806 26.5498C45.1324 26.4498 44.7563 26.1564 44.5483 25.7449C43.8874 24.437 43.0395 23.2287 42.0285 22.1535C41.702 21.8065 41.6364 21.3017 41.8654 20.8978C42.0002 20.6598 42.173 20.4574 42.3784 20.2961C42.7177 20.0296 43.1373 19.8966 43.5659 19.8966Z" fill="#14CBA8"/>
</g>
<g opacity="0.4">
<path opacity="0.4" d="M48.2129 33.1312C47.6116 35.032 46.0363 35.135 45.2196 34.27C44.9914 34.0286 44.9185 33.6812 44.9935 33.3578C45.2266 32.3514 45.3844 31.3406 45.4554 30.3252C45.5239 29.3401 46.6554 28.7638 47.4669 29.3272C48.1549 29.8049 48.6389 30.9356 48.2129 33.1312Z" fill="white"/>
<path opacity="0.4" d="M46.3928 34.8615C46.5124 34.8615 46.6326 34.8481 46.7519 34.8207C47.4466 34.6618 47.9891 34.0692 48.2791 33.1523L48.2811 33.1444C48.7774 30.586 48.0083 29.6187 47.5059 29.2699C47.1131 28.9972 46.6148 28.9605 46.1728 29.1722C45.7144 29.3918 45.4197 29.8211 45.3853 30.3203C45.317 31.3031 45.162 32.3197 44.9251 33.3422C44.8414 33.7032 44.9324 34.068 45.1685 34.3179C45.5014 34.6702 45.9411 34.8615 46.3928 34.8615ZM48.1452 33.1141C47.8703 33.9799 47.3647 34.5378 46.721 34.6848C46.199 34.8044 45.6566 34.6314 45.27 34.2223C45.0661 34.0062 44.9879 33.6889 45.0611 33.3737C45.2998 32.3442 45.4556 31.32 45.5244 30.3299C45.5556 29.8814 45.8206 29.4959 46.2334 29.2979C46.6291 29.1083 47.0752 29.1404 47.4265 29.3842C47.9009 29.7137 48.6248 30.6364 48.1452 33.1141Z" fill="#14CBA8"/>
</g>
<path d="M39.6351 46.1104C44.9691 46.1104 50.0714 44.2653 54.1676 40.8217C58.7304 36.986 61.4982 31.6267 61.9609 25.7312C62.4237 19.8357 60.5263 14.1107 56.6179 9.61062C52.7116 5.11286 47.2636 2.3771 41.2778 1.90758C35.2918 1.43865 29.4837 3.29106 24.9232 7.12479C20.3605 10.9606 17.5924 16.3198 17.1299 22.2153C16.6672 28.1109 18.5646 33.8358 22.4729 38.3359C26.3792 42.8337 31.8272 45.5694 37.813 46.0389C38.4222 46.0868 39.0303 46.1104 39.6351 46.1104ZM39.4569 2.87958C40.0343 2.87958 40.6138 2.90232 41.1958 2.94782C46.9068 3.39576 52.1039 6.00495 55.8295 10.2945C59.5532 14.5817 61.361 20.0351 60.9202 25.6495C60.4793 31.2639 57.8425 36.3689 53.4953 40.0232C49.5893 43.307 44.7217 45.0666 39.6334 45.0669C39.056 45.0669 38.4765 45.0445 37.8947 44.9987C32.1838 44.5508 26.9867 41.9416 23.261 37.652C19.5374 33.3648 17.7295 27.9114 18.1701 22.297C18.6107 16.6826 21.2477 11.5776 25.5949 7.92327C29.5009 4.63955 34.3686 2.87958 39.4569 2.87958Z" fill="#14CBA8"/>
<path d="M56.0066 34.8312C53.1878 34.6102 51.1777 30.9275 51.5169 26.6056C51.8561 22.2838 54.4161 18.9594 57.235 19.1804C60.0538 19.4014 62.0639 23.0841 61.7247 27.406C61.3855 31.7278 58.8254 35.0522 56.0066 34.8312Z" fill="white"/>
<path d="M56.2685 34.917C59.0164 34.917 61.4662 31.6312 61.7976 27.4126C62.1396 23.0565 60.0945 19.3304 57.2392 19.1065C55.8498 18.9974 54.4811 19.7212 53.3852 21.1443C52.2965 22.5581 51.6056 24.4957 51.4405 26.6004C51.0985 30.9564 53.1436 34.6825 55.9989 34.9065C56.0887 34.9135 56.1789 34.917 56.2685 34.917ZM61.6485 27.4009C61.313 31.675 58.7804 34.975 56.0103 34.7578C53.2369 34.5402 51.2535 30.8861 51.589 26.6118C51.7521 24.5357 52.4319 22.6261 53.5033 21.235C54.5674 19.853 55.8909 19.1502 57.2275 19.2549C60.0009 19.4724 61.9841 23.1268 61.6485 27.4009Z" fill="#14CBA8"/>
<g opacity="0.3">
<path opacity="0.3" d="M61.7214 27.4065C61.382 31.729 58.822 35.0536 56.0031 34.8325C53.1843 34.6115 51.1746 30.9285 51.5139 26.606C51.546 26.1974 51.5982 25.7979 51.6691 25.41C52.3452 27.9075 53.8971 29.687 55.8298 29.8387C58.3823 30.0387 60.7232 27.3339 61.394 23.6116C61.7036 24.7559 61.8279 26.0499 61.7214 27.4065Z" fill="#14CBA8"/>
</g>
<path d="M56.2634 35.3642C59.2439 35.3642 61.8923 31.9003 62.2419 27.4477C62.6031 22.8459 60.3739 18.9039 57.2727 18.661C55.7274 18.5391 54.2204 19.3248 53.0291 20.8718C51.888 22.3536 51.1649 24.3757 50.9928 26.5656C50.6316 31.1674 52.8607 35.1094 55.962 35.3526C56.063 35.3602 56.1636 35.3642 56.2634 35.3642ZM61.2014 27.3661C60.8851 31.3943 58.5719 34.5098 56.044 34.3123C53.5163 34.114 51.7173 30.6755 52.0335 26.6472C52.1899 24.6566 52.8371 22.8316 53.8563 21.5082C54.825 20.2501 56.0099 19.6085 57.191 19.7009C59.7186 19.8993 61.5177 23.3378 61.2014 27.3661Z" fill="#14CBA8"/>
<path d="M57.7736 34.1662C58.8325 34.1662 59.8555 33.4983 60.673 32.2656C61.4885 31.0358 62.0158 29.3666 62.157 27.5655C62.461 23.6909 60.9254 20.5168 58.6609 20.3392C56.3976 20.1622 54.3838 23.0575 54.0798 26.9321C53.7757 30.8063 55.3113 33.9807 57.5758 34.1583C57.642 34.1635 57.7077 34.1662 57.7736 34.1662ZM58.4666 21.2261C58.508 21.2261 58.5495 21.2275 58.5909 21.231C60.2966 21.3649 61.5212 24.2336 61.2653 27.4958C61.1355 29.1478 60.6605 30.6663 59.9272 31.7716C59.2465 32.7981 58.4339 33.3292 57.6461 33.2668C55.9404 33.1329 54.7158 30.2642 54.9717 27.002C55.2215 23.8195 56.8055 21.2261 58.4666 21.2261Z" fill="#14CBA8"/>
<path d="M62.8162 63.6972C62.837 63.6733 62.8463 63.6601 62.8571 63.6456C62.8685 63.6304 62.8784 63.6164 62.8874 63.603C62.9061 63.5753 62.9248 63.5479 62.9405 63.5207C62.9747 63.4665 63.0039 63.412 63.033 63.3577C63.0894 63.2484 63.1378 63.137 63.1789 63.0235C63.2612 62.7972 63.3143 62.5622 63.3324 62.3259C63.3508 62.0906 63.3438 61.855 63.2974 61.6304C63.2597 61.4041 63.181 61.1921 63.0958 60.99C63.0476 60.876 62.9163 60.8226 62.8022 60.8707C62.706 60.9113 62.6531 61.011 62.6677 61.1099L62.6707 61.1291C62.6981 61.3146 62.7185 61.4966 62.7025 61.6747C62.6952 61.8523 62.6546 62.0235 62.6 62.1848C62.5458 62.3461 62.4673 62.4971 62.3733 62.6339C62.3264 62.7021 62.2753 62.7672 62.2216 62.8273C62.1942 62.8564 62.1673 62.8859 62.1393 62.9115C62.1256 62.9255 62.1119 62.9366 62.0985 62.9483C62.0918 62.9544 62.0854 62.9596 62.0798 62.9634C62.074 62.9678 62.0667 62.9737 62.0699 62.9681C61.8683 63.174 61.8718 63.5044 62.0778 63.7059C62.2843 63.9066 62.6146 63.9031 62.8162 63.6972Z" fill="#14CBA8"/>
<path d="M20.4929 35.6409C20.5171 35.9891 20.5203 36.3379 20.5017 36.6849C20.4763 37.1725 20.4086 37.6566 20.3006 38.1317C19.8323 40.1929 18.6013 42.0841 16.7004 43.3454C14.7954 44.6096 12.568 45.0085 10.4821 44.6358C10.024 44.5539 9.57262 44.4349 9.13349 44.2794C8.78891 44.1578 8.4519 44.0138 8.12424 43.8484C10.1048 42.9934 12.3556 41.7677 14.644 40.2492C16.9321 38.7309 18.9357 37.1334 20.4929 35.6409Z" fill="#FFB200"/>
<path d="M10.5152 44.7755L10.4819 44.6361L10.3953 44.5209L10.4192 44.5029L10.4487 44.4956C11.5741 44.2284 13.6311 43.1733 15.689 41.8079C17.7582 40.435 19.4809 38.9932 20.1852 38.0457L20.416 38.2171C19.6933 39.1897 17.9429 40.6575 15.848 42.0477C13.7323 43.4516 11.6887 44.4967 10.5152 44.7755Z" fill="#C4001D"/>
<path d="M14.6437 40.2487C16.9318 38.7302 18.9354 37.1329 20.4929 35.6404C20.5171 35.9886 20.5203 36.3374 20.5017 36.6844C19.3115 37.8839 17.3522 39.4449 15.0259 40.9885C12.7976 42.4671 10.6855 43.6295 9.1335 44.279C8.78892 44.1574 8.45191 44.0133 8.12425 43.8479C10.1045 42.9929 12.355 41.7672 14.6437 40.2487Z" fill="#C4001D"/>
<g opacity="0.3">
<path opacity="0.3" d="M20.4929 34.4595C20.5171 34.8077 20.5203 35.1565 20.5017 35.5035C20.4763 35.9911 20.4086 36.4752 20.3006 36.9503C19.8323 39.0115 18.6013 40.9027 16.7004 42.164C14.7954 43.4282 12.568 43.8271 10.4821 43.4544C10.024 43.3725 9.57262 43.2535 9.13349 43.0981C8.78891 42.9765 8.4519 42.8324 8.12424 42.667C10.1048 41.812 12.3556 40.5863 14.644 39.0678C16.9321 37.5496 18.9357 35.952 20.4929 34.4595Z" fill="#575757"/>
</g>
<g opacity="0.35">
<path opacity="0.35" d="M19.6211 31.3014C19.5694 31.3597 19.5155 31.4187 19.4586 31.479C19.5067 31.4073 19.5543 31.3338 19.5995 31.26C19.6068 31.2734 19.6138 31.2868 19.6211 31.3014Z" fill="#0C8E76"/>
</g>
<path d="M19.0893 31.5259C19.2883 31.8254 19.4657 32.1328 19.6221 32.4465C18.4328 33.7764 15.9798 35.7664 12.9859 37.753C9.99231 39.7396 7.20498 41.2269 5.51706 41.8063C5.2883 41.5406 5.07385 41.2578 4.87486 40.9583C4.86552 40.9443 4.85618 40.9303 4.84714 40.916C4.7599 40.7836 4.67733 40.6497 4.59913 40.5144C4.41502 40.1977 4.25367 39.8734 4.11478 39.5436C4.10924 39.5302 4.1034 39.5168 4.09815 39.5033C3.8942 39.0122 3.73926 38.5095 3.63247 38.0009C3.42882 37.033 3.39789 36.0452 3.53065 35.0817C3.85306 32.7425 5.14066 30.5475 7.26391 29.1386C9.36966 27.7411 11.8696 27.4011 14.137 27.9919C15.0677 28.2343 15.9594 28.6338 16.7685 29.1812C17.2012 29.4737 17.6103 29.8091 17.9893 30.1853C18.0199 30.2153 18.0503 30.2459 18.0803 30.2768C18.3304 30.5329 18.567 30.8073 18.7876 31.1001C18.8696 31.2086 18.9492 31.3194 19.0266 31.4328C19.0473 31.4635 19.0683 31.4944 19.0893 31.5259Z" fill="#FFB200"/>
<path d="M19.026 31.4329C19.0473 31.4638 19.0683 31.4947 19.0893 31.5262C19.2883 31.8257 19.4657 32.1331 19.6221 32.4468C18.4328 33.7767 15.9798 35.7667 12.9859 37.7533C9.99233 39.7399 7.205 41.2272 5.51708 41.8066C5.28833 41.541 5.07387 41.2581 4.87488 40.9586C4.86555 40.9446 4.85621 40.9306 4.84717 40.9163C6.46389 40.4666 9.30928 39.0035 12.3613 36.9782C15.5337 34.8732 18.0602 32.7376 19.026 31.4329Z" fill="#C4001D"/>
<path d="M3.66348 38.2866L3.60046 37.7153C4.75764 37.5881 7.60391 36.1466 10.5225 34.2102C14.0043 31.8999 16.1663 29.8757 16.5025 29.0706L17.0332 29.2919C16.5882 30.3575 14.0997 32.5263 10.8406 34.6888C7.8064 36.7024 4.9222 38.1483 3.66348 38.2866Z" fill="#C4001D"/>
<path d="M3.61708 35.3554L3.4423 34.8078C4.70161 34.4062 6.81464 33.2738 8.95627 31.8527C11.2003 30.3636 13.0995 28.8148 13.9124 27.811L14.3594 28.1727C13.5124 29.2187 11.5639 30.8125 9.27431 32.3315C7.09154 33.7804 4.92365 34.939 3.61708 35.3554Z" fill="#C4001D"/>
<path d="M4.14272 39.7871L4.05315 39.2193C5.3711 39.0114 8.31016 37.5089 11.3668 35.4807C14.5728 33.3532 17.1906 31.122 17.7322 30.0549L18.2451 30.3151C17.6537 31.4798 15.0175 33.7484 11.6848 35.9598C8.51702 38.0618 5.55638 39.5643 4.14272 39.7871Z" fill="#C4001D"/>
<path d="M11.9782 45.2128C13.7189 45.2128 15.4526 44.71 16.948 43.7179C19.6346 41.9349 21.1641 38.8279 20.9391 35.6098C20.9272 35.4365 20.816 35.2864 20.6538 35.2239C20.4916 35.1612 20.3083 35.1983 20.1832 35.3184C18.5895 36.846 16.5885 38.4222 14.3964 39.8772C12.2046 41.3318 9.97425 42.563 7.9467 43.4385C7.78739 43.5073 7.68206 43.6619 7.67681 43.8354C7.67156 44.0089 7.76726 44.1696 7.92219 44.2481C9.19958 44.8931 10.5911 45.2128 11.9782 45.2128ZM20.0551 36.6573C19.9217 39.1921 18.5965 41.5505 16.4531 42.9728C14.3097 44.395 11.6207 44.7004 9.23139 43.8398C11.0477 42.9874 12.9854 41.8865 14.8912 40.6217C16.7977 39.3566 18.5644 37.9991 20.0551 36.6573Z" fill="#575757"/>
<path d="M23.79 29.8566C24.4812 30.8971 23.123 33.1199 20.4929 35.6407C18.9357 37.1333 16.9321 38.7305 14.6437 40.249C12.3553 41.7675 10.1046 42.9932 8.12398 43.8483C4.77849 45.2927 2.20211 45.6809 1.5109 44.6401C0.882998 43.6949 1.94535 41.7757 4.11441 39.5433C4.25359 39.8731 4.41465 40.1974 4.59876 40.5141C4.00733 41.1828 3.74356 41.6798 3.90229 41.9186C4.06393 42.1618 4.64311 42.1055 5.51668 41.806C7.2046 41.2269 9.99164 39.7393 12.9855 37.7527C15.9795 35.7661 18.4327 33.7761 19.6217 32.4463C20.2367 31.758 20.5136 31.2465 20.352 31.003C20.1936 30.7645 19.6328 30.8143 18.7869 31.0992C18.5663 30.8067 18.33 30.5323 18.0797 30.276C20.9802 29.1448 23.1621 28.9115 23.79 29.8566Z" fill="#FFC536"/>
<path d="M3.93729 43.0176C3.51801 43.0176 3.19735 42.9109 3.02812 42.656C2.68762 42.1433 3.08298 41.2783 4.23695 40.0127L4.58095 40.3259C3.49671 41.5154 3.26826 42.1765 3.41589 42.3988C3.6639 42.7723 5.23219 42.5367 8.09013 41.1392C9.68819 40.3574 11.4709 39.3218 13.2452 38.1442C15.0198 36.9666 16.6666 35.7266 18.0076 34.5581C20.4057 32.468 21.2311 31.1143 20.9834 30.7413C20.8355 30.5187 20.1372 30.4727 18.6197 31.0099L18.4642 30.5712C20.0798 29.9994 21.0301 29.9711 21.3709 30.4838C21.9827 31.4047 20.0459 33.3983 18.3134 34.9083C16.9572 36.09 15.2938 37.3428 13.5026 38.5312C11.7116 39.7199 9.91052 40.7659 8.29438 41.5565C6.80078 42.2871 5.03291 43.0176 3.93729 43.0176Z" fill="#FFEC90"/>
<path d="M3.40902 44.2553C2.81788 44.2553 2.34637 44.1074 2.09836 43.7338C1.45704 42.7685 2.81933 40.9937 4.07513 39.675L4.41243 39.9958C2.57162 41.9289 2.2104 43.0616 2.48613 43.4769C2.82634 43.989 4.47837 44.0126 8.01556 42.3929C9.84411 41.556 11.8679 40.4119 13.8686 39.0841C15.869 37.7566 17.7095 36.3364 19.1911 34.9768C22.0575 32.3472 22.6773 30.8162 22.3371 30.3041C22.0613 29.8891 20.8773 29.7821 18.3797 30.7272L18.2149 30.2924C19.9182 29.6476 22.0835 29.0816 22.7245 30.0469C23.5575 31.3009 21.0655 33.8888 19.5057 35.3198C18.0065 36.6954 16.1462 38.1311 14.1259 39.4717C12.1054 40.8123 10.0594 41.9689 8.2093 42.8158C6.8578 43.4343 4.80195 44.2553 3.40902 44.2553Z" fill="#FFEC90"/>
<g opacity="0.3">
<path opacity="0.3" d="M2.52401 43.6282C3.21435 44.6684 5.79132 44.2794 9.13624 42.8352C11.0763 41.9977 13.276 40.8052 15.5156 39.3296C13.3518 39.9959 11.7756 40.0181 11.258 39.2386C11.1329 39.0493 11.0745 38.8213 11.0806 38.5605C9.25236 39.6247 7.64934 40.4086 6.52951 40.7932C5.65564 41.0927 5.07705 41.1493 4.91453 40.9064C4.87572 40.8469 4.8623 40.7708 4.87426 40.6798L4.17196 39.5783C2.66114 41.3538 1.99764 42.8338 2.52401 43.6282Z" fill="#575757"/>
</g>
<path d="M3.07198 45.6765C4.69746 45.6765 6.8563 44.8824 8.30088 44.2586C10.3766 43.3624 12.6553 42.1046 14.8906 40.6214C17.1265 39.1379 19.1704 37.527 20.8017 35.9633C22.5316 34.3054 25.2688 31.2751 24.1621 29.609C23.2086 28.1742 20.2395 28.9534 17.9163 29.8598C17.7766 29.9143 17.6733 30.0354 17.6418 30.1818C17.61 30.3284 17.654 30.4813 17.7588 30.5886C17.9975 30.833 18.223 31.0954 18.4287 31.3684C18.5445 31.5221 18.7459 31.5848 18.9288 31.523C19.4598 31.3439 19.7554 31.3031 19.9065 31.299C19.8429 31.4395 19.6839 31.7043 19.2871 32.1482C18.0862 33.4914 15.5763 35.4961 12.737 37.38C9.89777 39.2639 7.07514 40.7979 5.37029 41.3829C4.80483 41.5768 4.49905 41.62 4.34528 41.6237C4.40685 41.4876 4.55857 41.2333 4.93292 40.8101C5.06072 40.6658 5.08144 40.4558 4.98457 40.2893C4.813 39.9938 4.65836 39.6844 4.52531 39.3692C4.46696 39.2309 4.34324 39.1312 4.1959 39.1035C4.04855 39.0758 3.89682 39.1239 3.79237 39.2315C2.05485 41.0195 0.183983 43.4522 1.13692 44.8871C1.51798 45.4592 2.22204 45.6765 3.07198 45.6765ZM23.4172 30.1036C23.8443 30.7466 23.0099 32.6084 20.1831 35.3176C18.5895 36.8451 16.5885 38.4214 14.3964 39.8763C12.2045 41.331 9.97422 42.5622 7.94667 43.4377C4.35141 44.99 2.31103 45.0358 1.88387 44.3927C1.55854 43.9028 1.93959 42.5558 3.98786 40.328C4.01062 40.3721 4.03367 40.4161 4.05701 40.4599C3.59396 41.0224 3.20211 41.6724 3.53006 42.1659C3.91083 42.7392 4.86961 42.5007 5.66236 42.2289C7.46115 41.6115 10.2914 40.0775 13.2333 38.1251C16.1753 36.1729 18.6884 34.1613 19.9556 32.744C20.514 32.1193 21.1057 31.3287 20.725 30.7557C20.3973 30.2625 19.646 30.3707 18.9478 30.5787C18.9166 30.5402 18.885 30.502 18.8529 30.4638C21.7018 29.4419 23.0916 29.6134 23.4172 30.1036Z" fill="#575757"/>
<g opacity="0.3">
<path opacity="0.3" d="M20.5496 31.5181C19.3607 32.8479 16.9074 34.838 13.9135 36.8246C10.9199 38.8111 8.13226 40.2987 6.44434 40.8779C6.21617 40.6116 6.00142 40.3288 5.80214 40.0299C5.7928 40.0156 5.78404 40.0019 5.77442 39.9879C5.68747 39.8552 5.60489 39.7216 5.5267 39.5863C5.34259 39.2696 5.18124 38.9453 5.04206 38.6152C5.03652 38.6018 5.03068 38.5883 5.02572 38.5749C4.82177 38.0838 4.66684 37.5811 4.55947 37.0725C4.3561 36.1048 4.32517 35.1168 4.45793 34.153C4.71907 32.2612 5.61044 30.4642 7.06552 29.1008C6.74574 29.8276 6.52953 30.5948 6.42158 31.3781C6.28853 32.342 6.31946 33.3294 6.52312 34.2976C6.6299 34.8062 6.78484 35.309 6.98879 35.7998C6.99433 35.8138 7.00017 35.8269 7.00571 35.8403C7.01301 35.8581 7.02293 35.8797 7.03518 35.9051C7.69401 37.2842 9.34867 37.6432 10.8312 37.2687C13.6567 36.5551 19.3329 32.2189 20.5307 31.2364C20.6579 31.4438 20.4426 31.3038 20.5496 31.5181Z" fill="#575757"/>
</g>
<g opacity="0.41">
<g opacity="0.41">
<path opacity="0.41" d="M19.4199 32.6518C19.2816 32.8066 19.1264 32.9699 18.9545 33.1417C18.8399 32.9332 18.7156 32.7273 18.5819 32.5258C18.5609 32.4943 18.5399 32.4637 18.5186 32.4327C18.4413 32.319 18.3616 32.2079 18.2797 32.0997C18.0591 31.8072 17.8224 31.5325 17.5724 31.2764C17.5423 31.2455 17.5117 31.2155 17.4814 31.1852C17.1026 30.809 16.6933 30.4733 16.2603 30.1808C15.4512 29.6334 14.5598 29.2339 13.6291 28.9918C11.3617 28.401 8.86144 28.7407 6.7557 30.1382C5.34992 31.0711 4.31033 32.3488 3.67513 33.785C4.25168 32.0283 5.40069 30.4456 7.06177 29.3432C9.16751 27.9463 11.6674 27.6057 13.9345 28.1969C14.8653 28.4392 15.7573 28.8384 16.5664 29.3861C16.9988 29.6786 17.4081 30.0137 17.7869 30.3899C17.8178 30.4202 17.8478 30.4508 17.8779 30.4818C18.1282 30.7381 18.3646 31.0119 18.5849 31.3044C18.6671 31.4132 18.7468 31.5243 18.8238 31.6375C18.8454 31.6684 18.8664 31.699 18.8871 31.7311C19.0858 32.0306 19.2635 32.3383 19.4199 32.6518Z" fill="white"/>
</g>
</g>
<path d="M5.51602 42.2535C5.56446 42.2535 5.61347 42.2457 5.66132 42.2293C7.45983 41.6119 10.29 40.078 13.2323 38.1255C16.1743 36.1734 18.6873 34.1617 19.9545 32.7444C20.0765 32.608 20.103 32.4111 20.0216 32.2472C19.8571 31.9165 19.6686 31.5905 19.4611 31.2784C19.3596 31.1256 19.2528 30.9746 19.1431 30.8299C18.9149 30.5272 18.6643 30.2359 18.3991 29.9641C15.3926 26.8874 10.6052 26.3838 7.01516 28.7658C3.42516 31.1481 2.03164 35.7534 3.70147 39.717C3.84911 40.0672 4.02067 40.4107 4.21149 40.7391C4.30224 40.8957 4.39998 41.0526 4.50122 41.2054C4.70839 41.5175 4.93568 41.8175 5.17668 42.0978C5.26334 42.1984 5.38793 42.2535 5.51602 42.2535ZM19.0786 32.3747C17.8106 33.7106 15.4209 35.5995 12.7372 37.3804C10.0531 39.1614 7.38396 40.6295 5.66016 41.2789C5.51485 41.0963 5.37626 40.9062 5.24671 40.7108C5.15539 40.5732 5.06727 40.4317 4.98528 40.2903C4.81343 39.9943 4.65879 39.6849 4.52574 39.3696C3.02251 35.8021 4.27743 31.6558 7.51001 29.5109C10.7426 27.3662 15.0527 27.8194 17.7589 30.589C17.9976 30.8334 18.2228 31.0959 18.4288 31.3688C18.5277 31.4998 18.624 31.6357 18.7156 31.773C18.8452 31.9687 18.9669 32.1702 19.0786 32.3747ZM19.0882 31.526H19.0868H19.0882Z" fill="#575757"/>
<path d="M17.5651 42.0883C17.5167 42.1332 17.4968 42.1574 17.4679 42.1901C17.4399 42.221 17.4172 42.251 17.3924 42.2816C17.3454 42.3426 17.2993 42.4032 17.2587 42.4651C17.1741 42.5878 17.1018 42.7141 17.0341 42.8413C16.8996 43.0961 16.7939 43.3592 16.7064 43.6243C16.6212 43.8902 16.5564 44.1591 16.5092 44.4289C16.4832 44.563 16.4704 44.6992 16.4505 44.8334L16.4167 45.2376C16.4097 45.3195 16.4707 45.3918 16.5529 45.3985C16.6256 45.4047 16.6904 45.3577 16.7093 45.2901L16.712 45.281L16.8161 44.9083C16.8587 44.7867 16.8937 44.6636 16.9413 44.5452C17.0315 44.307 17.1362 44.0766 17.2552 43.8576C17.3766 43.64 17.5105 43.4324 17.6611 43.2449C17.7367 43.1515 17.8143 43.0611 17.8969 42.9804C17.9371 42.9384 17.9797 42.9013 18.0209 42.8649C18.0416 42.848 18.0626 42.8287 18.0824 42.8144C18.1002 42.8007 18.1282 42.7797 18.1297 42.7821C18.3214 42.6263 18.3506 42.3446 18.1948 42.153C18.0389 41.9614 17.7568 41.9325 17.5651 42.0883Z" fill="#14CBA8"/>
<path d="M39.2586 57.1145C39.1779 56.0869 39.7156 55.2066 40.4596 55.1483C41.2035 55.09 41.872 55.8757 41.9526 56.9033C42.0333 57.9309 41.4955 58.8112 40.7516 58.8695C40.0077 58.9279 39.3392 58.1421 39.2586 57.1145Z" fill="#C4001D"/>
<g opacity="0.6">
<path opacity="0.6" d="M39.8385 57.698C39.7579 56.6703 40.2957 55.7901 41.0397 55.7318C41.2454 55.7158 41.4447 55.7659 41.6279 55.866C41.3467 55.3994 40.916 55.1124 40.4562 55.1486C39.7121 55.2069 39.1744 56.0873 39.2549 57.1147C39.3133 57.8584 39.6803 58.4734 40.16 58.7353C39.9864 58.4472 39.8691 58.0905 39.8385 57.698Z" fill="white"/>
</g>
<path d="M40.6722 59.3101C40.7087 59.3101 40.7451 59.3086 40.7819 59.3057C41.2782 59.2669 41.7334 58.9651 42.031 58.4781C42.3055 58.0287 42.4313 57.4574 42.3852 56.8695C42.284 55.5813 41.4209 54.6338 40.4213 54.7126C39.421 54.791 38.717 55.8613 38.8179 57.1491C38.864 57.7373 39.0776 58.2821 39.419 58.6831C39.7615 59.0855 40.2129 59.3101 40.6722 59.3101ZM41.5125 56.9377C41.544 57.3378 41.4606 57.733 41.284 58.022C41.1962 58.1657 41.0051 58.4107 40.7136 58.4335C40.4221 58.4565 40.1951 58.2445 40.0857 58.1159C39.866 57.8578 39.7222 57.4804 39.6906 57.0803C39.63 56.3081 39.9958 55.623 40.4895 55.5843C40.9832 55.5469 41.4518 56.1655 41.5125 56.9377Z" fill="#14CBA8"/>
</svg>
