<svg width="1278" height="291" viewBox="0 0 1278 291" fill="none" xmlns="http://www.w3.org/2000/svg">
<g clip-path="url(#clip0_208_4)">
<path d="M1008.53 284.981C997.544 281.778 987.256 276.539 978.203 269.536C969.308 262.59 962.145 253.676 957.277 243.494C952.099 232.634 949.477 220.223 949.477 206.608C949.551 192.164 952.345 177.863 957.712 164.453C960.433 157.615 963.81 151.056 967.795 144.868C971.798 138.65 976.448 132.873 981.667 127.633C991.153 118.081 1002.44 110.511 1014.88 105.363C1027.38 100.243 1040.77 97.6356 1054.28 97.6909C1064.87 97.6219 1075.4 99.2913 1085.45 102.632C1094.95 105.774 1103.74 110.755 1111.31 117.293C1127.14 131.12 1135.5 151.003 1135.5 174.793C1135.46 186.291 1133.95 197.737 1131.01 208.854H1025.64L1031.98 172.922H1083.85C1083.48 153.299 1071.15 141.107 1051.66 141.107C1035.61 141.107 1022.03 150.125 1013.44 166.497L1013.37 166.48C1010.73 171.746 1008.66 177.277 1007.19 182.98C1004.85 191.88 1002.97 205.113 1007.31 217.589C1012.7 235.852 1028.58 245.909 1052.04 245.909C1073.94 245.909 1099.01 236.932 1113.83 229.243L1109.67 252.822L1104.81 278.474C1088.23 285.631 1065.14 290.074 1044.55 290.074C1032.36 290.153 1020.22 288.437 1008.53 284.981ZM801.47 284.303C792.852 280.551 785.132 275.007 778.824 268.039C772.234 260.716 767.161 252.159 763.899 242.863C760.244 232.418 758.424 221.418 758.519 210.352C758.572 195.173 761.492 180.14 767.126 166.045C769.985 158.878 773.555 152.015 777.782 145.559C782.04 139.057 787.004 133.046 792.582 127.633C802.512 117.883 814.323 110.258 827.297 105.223C840.337 100.18 854.207 97.6251 868.189 97.6909C880.537 97.6913 892.802 99.7137 904.497 103.678L922.836 -0.000976562H976.113L925.69 285.959H873.429L875.672 273.982L874.925 273.607C869.132 278.809 862.421 282.887 855.135 285.63C847.099 288.624 838.585 290.13 830.01 290.075C820.2 290.142 810.483 288.176 801.471 284.299L801.47 284.303ZM829.637 162.07C821.095 172.744 815.788 188.809 815.788 203.991C815.788 228.091 829.156 243.664 849.849 243.664C860.89 243.664 872.323 239.012 882.037 230.564L895.886 152.336C890.549 149.402 879.657 144.476 866.692 144.476C859.581 144.374 852.541 145.908 846.116 148.958C839.692 152.009 834.053 156.495 829.637 162.07ZM293.351 204.738C293.351 177.787 303.831 148.968 324.043 128.381C343.132 108.918 369.706 97.689 400.398 97.689C452.049 97.689 492.098 129.879 492.098 183.029C492.098 209.978 481.617 238.8 461.406 259.384C442.317 278.848 415.743 290.077 385.051 290.077C333.401 290.077 293.351 257.888 293.351 204.738ZM364.467 160.571C355.484 171.05 350.242 186.397 350.242 200.994C350.242 224.199 363.342 241.417 388.042 241.417C402.264 241.417 413.493 235.803 420.98 227.195C429.962 216.714 435.202 201.369 435.202 186.772C435.202 163.564 422.102 146.347 397.402 146.347C383.182 146.348 371.953 151.961 364.468 160.572L364.467 160.571ZM60.6372 284.836C49.6225 281.719 39.2576 276.648 30.0371 269.864C20.8989 263.116 13.4509 254.34 8.27979 244.225C2.78579 233.382 -0.00195312 220.977 -0.00195312 207.358C0.0715859 192.281 3.17437 177.372 9.12207 163.517C12.2947 156.082 16.2784 149.02 21.001 142.459C25.9495 135.594 31.7169 129.358 38.1758 123.89C43.2091 119.639 48.6444 115.888 54.4048 112.69C60.2997 109.417 66.4708 106.668 72.8462 104.473C79.3329 102.239 85.9933 100.548 92.7598 99.415C99.5833 98.271 106.49 97.6942 113.409 97.6909C123.664 97.71 133.881 98.9182 143.857 101.291C153.524 103.573 162.915 106.896 171.865 111.203L162.789 162.685C145.422 151.505 127.572 145.596 111.163 145.596C96.7391 145.596 84.648 150.004 75.231 158.696C63.983 169.24 57.2651 185.052 57.2651 200.99C57.2651 226.156 74.6187 241.79 102.553 241.79C117.311 241.79 134.92 237.59 150.868 230.28L141.712 282.207C134.457 284.752 126.979 286.611 119.377 287.76C111.461 289.024 103.458 289.672 95.4419 289.7C83.6681 289.745 71.9486 288.108 60.6382 284.837L60.6372 284.836ZM1126.59 285.959L1159.06 101.807H1212.96L1208.84 126.507L1209.58 126.882C1216.34 119.027 1224.42 112.409 1233.44 107.324C1242.27 102.327 1252.22 99.6551 1262.36 99.5581C1267.37 99.5474 1272.34 100.399 1277.06 102.075L1267.74 154.923C1261.27 153.008 1254.55 152.013 1247.8 151.97C1235.85 151.797 1224.16 155.503 1214.49 162.532C1207.02 168.047 1201.56 175.368 1200.23 181.643L1181.52 285.956L1126.59 285.959ZM642.952 285.959L635.092 236.926C632.098 218.585 629.851 202.117 627.607 184.899H626.857C619.372 200.619 610.763 217.837 601.031 236.553L575.579 285.959H520.933L490.615 101.807H548.257L556.864 159.821C559.858 179.659 561.731 195.38 563.602 212.971H564.349C572.584 195.755 580.82 179.284 590.925 159.821L620.867 101.807H663.167L672.525 159.821C675.518 178.162 677.764 195.38 680.009 212.971H680.757C688.617 195.755 697.228 177.787 706.21 159.821L735.029 101.807H791.548L696.105 285.959H642.952ZM158.263 285.959L190.735 101.807H244.628L240.512 126.507L241.258 126.882C248.016 119.027 256.09 112.408 265.119 107.324C273.944 102.327 283.894 99.6548 294.034 99.5581C299.042 99.5477 304.015 100.399 308.734 102.075L299.416 154.923C292.939 153.008 286.225 152.014 279.471 151.97C267.518 151.798 255.83 155.503 246.16 162.532C238.695 168.047 233.233 175.368 231.904 181.643L213.189 285.956L158.263 285.959Z" fill="white"/>
</g>
<defs>
<clipPath id="clip0_208_4">
<rect width="1277.06" height="290.077" fill="white"/>
</clipPath>
</defs>
</svg>
