<svg xmlns="http://www.w3.org/2000/svg" width="1277.059" height="290.077" viewBox="0 0 1277.059 290.077"><path d="M-4458.469,3371.982a91.362,91.362,0,0,1-30.329-15.445,72.983,72.983,0,0,1-20.926-26.042c-5.178-10.86-7.8-23.271-7.8-36.886a115.042,115.042,0,0,1,8.235-42.155,114.1,114.1,0,0,1,10.083-19.585,104.873,104.873,0,0,1,13.872-17.235,101.524,101.524,0,0,1,33.217-22.27,102.818,102.818,0,0,1,39.395-7.672,96.793,96.793,0,0,1,31.167,4.941,76.228,76.228,0,0,1,25.869,14.661c15.824,13.827,24.188,33.71,24.188,57.5a135.533,135.533,0,0,1-4.491,34.061h-105.374l6.339-35.932h51.872c-.368-19.623-12.7-31.815-32.188-31.815-16.054,0-29.628,9.018-38.22,25.39l-.075-.017a83.149,83.149,0,0,0-6.175,16.5c-2.34,8.9-4.217,22.133.118,34.609,5.39,18.263,21.273,28.32,44.726,28.32,21.9,0,46.977-8.977,61.791-16.666l-4.156,23.579-4.858,25.652c-16.58,7.157-39.67,11.6-60.262,11.6A124.229,124.229,0,0,1-4458.469,3371.982Zm-207.062-.678a66.175,66.175,0,0,1-22.646-16.264,74.541,74.541,0,0,1-14.925-25.176,95.921,95.921,0,0,1-5.38-32.511,120.508,120.508,0,0,1,8.607-44.307,115.569,115.569,0,0,1,10.656-20.486,105.622,105.622,0,0,1,14.8-17.926,102.454,102.454,0,0,1,34.715-22.41,111.912,111.912,0,0,1,40.892-7.532,113.107,113.107,0,0,1,36.308,5.987L-4544.165,3087h53.277l-50.423,285.96h-52.261l2.243-11.977-.747-.375a62.651,62.651,0,0,1-19.79,12.023,70.66,70.66,0,0,1-25.125,4.445A70.985,70.985,0,0,1-4665.53,3371.3Zm28.167-122.233c-8.542,10.674-13.849,26.739-13.849,41.921,0,24.1,13.368,39.673,34.061,39.673,11.041,0,22.474-4.652,32.188-13.1l13.849-78.228c-5.337-2.934-16.229-7.86-29.194-7.86A46.421,46.421,0,0,0-4637.363,3249.071Zm-536.286,42.668c0-26.951,10.48-55.77,30.692-76.357,19.089-19.463,45.663-30.692,76.355-30.692,51.651,0,91.7,32.19,91.7,85.34,0,26.949-10.481,55.771-30.692,76.355-19.089,19.464-45.663,30.693-76.355,30.693C-5133.6,3377.078-5173.649,3344.889-5173.649,3291.739Zm71.116-44.167c-8.983,10.479-14.225,25.826-14.225,40.423,0,23.205,13.1,40.423,37.8,40.423,14.222,0,25.451-5.614,32.938-14.222,8.982-10.481,14.222-25.826,14.222-40.423,0-23.208-13.1-40.425-37.8-40.425C-5083.819,3233.349-5095.048,3238.962-5102.533,3247.573Zm-303.83,124.265a95.523,95.523,0,0,1-30.6-14.972,73.418,73.418,0,0,1-21.757-25.639c-5.494-10.843-8.282-23.248-8.282-36.867a112.529,112.529,0,0,1,9.124-43.841A109.834,109.834,0,0,1-5446,3229.46a104.047,104.047,0,0,1,17.175-18.569,101.488,101.488,0,0,1,16.229-11.2,115.32,115.32,0,0,1,18.441-8.217,124.076,124.076,0,0,1,19.914-5.058,125.236,125.236,0,0,1,20.649-1.724,132.653,132.653,0,0,1,30.448,3.6,137.339,137.339,0,0,1,28.008,9.912l-9.076,51.482c-17.367-11.18-35.217-17.089-51.626-17.089-14.424,0-26.515,4.408-35.932,13.1-11.248,10.544-17.966,26.356-17.966,42.294,0,25.166,17.354,40.8,45.288,40.8,14.758,0,32.367-4.2,48.315-11.51l-9.156,51.927a122.972,122.972,0,0,1-22.335,5.553,155.226,155.226,0,0,1-23.935,1.94A123.567,123.567,0,0,1-5406.363,3371.838Zm1065.953,1.123,32.471-184.152h53.894l-4.116,24.7.746.375a89.246,89.246,0,0,1,23.86-19.558,59.849,59.849,0,0,1,28.916-7.766,43.639,43.639,0,0,1,14.7,2.517l-9.319,52.848a71.957,71.957,0,0,0-19.944-2.953,55.292,55.292,0,0,0-33.309,10.562c-7.466,5.515-12.929,12.836-14.258,19.111l-18.716,104.313Zm-483.638,0-7.86-49.033c-2.994-18.341-5.241-34.809-7.485-52.027h-.75q-11.228,23.58-25.826,51.654l-25.452,49.406h-54.646l-30.318-184.152h57.642l8.607,58.014c2.994,19.838,4.867,35.559,6.738,53.15h.747c8.235-17.216,16.471-33.687,26.576-53.15l29.942-58.014h42.3l9.358,58.014c2.993,18.341,5.239,35.559,7.484,53.15h.748c7.86-17.216,16.471-35.184,25.453-53.15l28.819-58.014h56.519l-95.443,184.152Zm-484.689,0,32.472-184.152h53.893l-4.116,24.7.746.375a89.235,89.235,0,0,1,23.861-19.558,59.84,59.84,0,0,1,28.915-7.766,43.656,43.656,0,0,1,14.7,2.517l-9.318,52.848a71.969,71.969,0,0,0-19.945-2.953,55.3,55.3,0,0,0-33.311,10.562c-7.465,5.515-12.927,12.836-14.256,19.111l-18.715,104.313Z" transform="translate(5467.001 -3087.001)"/></svg>