<svg width="35" height="29" viewBox="0 0 35 29" fill="none" xmlns="http://www.w3.org/2000/svg">
<path d="M0 25.2575C3.08297 27.3128 6.85104 28.5118 10.9617 28.5118C24.1499 28.5118 31.6861 17.3788 31.1723 7.27353C32.5425 6.24587 33.7414 5.04694 34.769 3.50546C33.5701 4.01929 32.1999 4.53311 30.6584 4.70439C32.1999 3.84801 33.2276 2.47782 33.7414 0.765055C32.3712 1.62144 30.8297 2.13526 29.2882 2.47782C27.918 1.10761 26.2053 0.251221 24.15 0.251221C19.5255 0.251221 16.1 4.53311 17.1276 8.98629C11.133 8.64374 5.99466 5.90334 2.39786 1.62144C0.513818 4.87568 1.37023 8.9863 4.62448 11.2129C3.42554 11.2129 2.39785 10.8703 1.37019 10.3565C1.37019 13.6108 3.59681 16.6937 7.02233 17.3788C5.99468 17.7214 4.96703 17.7214 3.7681 17.5501C4.62448 20.4618 7.36489 22.5171 10.4479 22.5171C7.53616 24.7437 3.76808 25.7714 0 25.2575Z" fill="#002C23"/>
</svg>
