<svg width="33" height="33" viewBox="0 0 33 33" fill="none" xmlns="http://www.w3.org/2000/svg">
<path d="M7.27555 10.4903H0.676758V31.9785H7.27555V10.4903Z" fill="#002C23"/>
<path d="M3.8916 7.78316C6.09119 7.78316 7.78316 5.92197 7.78316 3.89158C7.78316 1.86119 6.09119 0 3.8916 0C1.69202 0 0 1.86119 0 3.89158C0 5.92197 1.69202 7.78316 3.8916 7.78316Z" fill="#002C23"/>
<path d="M17.9349 20.8115C17.9349 17.7659 19.2885 15.9047 21.9957 15.9047C24.3645 15.9047 25.5489 17.5967 25.5489 20.8115C25.5489 23.857 25.5489 32.1478 25.5489 32.1478H32.1476C32.1476 32.1478 32.1476 24.3646 32.1476 18.4427C32.1476 12.6899 28.9328 9.81354 24.3644 9.81354C19.7961 9.81354 17.9349 13.3667 17.9349 13.3667V10.4903H11.5054V31.9786H17.9349C17.9349 31.9786 17.9349 24.0262 17.9349 20.8115Z" fill="#002C23"/>
</svg>
