<svg width="28" height="33" viewBox="0 0 28 33" fill="none" xmlns="http://www.w3.org/2000/svg">
<path d="M13.0854 32.6938C8.89386 32.6938 4.69349 32.685 0.50193 32.7026C0.132087 32.7026 0 32.6322 0 32.2271C0.0176116 28.6784 0.0176116 25.1296 0 21.5721C0 21.1934 0.0968636 21.0438 0.493125 21.0614C1.15356 21.0878 1.81399 21.0878 2.47443 21.0614C2.82666 21.0438 2.92353 21.1582 2.91472 21.5105C2.89711 24.0906 2.91472 26.6707 2.89711 29.2596C2.89711 29.6734 2.98517 29.8055 3.42546 29.8055C9.86249 29.7879 16.3083 29.7879 22.7454 29.8055C23.1593 29.8055 23.2561 29.691 23.2561 29.2948C23.2385 26.7147 23.2561 24.1346 23.2385 21.5457C23.2385 21.1934 23.3178 21.0526 23.6964 21.0702C24.3833 21.0966 25.0789 21.0878 25.7658 21.0702C26.0387 21.0614 26.1532 21.123 26.1532 21.4312C26.1444 25.068 26.1444 28.7048 26.1532 32.3504C26.1532 32.7643 25.9155 32.7026 25.6689 32.7026C21.4773 32.6938 17.277 32.6938 13.0854 32.6938Z" fill="#03745C"/>
<path d="M20.8788 20.5769C20.7115 21.3783 20.5265 22.1796 20.368 22.9809C20.3064 23.2979 20.1039 23.1835 19.9366 23.1482C18.3427 22.8136 16.7577 22.479 15.1638 22.1444C12.3107 21.5456 9.45766 20.9468 6.60458 20.3744C6.22593 20.2952 6.09384 20.1895 6.21712 19.7756C6.40205 19.1328 6.51652 18.4636 6.631 17.7943C6.68383 17.4597 6.84234 17.4157 7.13293 17.4773C9.37841 17.9528 11.6327 18.4283 13.887 18.895C16.0972 19.3529 18.3075 19.8196 20.5089 20.2864C20.6498 20.3216 20.9404 20.2423 20.8788 20.5769Z" fill="#002C23"/>
<path d="M9.27227 10.8642C9.36913 10.9082 9.44839 10.9434 9.52764 10.9787C13.6928 12.9336 17.8579 14.8796 22.0231 16.8257C22.2784 16.949 22.3401 17.0459 22.208 17.31C21.8998 17.9353 21.6004 18.5781 21.3362 19.2297C21.2041 19.5555 21.0808 19.5907 20.7638 19.441C17.5057 17.9088 14.2387 16.3942 10.9718 14.8708C10.0824 14.457 9.19302 14.0343 8.30363 13.638C8.04826 13.5235 8.03065 13.4179 8.14513 13.1801C8.47094 12.4933 8.77034 11.7976 9.09615 11.102C9.12257 11.0139 9.13138 10.873 9.27227 10.8642Z" fill="#002C23"/>
<path d="M13.0591 26.8731C10.7872 26.8731 8.51529 26.8643 6.2434 26.882C5.90878 26.882 5.7855 26.8115 5.80311 26.4505C5.82953 25.7812 5.82953 25.1032 5.80311 24.4251C5.7855 24.0641 5.89117 23.9584 6.26101 23.9672C10.6463 23.9848 15.0316 23.976 19.4081 23.976C20.3239 23.976 20.3239 23.976 20.3239 24.883C20.3239 25.4114 20.3063 25.9397 20.3327 26.4681C20.3503 26.7939 20.2534 26.8908 19.9188 26.882C17.6381 26.8731 15.3486 26.8731 13.0591 26.8731Z" fill="#002C23"/>
<path d="M27.4478 11.7536C27.4566 11.8769 27.3597 11.9121 27.2981 11.9649C26.664 12.4405 26.0212 12.8984 25.396 13.3915C25.123 13.6028 25.0526 13.3827 24.9381 13.233C23.1946 10.8818 21.4422 8.52187 19.6987 6.17072C18.7212 4.84985 17.7526 3.52898 16.7575 2.22573C16.5462 1.95275 16.599 1.83827 16.8544 1.65335C17.418 1.26589 17.9727 0.85202 18.5099 0.420536C18.7652 0.218003 18.8973 0.209197 19.1175 0.499788C21.5127 3.75793 23.9254 6.99847 26.3382 10.2478C26.664 10.6793 26.9899 11.1196 27.3069 11.5511C27.3597 11.6127 27.4037 11.692 27.4478 11.7536Z" fill="#002C23"/>
<path d="M13.5166 4.86749C13.587 4.92033 13.6751 4.98197 13.7543 5.04361C17.2855 7.97594 20.8078 10.9083 24.3389 13.8406C24.5943 14.0519 24.6119 14.184 24.3917 14.4306C23.9162 14.9677 23.4583 15.5225 23.0092 16.0861C22.8595 16.271 22.7627 16.3062 22.5601 16.1389C19.0202 13.1802 15.4715 10.2302 11.9139 7.28028C11.6938 7.09536 11.6762 6.98969 11.8699 6.76955C12.3542 6.22359 12.8121 5.6424 13.2788 5.07883C13.3405 4.99077 13.3845 4.89391 13.5166 4.86749Z" fill="#002C23"/>
</svg>
