<svg width="32" height="33" viewBox="0 0 32 33" fill="none" xmlns="http://www.w3.org/2000/svg">
<path d="M15.7326 3.72674C19.9683 3.72674 20.4221 3.72675 22.0861 3.87803C23.5988 3.87803 24.5065 4.18057 24.9603 4.48312C25.7167 4.78567 26.1705 5.08822 26.7756 5.69332C27.3807 6.29841 27.6832 6.75223 27.9858 7.50861C28.137 8.1137 28.4396 8.87007 28.5909 10.3828C28.5909 12.0468 28.7421 12.5007 28.7421 16.7364C28.7421 20.972 28.7422 21.4259 28.5909 23.0899C28.5909 24.6026 28.2883 25.5103 27.9858 25.9641C27.6832 26.7205 27.3807 27.1743 26.7756 27.7794C26.1705 28.3845 25.7167 28.687 24.9603 28.9896C24.3552 29.1408 23.5988 29.4434 22.0861 29.5947C20.4221 29.746 19.9683 29.7459 15.7326 29.7459C11.4969 29.7459 11.0431 29.746 9.37903 29.5947C7.86629 29.5947 6.95865 29.2921 6.50483 28.9896C5.74846 28.687 5.29462 28.3845 4.68952 27.7794C4.08442 27.1743 3.78189 26.7205 3.47934 25.9641C3.32807 25.359 3.02553 24.6026 2.87425 23.0899C2.72298 21.4259 2.72297 20.972 2.72297 16.7364C2.72297 12.5007 2.72298 12.0468 2.87425 10.3828C2.87425 8.87007 3.17679 7.96243 3.47934 7.50861C3.78189 6.75223 4.08442 6.29841 4.68952 5.69332C5.29462 5.08822 5.74846 4.78567 6.50483 4.48312C7.10993 4.33184 7.86629 4.0293 9.37903 3.87803C11.0431 3.72675 11.4969 3.72674 15.7326 3.72674ZM15.7326 0.852539C11.4969 0.852539 10.8918 0.852525 9.22775 1.0038C7.56373 1.15507 6.35354 1.30635 5.44589 1.76017C4.38697 2.214 3.47934 2.66781 2.72297 3.57546C1.81532 4.48311 1.36148 5.39076 0.907656 6.2984C0.453833 7.35733 0.302558 8.41625 0.151284 10.0803C9.23081e-06 11.7443 0 12.3494 0 16.5851C0 20.8208 9.23081e-06 21.4259 0.151284 23.0899C0.302558 24.7539 0.453833 25.9641 0.907656 26.8717C1.36148 27.9307 1.81532 28.8383 2.72297 29.5947C3.63061 30.5023 4.53824 30.9561 5.44589 31.41C6.50481 31.8638 7.56373 32.0151 9.22775 32.1663C10.8918 32.3176 11.4969 32.3176 15.7326 32.3176C19.9683 32.3176 20.5733 32.3176 22.2374 32.1663C23.9014 32.0151 25.1116 31.8638 26.0192 31.41C27.0781 30.9561 27.9858 30.5023 28.7421 29.5947C29.6498 28.687 30.1036 27.7794 30.5575 26.8717C31.0113 25.8128 31.1626 24.7539 31.3138 23.0899C31.4651 21.4259 31.4651 20.8208 31.4651 16.5851C31.4651 12.3494 31.4651 11.7443 31.3138 10.0803C31.1626 8.41625 31.0113 7.20605 30.5575 6.2984C30.1036 5.23948 29.6498 4.33183 28.7421 3.57546C27.8345 2.66781 26.9269 2.214 26.0192 1.76017C24.9603 1.30635 23.9014 1.15507 22.2374 1.0038C20.5733 0.852525 20.1195 0.852539 15.7326 0.852539Z" fill="#002C23"/>
<path d="M15.7323 8.5675C11.1941 8.5675 7.56348 12.1981 7.56348 16.7363C7.56348 21.2746 11.1941 24.9051 15.7323 24.9051C20.2706 24.9051 23.9011 21.2746 23.9011 16.7363C23.9011 12.1981 20.2706 8.5675 15.7323 8.5675ZM15.7323 21.8797C12.8581 21.8797 10.4377 19.4593 10.4377 16.5851C10.4377 13.7108 12.8581 11.2904 15.7323 11.2904C18.6065 11.2904 21.0269 13.7108 21.0269 16.5851C21.0269 19.6105 18.6065 21.8797 15.7323 21.8797Z" fill="#002C23"/>
<path d="M26.0196 8.26497C26.0196 9.32389 25.1119 10.2315 24.053 10.2315C22.9941 10.2315 22.0864 9.32389 22.0864 8.26497C22.0864 7.20605 22.9941 6.2984 24.053 6.2984C25.2632 6.2984 26.0196 7.20605 26.0196 8.26497Z" fill="#002C23"/>
</svg>
