<svg width="165" height="185" viewBox="0 0 165 185" fill="none" xmlns="http://www.w3.org/2000/svg">
<path d="M104.13 47.2024C102.085 46.2601 99.9884 45.4442 97.8524 44.7654C94.8532 43.8066 91.7785 43.1131 88.6666 42.6851C75.1647 40.8277 60.9491 43.998 49.0056 52.6818C37.0352 61.3838 29.5491 74.0226 27.0405 87.5625C26.4902 90.5362 26.1786 93.5537 26.1148 96.5798C26.0626 98.9537 26.1631 101.333 26.4133 103.703C36.0879 93.6075 48.6146 82.7143 62.9933 72.2607C77.3696 61.8082 91.5757 53.2674 104.13 47.2024Z" fill="#FFB200"/>
<path d="M25.8411 86.8953L26.6033 87.4216L27.0984 88.2155L27.2616 88.1124L27.3726 87.9506C31.5418 81.7448 42.5699 71.7211 55.4653 62.4143C68.4322 53.0561 81.0233 45.961 88.3234 43.8932L87.8183 42.0939C80.3255 44.2148 67.5153 51.4176 54.3865 60.8915C41.128 70.4592 30.1901 80.4247 25.8411 86.8953Z" fill="#C4001D"/>
<path d="M63.0551 72.2074C77.4102 61.7407 91.5934 53.1864 104.131 47.1102C102.087 46.1672 99.9919 45.3509 97.8574 44.6718C87.9211 49.1803 74.0567 57.5471 59.4635 68.1893C45.4852 78.383 33.6767 88.5917 26.2339 96.5602C26.1838 98.9367 26.2863 101.318 26.5384 103.692C36.1942 93.5841 48.6987 82.6777 63.0551 72.2074Z" fill="#C4001D"/>
<g opacity="0.3">
<path opacity="0.3" d="M111.561 49.6548C109.515 48.7125 107.419 47.8966 105.283 47.2178C102.283 46.2589 99.2087 45.5654 96.0968 45.1375C82.5948 43.28 68.3792 46.4504 56.4357 55.1342C44.4653 63.8362 36.9792 76.475 34.4706 90.0149C33.9203 92.9886 33.6087 96.006 33.5449 99.0322C33.4927 101.406 33.5932 103.785 33.8434 106.156C43.518 96.0599 56.0447 85.1667 70.4235 74.7131C84.7998 64.2606 99.0058 55.7197 111.561 49.6548Z" fill="#002C23"/>
</g>
<g opacity="0.35">
<path opacity="0.35" d="M129.61 59.7806C129.133 59.96 128.647 60.1522 128.146 60.3586C128.696 60.2303 129.256 60.1095 129.812 60.0033C129.747 59.9293 129.682 59.8572 129.61 59.7806Z" fill="#0C8E76"/>
</g>
<path d="M127.89 64.5796C126.537 62.6917 125.087 60.9166 123.549 59.2543C112.77 63.4344 95.0886 73.77 76.183 87.3922C57.2781 101.013 41.867 114.519 34.4768 123.43C35.5566 125.422 36.7733 127.365 38.1261 129.253C38.1893 129.342 38.2524 129.43 38.318 129.518C38.9177 130.348 39.537 131.153 40.1752 131.935C41.6663 133.772 43.2557 135.488 44.9303 137.081C44.9987 137.145 45.0664 137.211 45.1354 137.273C47.6353 139.628 50.3187 141.712 53.1482 143.517C58.532 146.955 64.4334 149.391 70.5654 150.781C85.4519 154.153 101.69 151.347 115.097 141.686C128.396 132.105 136.208 117.728 137.856 102.641C138.534 96.4479 138.171 90.134 136.724 83.9839C135.951 80.6954 134.865 77.4525 133.463 74.2989C133.352 74.0448 133.237 73.7912 133.119 73.5386C132.147 71.4401 131.032 69.3811 129.769 67.3776C129.302 66.6336 128.816 65.8986 128.308 65.1716C128.17 64.9764 128.032 64.7787 127.89 64.5796Z" fill="#FFB200"/>
<path d="M127.423 65.2701C127.285 65.0698 127.147 64.8713 127.005 64.6714C125.651 62.7755 124.202 60.993 122.665 59.3239C111.944 63.5283 94.3677 73.9198 75.5829 87.6135C56.7987 101.305 41.4937 114.882 34.1619 123.837C35.2435 125.837 36.4614 127.789 37.8146 129.685C37.8778 129.773 37.941 129.862 38.0065 129.95C44.394 121.132 59.6851 107.147 78.8358 93.1883C98.7405 78.6777 117.361 68.1708 127.423 65.2701Z" fill="#C4001D"/>
<path d="M52.3124 142.465L55.603 144.177C59.0077 137.456 74.1678 123.551 92.4681 110.359C114.301 94.6222 131.402 86.2221 137.01 86.0575L136.89 82.3242C129.469 82.5428 110.753 92.5861 90.3169 107.317C71.2884 121.03 56.0155 135.155 52.3124 142.465Z" fill="#C4001D"/>
<path d="M70.6726 149.276L73.566 151.61C78.8551 144.91 90.4868 134.734 103.919 125.056C117.994 114.916 131.641 107.005 139.531 104.412L138.378 100.861C130.156 103.562 116.126 111.667 101.767 122.014C88.0737 131.876 76.159 142.324 70.6726 149.276Z" fill="#C4001D"/>
<path d="M43.8822 136.235L47.0912 138.1C51.3482 130.592 67.0862 116.266 86.2533 102.45C106.357 87.96 125.743 77.2779 133.394 76.4771L133 72.7614C124.649 73.6375 104.996 84.3442 84.0986 99.4071C64.2343 113.725 48.4471 128.182 43.8822 136.235Z" fill="#C4001D"/>
<path d="M26.9557 77.1389C30.9309 66.5552 37.9238 57.1616 47.3251 50.3344C64.2192 38.0692 86.4598 35.8618 105.364 44.5751C106.382 45.0432 107.035 46.062 107.041 47.1907C107.049 48.3202 106.407 49.3498 105.396 49.8366C92.5392 56.0395 78.4586 64.6077 64.6735 74.6148C50.8908 84.6208 38.3681 95.3709 28.4554 105.7C27.6763 106.512 26.5031 106.799 25.4441 106.435C24.3851 106.071 23.634 105.122 23.5145 104.001C22.5391 94.7623 23.7881 85.5725 26.9557 77.1389ZM97.0246 47.5593C81.4248 42.5841 64.1678 45.2585 50.6911 55.0439C37.2143 64.8293 29.2313 80.4816 28.9678 96.9733C38.2591 87.8758 49.3269 78.6075 61.311 69.9067C73.2982 61.203 85.5241 53.56 97.0246 47.5593Z" fill="#002C23"/>
<path d="M147.527 39.9343C142.826 33.3487 126.335 36.5415 105.154 46.7979C92.6131 52.8704 78.4257 61.422 64.0654 71.8875C49.705 82.353 37.1956 93.2581 27.5356 103.365C11.2175 120.436 3.0174 135.237 7.7207 141.823C11.9913 147.806 25.979 145.721 44.3723 137.613C42.7002 136.012 41.1113 134.29 39.6205 132.446C34.2435 134.52 30.6474 134.991 29.5684 133.479C28.4696 131.939 30.1262 128.541 33.9189 123.906C41.25 114.951 56.5581 101.379 75.3452 87.6863C94.1322 73.9941 111.711 63.602 122.433 59.3999C127.981 57.2268 131.695 56.7093 132.796 58.2497C133.874 59.7594 132.298 63.0601 128.656 67.5597C129.918 69.571 131.035 71.6369 132.011 73.7468C145.429 58.6693 151.798 45.9166 147.527 39.9343Z" fill="#FFC536"/>
<path d="M23.3181 130.183C22.3605 132.725 22.2698 134.917 23.4156 136.536C25.7199 139.793 31.8228 139.408 42.0671 135.357L40.9699 132.543C31.3424 136.348 26.8462 136.195 25.8475 134.783C24.1682 132.411 29.1666 123.452 44.0951 109.378C52.4451 101.51 62.7423 93.1121 73.8739 85.0959C85.0062 77.078 96.2217 69.98 106.309 64.5693C124.351 54.8945 134.375 53.04 136.051 55.4094C137.051 56.8238 135.733 61.1636 129.038 69.1131L131.32 71.0762C138.448 62.6131 140.788 56.9182 138.484 53.6596C134.345 47.808 117.937 54.9111 104.902 61.9009C94.701 67.373 83.3704 74.5419 72.1352 82.6356C60.899 90.7268 50.4968 99.2116 42.0528 107.169C34.2498 114.524 25.8205 123.541 23.3181 130.183Z" fill="#FFEC90"/>
<path d="M14.5223 130.534C13.1709 134.116 12.9818 137.318 14.6606 139.69C18.9976 145.821 32.7819 141.694 43.5809 137.15L42.4234 134.36C26.5931 141.019 18.9579 140.574 17.0917 137.937C14.7908 134.684 18.4256 124.618 36.2494 106.949C45.4615 97.8139 56.9659 88.2104 69.5221 79.174C82.0759 70.1386 94.8217 62.288 106.382 56.4711C128.744 45.2163 139.365 45.0216 141.666 48.2745C143.53 50.9107 141.467 58.3351 130.075 71.2728L132.312 73.2831C140.083 64.4599 148.436 52.6545 144.098 46.5245C138.464 38.5595 117.209 47.6428 105.04 53.7673C93.3425 59.6529 80.4585 67.5879 67.7804 76.713C55.1017 85.8398 43.4712 95.5485 34.1502 104.791C27.342 111.543 17.7067 122.092 14.5223 130.534Z" fill="#FFEC90"/>
<g opacity="0.3">
<path opacity="0.3" d="M16.1863 139.769C11.4463 133.154 19.4745 118.195 35.55 100.917C44.8734 90.8963 56.9066 80.0873 70.733 69.6776C61.9466 81.4646 58.3354 91.106 61.8868 96.0648C62.7502 97.2657 63.9945 98.1441 65.5778 98.7005C55.1366 107.518 46.8799 115.589 42.093 121.598C38.3616 126.289 36.7443 129.718 37.8484 131.271C38.121 131.645 38.5497 131.901 39.1239 132.035L44.2062 138.863C30.183 144.108 19.8079 144.816 16.1863 139.769Z" fill="#002C23"/>
</g>
<path d="M4.99183 129.931C8.69241 120.037 18.396 108.71 25.4464 101.342C35.5762 90.754 48.3489 79.756 62.3822 69.5374C76.4185 59.316 90.7862 50.5543 103.93 44.1959C117.866 37.4524 142.371 27.7125 149.899 38.254C156.38 47.335 144.922 63.6281 134.167 75.6986C133.52 76.4248 132.555 76.7771 131.6 76.6345C130.643 76.4931 129.822 75.8759 129.414 74.9932C128.483 72.9823 127.414 71.01 126.236 69.1345C125.573 68.0784 125.653 66.7098 126.443 65.7374C128.731 62.914 129.65 61.2082 130.019 60.2975C129.027 60.3636 127.068 60.7268 123.488 62.1284C112.654 66.3707 94.8509 77.0696 77.0263 90.0493C59.2017 103.029 43.5254 116.707 36.1163 125.748C33.6595 128.747 32.7031 130.51 32.3301 131.437C33.2916 131.373 35.1705 131.031 38.5745 129.718C39.736 129.27 41.0493 129.624 41.833 130.594C43.2239 132.313 44.7377 133.961 46.3359 135.49C47.0366 136.161 47.3564 137.142 47.188 138.102C47.0197 139.062 46.3841 139.876 45.4973 140.266C30.7596 146.759 11.83 152.59 5.34702 143.513C2.76413 139.887 3.05684 135.105 4.99183 129.931ZM145.22 41.6586C142.315 37.5899 129.188 38.4172 106.415 49.4357C93.5753 55.6475 79.5145 64.2275 65.7502 74.2478C51.9883 84.267 39.4858 95.0308 29.5905 105.373C12.0444 123.712 7.12312 136.027 10.0284 140.095C12.2422 143.195 21.2328 143.952 39.33 136.572C39.1162 136.333 38.9032 136.092 38.6925 135.85C34.246 137.384 29.4339 138.284 27.2049 135.161C24.6144 131.534 28.2357 126.243 31.6795 122.038C39.4976 112.499 55.1913 98.775 73.6629 85.3266C92.1328 71.8775 109.985 61.1751 121.417 56.6989C126.455 54.7263 132.57 52.9301 135.159 56.5566C137.387 59.6774 135.024 64.0035 132.18 67.7786C132.341 68.0566 132.5 68.3356 132.657 68.6182C145.305 53.611 147.435 44.7602 145.22 41.6586Z" fill="#002C23"/>
<g opacity="0.3">
<path opacity="0.3" d="M130.801 55.4505C120.071 59.6486 102.478 70.032 83.6739 83.7132C64.8706 97.3927 49.5462 110.958 42.2067 119.906C43.2927 121.903 44.5095 123.855 45.8583 125.751C45.9232 125.84 45.9859 125.925 46.0484 126.015C46.6506 126.847 47.268 127.655 47.906 128.44C49.3966 130.283 50.9849 132.005 52.6589 133.606C52.7271 133.671 52.7948 133.737 52.8644 133.798C55.3616 136.16 58.041 138.251 60.8639 140.066C66.2366 143.513 72.1253 145.957 78.2411 147.35C90.2462 150.081 103.116 148.761 114.655 143.02C109.543 143.306 104.422 142.87 99.4517 141.738C93.3353 140.347 87.4501 137.904 82.0745 134.453C79.2503 132.642 76.571 130.551 74.0755 128.19C74.0037 128.124 73.9378 128.058 73.8695 127.994C73.7789 127.909 73.6713 127.799 73.5462 127.667C66.7295 120.509 68.3347 109.621 73.9714 101.455C84.714 85.891 123.802 61.2538 132.457 56.2092C131.496 54.9616 131.85 56.5915 130.801 55.4505Z" fill="#002C23"/>
</g>
<g opacity="0.41">
<g opacity="0.41">
<path opacity="0.41" d="M121.844 58.4799C120.606 58.9714 119.28 59.5472 117.867 60.2058C118.877 61.3935 119.85 62.6343 120.777 63.9223C120.921 64.1244 121.061 64.3245 121.201 64.527C121.72 65.2656 122.218 66.0125 122.693 66.7671C123.98 68.8003 125.124 70.8909 126.126 73.0209C126.248 73.2772 126.362 73.535 126.479 73.7918C127.927 76.9909 129.063 80.2844 129.886 83.6232C131.43 89.864 131.9 96.2681 131.332 102.55C129.956 117.855 122.446 132.436 109.403 142.142C100.696 148.622 90.7038 152.054 80.6352 152.632C92.5133 153.156 104.588 149.759 114.877 142.102C127.916 132.394 135.431 117.817 136.805 102.513C137.371 96.2308 136.904 89.8238 135.358 83.5823C134.534 80.2471 133.401 76.9549 131.954 73.7558C131.838 73.4955 131.718 73.2399 131.597 72.9835C130.594 70.8511 129.454 68.7643 128.166 66.7329C127.688 65.9752 127.191 65.2283 126.675 64.4928C126.535 64.2885 126.396 64.0884 126.247 63.8868C124.87 61.9719 123.398 60.1672 121.844 58.4799Z" fill="white"/>
</g>
</g>
<path d="M31.762 122.409C31.8736 122.116 32.0341 121.837 32.2431 121.584C40.1193 112.091 55.915 98.4327 74.4996 85.048C93.0818 71.6645 111.036 61.0155 122.526 56.5632C123.632 56.1348 124.884 56.4221 125.687 57.2885C127.308 59.0385 128.846 60.9229 130.255 62.8904C130.945 63.8536 131.613 64.8446 132.235 65.8387C133.54 67.9105 134.724 70.0925 135.757 72.3184C147.438 97.5409 139.457 127.698 116.782 144.03C94.1061 160.361 63.0453 158.322 42.9223 139.18C41.1443 137.488 39.4619 135.666 37.9156 133.762C37.1776 132.856 36.4539 131.906 35.763 130.945C34.3531 128.979 33.0618 126.919 31.9221 124.82C31.5133 124.066 31.467 123.186 31.762 122.409ZM122.744 62.7128C111.744 67.3556 94.8173 77.5362 77.8651 89.7447C60.9124 101.955 45.8862 114.787 37.988 123.755C38.7573 125.051 39.588 126.324 40.4712 127.553C41.0933 128.42 41.7456 129.276 42.4122 130.095C43.8064 131.81 45.3214 133.452 46.9214 134.976C65.0332 152.206 92.9988 154.041 113.416 139.335C133.832 124.629 141.019 97.479 130.503 74.7749C129.575 72.7723 128.507 70.8098 127.33 68.9401C126.766 68.0426 126.166 67.1498 125.547 66.2819C124.662 65.0514 123.723 63.8554 122.744 62.7128ZM127.899 64.5864L127.895 64.5952L127.899 64.5864Z" fill="#002C23"/>
<path d="M41.582 173.551C44.0569 173.551 46.0633 171.561 46.0633 169.105C46.0633 166.65 44.0569 164.66 41.582 164.66C39.107 164.66 37.1006 166.65 37.1006 169.105C37.1006 171.561 39.107 173.551 41.582 173.551Z" fill="#E7B40B"/>
<path d="M68.1674 173.028C71.8448 173.028 74.826 170.071 74.826 166.423C74.826 162.774 71.8448 159.817 68.1674 159.817C64.4899 159.817 61.5088 162.774 61.5088 166.423C61.5088 170.071 64.4899 173.028 68.1674 173.028Z" fill="#F2505E"/>
<path d="M17.1737 88.3157C19.6487 88.3157 21.6551 86.3252 21.6551 83.8699C21.6551 81.4145 19.6487 79.4241 17.1737 79.4241C14.6988 79.4241 12.6924 81.4145 12.6924 83.8699C12.6924 86.3252 14.6988 88.3157 17.1737 88.3157Z" fill="#E7B40B"/>
</svg>
