<svg width="218" height="335" viewBox="0 0 218 335" fill="none" xmlns="http://www.w3.org/2000/svg">
<g clip-path="url(#clip0_92_3468)">
<path d="M1.22326 316.558C0.746235 317.038 0.0306987 317.278 0.0306987 317.997C-0.207813 319.196 0.984747 320.155 2.17731 320.635C11.4793 325.191 21.9738 329.028 32.2298 330.467C33.6609 330.706 35.092 330.467 36.7616 330.467C41.2933 330.227 46.0635 332.145 50.3567 333.104C49.4027 328.548 48.6872 324.232 47.7331 319.676C49.6412 323.752 51.5493 328.069 53.4574 332.145C54.1729 329.028 55.3655 326.15 57.2736 323.512C56.5581 326.63 57.0351 330.227 58.7047 333.104C59.8972 330.706 61.8053 328.548 64.1904 326.87C64.4289 329.268 64.906 331.905 65.1445 334.303C65.1445 334.543 65.1445 335.023 65.383 335.263C65.6215 335.502 66.0985 335.502 66.337 335.502C74.4464 334.543 82.5559 333.584 90.6653 332.865C102.829 331.666 114.755 329.507 126.919 327.109C136.937 325.191 147.193 323.512 156.972 320.875C160.311 319.915 164.365 319.196 166.274 316.079C167.943 313.441 167.943 309.844 166.035 307.446C167.228 309.844 169.136 312.002 171.521 313.441C172.475 311.522 173.429 309.604 174.383 307.925C174.622 310.084 175.576 312.002 176.53 313.92C177.961 312.482 179.869 311.522 182.015 311.043C181.3 311.283 182.492 314.4 182.731 314.88C185.355 313.201 187.978 311.522 191.079 312.002C193.464 312.242 195.611 312.961 197.996 312.242C204.436 310.563 210.875 306.726 215.407 301.931C215.169 302.17 210.637 300.971 209.921 300.732C206.582 300.012 203.481 299.533 200.142 298.813C191.079 297.135 182.015 296.415 172.952 295.216C169.136 294.737 165.558 294.737 161.742 295.216C158.88 295.456 154.825 295.456 153.632 292.099C152.678 293.058 151.724 294.017 150.532 294.976C148.862 292.818 147.67 290.18 146.716 287.782C144.807 291.619 141.945 294.976 138.368 297.374C136.46 294.976 135.267 292.099 135.267 288.981C132.643 290.42 130.258 292.339 128.35 294.737C127.635 292.578 126.919 290.66 126.442 288.502C125.25 289.941 124.057 291.619 122.864 293.058C122.626 293.538 122.149 293.777 121.672 293.777C120.718 294.017 120.241 292.818 120.002 292.099C119.287 290.18 119.048 288.022 118.81 286.104C118.094 288.022 117.14 289.941 116.425 292.099C116.186 293.058 115.471 294.017 114.516 293.777C114.039 293.538 113.801 293.298 113.562 292.818C112.37 290.9 111.416 288.981 110.223 287.063C109.269 290.66 109.031 294.497 109.508 298.334C106.169 298.334 102.591 298.094 99.0132 298.573C98.0591 298.573 97.1051 299.053 96.151 299.533C91.6193 300.971 86.1335 300.971 81.3633 300.971C68.2451 301.211 55.127 300.492 41.7703 302.41C28.8907 304.328 16.2495 308.165 5.03945 314.88C4.0854 314.64 2.65433 315.599 1.22326 316.558Z" fill="#013A2F"/>
<path d="M78.9781 234.307L181.777 235.027L184.4 239.343L75.8774 239.103L78.9781 234.307Z" fill="#14CBA8"/>
<path d="M149.339 132.872L210.875 298.334L200.619 297.854L141.468 133.351L149.339 132.872Z" fill="#C4001D" fill-opacity="0.8"/>
<path d="M197.757 303.609H218.031L212.783 294.976H196.803L197.757 303.609Z" fill="#14CBA8"/>
<path d="M110.462 132.872L51.5493 298.334L61.8053 297.854L118.333 133.351L110.462 132.872Z" fill="#C4001D" fill-opacity="0.8"/>
<path d="M64.6673 303.609H44.1553L49.641 294.976H65.6214L64.6673 303.609Z" fill="#14CBA8"/>
<path d="M81.6017 236.465L137.652 242.221V247.256L78.978 241.022L81.6017 236.465Z" fill="#14CBA8"/>
<path d="M184.162 236.465L139.322 242.221V247.256L186.07 241.022L184.162 236.465Z" fill="#14CBA8"/>
<path d="M129.543 132.872L134.79 312.961L145.046 312.242L137.414 133.351L129.543 132.872Z" fill="#C4001D" fill-opacity="0.8"/>
<path d="M150.293 317.997H129.781L131.928 309.364H148.147L150.293 317.997Z" fill="#14CBA8"/>
<path d="M138.368 102.897H123.818V131.433H138.368V102.897Z" fill="#C4001D" fill-opacity="0.8"/>
<path d="M138.368 119.203V131.193H129.066L128.827 120.642L138.368 119.203Z" fill="#C4001D" fill-opacity="0.8"/>
<path d="M82.0789 52.0594L43.2014 84.4323L33.8994 72.4424L72.7769 40.549C73.9694 39.5898 75.639 39.5898 77.0701 40.0694C78.9782 40.7888 81.1248 42.7072 82.0789 44.8654C83.7484 47.743 83.987 50.3808 82.0789 52.0594Z" fill="white" fill-opacity="0.75"/>
<path d="M82.3177 45.1053L42.9632 76.7589L40.5781 78.6773L36.0464 73.6415L37.716 72.2027L77.0705 40.3093C79.2171 41.0287 81.1252 42.9471 82.3177 45.1053Z" fill="white" fill-opacity="0.6"/>
<path d="M33.8996 72.4425C36.0463 70.7639 39.6239 72.4425 42.2476 75.7996C44.8712 79.1568 45.1097 83.2334 42.9631 84.6722C40.8165 86.3508 37.2388 84.6722 34.6152 81.315C31.9915 77.9578 31.753 74.1211 33.8996 72.4425Z" fill="white" fill-opacity="0.75"/>
<path d="M54.8887 74.6006L60.3744 89.4682L64.6677 86.3508L58.9434 68.8455C58.2278 71.2435 56.7968 73.1618 54.8887 74.6006Z" fill="white" fill-opacity="0.8"/>
<path d="M58.7046 68.6056L64.4289 86.1109L75.6389 75.5598L68.2451 60.4524L58.7046 68.6056Z" fill="white" fill-opacity="0.8"/>
<path d="M188.455 41.2684L158.164 68.126L124.772 28.7989L156.256 2.90051C159.357 0.262714 163.173 -0.456685 167.228 0.262714C172.475 1.22191 177.722 4.57911 182.254 9.1353C186.07 12.9721 189.409 17.7681 191.079 22.5641C192.033 25.2019 192.748 27.5999 192.748 29.9979C193.225 34.3143 191.794 38.3909 188.455 41.2684Z" fill="#14CBA8" fill-opacity="0.6"/>
<path d="M192.987 29.9978L159.595 59.0135L157.926 49.9011L191.079 22.564C192.033 24.962 192.749 27.5998 192.987 29.9978Z" fill="#14CBA8"/>
<path d="M182.254 9.13528L148.862 36.7122L132.644 28.559L167.228 0.262695C172.237 1.22189 177.722 4.57909 182.254 9.13528Z" fill="#14CBA8" fill-opacity="0.6"/>
<path d="M124.773 28.5592C131.689 23.0438 144.569 27.3602 153.394 38.6307C162.457 49.6615 164.127 63.3301 157.21 68.8455C150.293 74.3609 137.414 70.0445 128.589 58.7739C119.525 47.7431 117.856 34.3144 124.773 28.5592Z" fill="#14CBA8" fill-opacity="0.6"/>
<path d="M150.293 96.4224L136.46 106.974L125.011 115.846L118.094 121.362L108.792 111.53L104.499 106.974L144.092 75.3201L146 82.0345L150.293 96.4224Z" fill="#C4001D" fill-opacity="0.8"/>
<path d="M146 82.0345L108.792 111.53L104.499 106.974L144.092 75.3201L146 82.0345Z" fill="#C4001D" fill-opacity="0.8"/>
<path d="M151.963 70.2842L80.8864 127.117L53.9346 93.305L124.296 31.9163C127.158 29.7581 130.497 29.2785 133.836 29.7581C139.322 30.7173 144.808 34.5541 149.101 39.5899C151.725 42.7073 153.871 46.3042 155.302 50.141C156.256 52.7788 156.972 55.6564 157.21 58.0544C157.687 62.8504 156.018 67.4066 151.963 70.2842Z" fill="#C4001D" fill-opacity="0.8"/>
<path d="M149.101 39.5898L73.9693 101.938L61.8052 92.3458L134.074 29.7581C139.322 30.7173 144.807 34.554 149.101 39.5898Z" fill="#C4001D" fill-opacity="0.8"/>
<path d="M157.21 58.0545L84.7025 117.525L81.8403 110.331L155.302 50.1411C156.495 52.7789 157.21 55.4167 157.21 58.0545Z" fill="#C4001D" fill-opacity="0.8"/>
<path d="M82.5559 129.035L74.685 136.709L43.4399 100.019L52.5034 93.3049C54.65 91.6263 56.7966 90.6671 59.4202 90.6671C63.7135 90.4273 68.2452 92.3457 72.5384 95.4631C78.0242 99.5397 83.0329 105.774 85.4181 112.249C86.3721 114.407 86.8491 116.805 86.8491 118.963C87.0877 122.56 85.8951 126.157 82.5559 129.035Z" fill="#14CBA8"/>
<path d="M86.8492 118.484L75.1621 129.994L75.4006 121.361L85.6566 112.009C86.1337 114.167 86.6107 116.326 86.8492 118.484Z" fill="#14CBA8"/>
<path d="M72.5384 95.2234L58.2277 107.453L47.4946 99.7796C47.7331 99.5398 54.8885 94.0244 59.4202 90.6672C63.7134 90.1876 68.2452 92.106 72.5384 95.2234Z" fill="#14CBA8"/>
<path d="M118.094 121.362L110.223 123.28L97.582 112.729L104.499 106.974L118.094 121.362Z" fill="#C4001D" fill-opacity="0.8"/>
<path d="M43.4399 100.019C49.8797 94.7438 61.8053 99.0602 70.1532 109.372C78.5012 119.683 80.1707 132.392 73.7309 137.668C67.2911 142.944 55.3655 138.627 47.0176 128.316C38.6697 117.765 37.0001 105.295 43.4399 100.019Z" fill="#14CBA8"/>
<path d="M67.2914 133.831L38.4315 158.53L21.9741 136.948L51.3111 113.208C53.2192 111.769 55.3658 111.53 57.7509 112.249C59.4205 112.729 61.0901 113.688 62.7597 114.887C68.484 119.923 72.7772 129.515 67.2914 133.831Z" fill="#C4001D" fill-opacity="0.8"/>
<path d="M62.5212 115.127L32.2302 140.785L27.46 136.709L57.5125 112.489C59.1821 112.729 60.8517 113.688 62.5212 115.127Z" fill="#C4001D" fill-opacity="0.8"/>
<path d="M21.974 137.188C25.7901 134.55 32.23 137.188 36.7617 143.183C41.0549 149.178 41.7705 156.372 37.9543 159.01C34.1381 161.648 27.6982 159.01 23.1665 153.015C18.8733 147.02 18.1578 139.826 21.974 137.188Z" fill="#C4001D" fill-opacity="0.8"/>
<path d="M38.9084 126.877C38.9084 128.316 38.6699 130.234 37.2388 131.673C37.0003 131.913 36.7618 131.913 36.7618 132.153C32.7071 135.27 24.3591 135.51 24.3591 135.51L11.4795 117.285L26.2672 105.775L38.6699 123.76C38.1928 123.52 38.9084 124.959 38.9084 126.877Z" fill="#C4001D" fill-opacity="0.8"/>
<path d="M38.9081 126.877C38.9081 128.316 38.6696 130.234 37.2385 131.673L24.3589 113.928L26.5055 109.372L38.9081 126.877Z" fill="#C4001D" fill-opacity="0.8"/>
<path d="M29.1292 108.892C28.6521 110.331 27.2211 112.249 25.313 114.168C20.7812 118.724 13.3874 122.8 11.7178 120.642L7.66309 114.887L20.3042 92.8254L29.1292 106.974C29.3677 107.453 29.3677 108.173 29.1292 108.892Z" fill="white" fill-opacity="0.6"/>
<path d="M29.1292 108.892C28.6521 110.331 27.2211 112.249 25.313 114.168L16.2495 100.499L19.3502 94.2642L29.1292 108.892Z" fill="white" fill-opacity="0.6"/>
<path d="M49.1643 129.994L44.3941 133.112C32.4685 140.066 43.44 160.928 55.6042 153.735L60.6129 151.337L49.1643 129.994Z" fill="white" fill-opacity="0.6"/>
<path d="M49.1642 129.994C44.1554 133.112 42.9629 140.306 46.0635 146.061C49.4027 151.816 56.081 154.214 60.8513 151.097C65.86 147.979 67.0526 140.785 63.9519 135.03C60.6128 129.275 53.9344 126.877 49.1642 129.994Z" fill="white" fill-opacity="0.6"/>
<path d="M52.742 136.229C50.8339 137.428 50.1184 140.306 51.5494 142.704C52.9805 145.102 55.6041 146.061 57.5122 144.622C59.4203 143.423 60.1359 140.546 58.7048 138.148C57.2737 135.989 54.6501 135.03 52.742 136.229Z" fill="white" fill-opacity="0.6"/>
<path d="M136.459 106.974L125.011 115.846C122.149 111.29 122.149 104.576 127.873 101.458L132.166 98.5806L136.459 106.974Z" fill="#C4001D" fill-opacity="0.8"/>
<path d="M134.074 94.5039L129.781 97.3815C119.048 103.616 129.065 122.321 139.799 115.846L144.092 113.688L134.074 94.5039Z" fill="white" fill-opacity="0.6"/>
<path d="M134.074 94.5039C129.542 97.1417 128.35 103.616 131.451 108.892C134.313 114.167 140.275 116.086 144.807 113.448C149.339 110.81 150.531 104.336 147.431 99.0601C144.33 93.7845 138.367 91.8661 134.074 94.5039Z" fill="white" fill-opacity="0.6"/>
<path d="M137.175 100.259C135.505 101.458 135.028 103.856 135.982 106.014C137.175 108.172 139.56 108.892 141.23 107.933C142.899 106.734 143.376 104.336 142.422 102.177C141.468 99.7794 138.844 99.06 137.175 100.259Z" fill="white" fill-opacity="0.6"/>
<path d="M20.3041 92.8253C21.0197 93.3049 18.873 98.5805 15.2954 104.575C11.7177 110.57 8.37851 115.127 7.66298 114.887C6.94744 114.407 9.09405 109.132 12.6717 103.137C16.2494 97.1417 19.5886 92.3457 20.3041 92.8253Z" fill="white" fill-opacity="0.6"/>
<path d="M152.917 126.397H106.168V135.03H152.917V126.397Z" fill="#14CBA8"/>
<path d="M150.532 126.397H136.937V135.03H150.532V126.397Z" fill="#14CBA8"/>
</g>
<defs>
<clipPath id="clip0_92_3468">
<rect width="218" height="335" fill="white"/>
</clipPath>
</defs>
</svg>
