<svg width="36" height="76" viewBox="0 0 36 76" fill="none" xmlns="http://www.w3.org/2000/svg">
<path d="M29.953 33.5924C29.953 51.6669 17.9209 66.3161 17.9209 66.3161C17.2973 65.5519 5.90723 51.2065 5.90723 33.6292C5.90723 15.5823 11.2813 0.942212 17.9209 0.905382C24.5606 0.859344 29.953 15.5086 29.953 33.5924Z" fill="#EFEFEF"/>
<path d="M24.8995 70.4227H11.29C11.1876 70.422 11.0868 70.3978 10.9952 70.3518C10.9036 70.3059 10.8237 70.2394 10.7617 70.1576C10.6997 70.0758 10.6572 69.9808 10.6375 69.8799C10.6178 69.779 10.6214 69.6749 10.6481 69.5756L11.0516 68.084L13.7111 58.0938H22.4876L25.1471 68.084L25.5414 69.5756C25.57 69.675 25.5751 69.7797 25.5562 69.8814C25.5373 69.9831 25.495 70.0789 25.4326 70.1613C25.3702 70.2436 25.2895 70.3101 25.197 70.3555C25.1044 70.4009 25.0025 70.4239 24.8995 70.4227Z" fill="#C4001D"/>
<path d="M25.1472 68.0657H11.0518L13.7113 58.0754H22.4877L25.1472 68.0657Z" fill="#D12C3D"/>
<path d="M12.0422 50.7922C12.0422 50.7922 1.03724 55.8564 0.000940545 75.0359C-0.0083635 75.2281 0.0516074 75.4173 0.16987 75.5688C0.288133 75.7204 0.456776 75.824 0.644949 75.8609C0.833123 75.8978 1.02824 75.8655 1.19459 75.7697C1.36093 75.674 1.48738 75.5214 1.5508 75.3397C3.79764 68.213 9.41933 58.8489 16.6642 58.8489L12.0422 50.7922Z" fill="#EFEFEF"/>
<path d="M12.2902 50.7922C12.2902 50.7922 1.33114 55.8564 0.248987 75.0358C0.239683 75.2281 0.299654 75.4173 0.417917 75.5688C0.536179 75.7204 0.704822 75.824 0.892996 75.8609C1.08117 75.8978 1.27629 75.8654 1.44263 75.7697C1.60898 75.674 1.73543 75.5214 1.79885 75.3397C4.04569 68.213 9.66738 58.8489 16.9123 58.8489L12.2902 50.7922Z" fill="#C4001D"/>
<path d="M23.9551 50.7922C23.9551 50.7922 34.96 55.8564 35.9963 75.0358C36.0155 75.2318 35.9613 75.4279 35.8443 75.5859C35.7273 75.7439 35.5559 75.8524 35.3634 75.8904C35.171 75.9283 34.9714 75.893 34.8035 75.7911C34.6357 75.6893 34.5117 75.5284 34.4556 75.3397C32.1996 68.213 26.5871 58.8489 19.333 58.8489L23.9551 50.7922Z" fill="#D12C3D"/>
<path d="M30.164 33.7949C30.164 51.8694 18.1319 66.5187 18.1319 66.5187C17.5083 65.7545 6.11816 51.4091 6.11816 33.8318C6.11816 15.7849 11.4923 1.14481 18.1319 1.10798C24.7807 1.07115 30.164 15.7204 30.164 33.7949Z" fill="#C4001D"/>
<path d="M30.1639 33.7949C30.1639 51.8695 18.1318 66.5188 18.1318 66.5188V1.14481C24.7806 1.07115 30.1639 15.7204 30.1639 33.7949Z" fill="#D12C3D"/>
<path d="M23.927 23.1142C23.9361 24.3308 23.5851 25.5227 22.9185 26.5387C22.2519 27.5547 21.2998 28.349 20.1829 28.8209C19.066 29.2928 17.8347 29.421 16.6451 29.1893C15.4555 28.9575 14.3613 28.3763 13.5013 27.5192C12.6412 26.6622 12.0541 25.568 11.8143 24.3754C11.5745 23.1829 11.693 21.9457 12.1546 20.8208C12.6161 19.6959 13.4001 18.734 14.407 18.0571C15.4139 17.3802 16.5983 17.0188 17.8101 17.0188C19.4245 17.0188 20.9735 17.6595 22.1193 18.8013C23.2651 19.9431 23.9149 21.4934 23.927 23.1142Z" fill="#D12C3D"/>
<path d="M24.1293 23.3167C24.1312 24.5322 23.7737 25.7208 23.1023 26.7322C22.4308 27.7436 21.4756 28.5322 20.3575 28.9981C19.2394 29.4641 18.0087 29.5865 16.8213 29.3498C15.6339 29.1131 14.5431 28.528 13.6871 27.6686C12.8311 26.8091 12.2483 25.714 12.0126 24.5218C11.7769 23.3296 11.8988 22.094 12.3629 20.9714C12.827 19.8488 13.6124 18.8898 14.6198 18.2156C15.6271 17.5415 16.811 17.1826 18.0216 17.1845C18.8237 17.1845 19.6179 17.3431 20.3589 17.6512C21.1 17.9594 21.7733 18.4111 22.3404 18.9806C22.9076 19.55 23.3575 20.226 23.6644 20.97C23.9714 21.714 24.1293 22.5114 24.1293 23.3167Z" fill="#C4001D"/>
<path d="M18.8468 47.0631C18.8468 47.2452 18.7931 47.4232 18.6923 47.5746C18.5915 47.7261 18.4483 47.8441 18.2807 47.9138C18.1131 47.9834 17.9287 48.0017 17.7508 47.9662C17.5729 47.9306 17.4096 47.8429 17.2813 47.7142C17.1531 47.5854 17.0657 47.4213 17.0303 47.2427C16.9949 47.0641 17.0131 46.879 17.0825 46.7107C17.1519 46.5425 17.2695 46.3987 17.4203 46.2975C17.5711 46.1963 17.7484 46.1423 17.9298 46.1423C18.173 46.1423 18.4063 46.2393 18.5782 46.412C18.7502 46.5847 18.8468 46.8189 18.8468 47.0631Z" fill="#D12C3D"/>
<path d="M18.884 47.1C18.884 47.2821 18.8302 47.4601 18.7294 47.6115C18.6286 47.7629 18.4854 47.8809 18.3178 47.9506C18.1503 48.0203 17.9659 48.0386 17.788 48.003C17.6101 47.9675 17.4467 47.8798 17.3184 47.751C17.1902 47.6223 17.1028 47.4582 17.0674 47.2796C17.032 47.101 17.0502 46.9158 17.1196 46.7476C17.189 46.5794 17.3066 46.4356 17.4574 46.3344C17.6082 46.2332 17.7855 46.1792 17.9669 46.1792C18.2101 46.1792 18.4434 46.2762 18.6153 46.4489C18.7873 46.6216 18.884 46.8558 18.884 47.1Z" fill="#C4001D"/>
<path d="M18.8468 42.4686C18.8468 42.6507 18.7931 42.8287 18.6923 42.9802C18.5915 43.1316 18.4483 43.2496 18.2807 43.3193C18.1131 43.389 17.9287 43.4072 17.7508 43.3717C17.5729 43.3362 17.4096 43.2485 17.2813 43.1197C17.1531 42.9909 17.0657 42.8269 17.0303 42.6482C16.9949 42.4696 17.0131 42.2845 17.0825 42.1163C17.1519 41.948 17.2695 41.8042 17.4203 41.703C17.5711 41.6019 17.7484 41.5479 17.9298 41.5479C18.173 41.5479 18.4063 41.6449 18.5782 41.8175C18.7502 41.9902 18.8468 42.2244 18.8468 42.4686Z" fill="#D12C3D"/>
<path d="M18.884 42.5055C18.884 42.6876 18.8302 42.8656 18.7294 43.017C18.6286 43.1684 18.4854 43.2865 18.3178 43.3562C18.1503 43.4258 17.9659 43.4441 17.788 43.4085C17.6101 43.373 17.4467 43.2853 17.3184 43.1566C17.1902 43.0278 17.1028 42.8637 17.0674 42.6851C17.032 42.5065 17.0502 42.3214 17.1196 42.1531C17.189 41.9849 17.3066 41.8411 17.4574 41.7399C17.6082 41.6387 17.7855 41.5847 17.9669 41.5847C18.2101 41.5847 18.4434 41.6817 18.6153 41.8544C18.7873 42.0271 18.884 42.2613 18.884 42.5055Z" fill="#C4001D"/>
<path d="M18.8468 37.8739C18.8468 38.056 18.7931 38.234 18.6923 38.3854C18.5915 38.5368 18.4483 38.6549 18.2807 38.7246C18.1131 38.7942 17.9287 38.8125 17.7508 38.7769C17.5729 38.7414 17.4096 38.6537 17.2813 38.525C17.1531 38.3962 17.0657 38.2321 17.0303 38.0535C16.9949 37.8749 17.0131 37.6898 17.0825 37.5215C17.1519 37.3533 17.2695 37.2095 17.4203 37.1083C17.5711 37.0071 17.7484 36.9531 17.9298 36.9531C18.173 36.9531 18.4063 37.0501 18.5782 37.2228C18.7502 37.3955 18.8468 37.6297 18.8468 37.8739Z" fill="#D12C3D"/>
<path d="M18.884 37.9108C18.884 38.0929 18.8302 38.2709 18.7294 38.4223C18.6286 38.5737 18.4854 38.6917 18.3178 38.7614C18.1503 38.8311 17.9659 38.8493 17.788 38.8138C17.6101 38.7783 17.4467 38.6906 17.3184 38.5618C17.1902 38.4331 17.1028 38.269 17.0674 38.0904C17.032 37.9118 17.0502 37.7266 17.1196 37.5584C17.189 37.3901 17.3066 37.2463 17.4574 37.1452C17.6082 37.044 17.7855 36.99 17.9669 36.99C18.2101 36.99 18.4434 37.087 18.6153 37.2597C18.7873 37.4324 18.884 37.6666 18.884 37.9108Z" fill="#C4001D"/>
<path d="M23.1017 23.3167C23.1017 24.3256 22.8037 25.3118 22.2454 26.1507C21.6871 26.9895 20.8937 27.6433 19.9653 28.0294C19.0369 28.4155 18.0154 28.5165 17.0299 28.3197C16.0443 28.1229 15.139 27.6371 14.4285 26.9237C13.718 26.2103 13.2341 25.3014 13.0381 24.3119C12.842 23.3224 12.9426 22.2967 13.3272 21.3646C13.7117 20.4325 14.3629 19.6359 15.1984 19.0754C16.0339 18.5149 17.0162 18.2157 18.0211 18.2157C19.3678 18.2181 20.6586 18.7563 21.6109 19.7124C22.5632 20.6685 23.0993 21.9646 23.1017 23.3167Z" fill="#EAEAEA"/>
<path d="M21.2131 20.8859C20.5184 20.3441 19.6626 20.0522 18.7829 20.0572C17.7192 20.0597 16.6998 20.4856 15.9485 21.2417C15.1972 21.9978 14.7753 23.0222 14.7753 24.0902C14.7723 24.9774 15.0662 25.8399 15.6098 26.5394C15.1547 26.1925 14.7788 25.7519 14.5071 25.2472C14.2355 24.7425 14.0745 24.1853 14.035 23.613C13.9955 23.0407 14.0783 22.4665 14.2779 21.929C14.4775 21.3914 14.7892 20.9029 15.1923 20.4963C15.5953 20.0896 16.0803 19.7742 16.6147 19.5712C17.1491 19.3682 17.7206 19.2822 18.2908 19.3191C18.861 19.356 19.4167 19.5149 19.9208 19.7851C20.4248 20.0554 20.8654 20.4307 21.2131 20.8859Z" fill="#EFEFEF"/>
</svg>
