<svg width="472" height="466" viewBox="0 0 472 466" fill="none" xmlns="http://www.w3.org/2000/svg">
<path d="M471.76 222.298C466.542 103.436 370.52 6.58138 251.631 0.320465C231.231 -0.723021 211.305 0.794777 192.234 4.68413C198.686 7.15056 204.853 9.99643 210.831 13.2218C250.587 34.3761 274.972 71.5621 283.891 124.685H233.888C212.444 73.9337 171.739 39.5935 124.867 39.5935C55.9812 39.4986 0 113.966 0 205.887C0 297.809 55.9812 372.276 124.961 372.276C187.015 372.276 238.537 311.943 248.215 232.923H112.057H110.539V187.389H250.302V162.82H420.523V192.891H290.438V267.358H404.013V296.576H290.438V408.039H283.606H250.397V393.146C250.397 390.49 250.113 387.928 249.448 385.367L241.763 355.296C223.45 375.786 207.225 389.92 193.088 397.889C169.367 411.549 139.099 418.379 102.474 418.379C100.861 418.379 99.248 418.284 97.635 418.284C136.822 448.166 185.782 466 238.916 466C371.184 466.095 477.738 355.865 471.76 222.298Z" fill="url(#paint0_linear_88_2603)"/>
<defs>
<linearGradient id="paint0_linear_88_2603" x1="95.5" y1="82" x2="433" y2="408" gradientUnits="userSpaceOnUse">
<stop stop-color="#FF0000" stop-opacity="0.9"/>
<stop offset="0.724747" stop-color="#FF0026" stop-opacity="0.5"/>
<stop offset="0.990432" stop-color="#FF0026" stop-opacity="0.2"/>
</linearGradient>
</defs>
</svg>
