<svg width="33" height="33" viewBox="0 0 33 33" fill="none" xmlns="http://www.w3.org/2000/svg">
<path d="M16.4761 0.274292C7.37777 0.274292 0 7.64984 0 16.7483C0 24.0271 4.72089 30.2022 11.2674 32.3806C12.0908 32.533 12.3932 32.0232 12.3932 31.588C12.3932 31.1953 12.3778 29.8974 12.3708 28.5209C7.78701 29.5174 6.8198 26.5772 6.8198 26.5772C6.07033 24.673 4.99045 24.1668 4.99045 24.1668C3.49564 23.1442 5.10313 23.1652 5.10313 23.1652C6.75765 23.2815 7.62884 24.8629 7.62884 24.8629C9.09832 27.3815 11.4832 26.6533 12.4234 26.2325C12.5712 25.1676 12.9983 24.4409 13.4694 24.0295C9.80993 23.6129 5.96282 22.2003 5.96282 15.888C5.96282 14.0894 6.60646 12.6198 7.6605 11.4661C7.48942 11.0511 6.9255 9.37561 7.82009 7.10641C7.82009 7.10641 9.20364 6.66364 12.3522 8.7951C13.6664 8.42997 15.0759 8.24702 16.4761 8.24082C17.8763 8.24702 19.2869 8.42997 20.6036 8.7951C23.7484 6.66364 25.13 7.10641 25.13 7.10641C26.0268 9.37561 25.4626 11.0511 25.2916 11.4661C26.3479 12.6198 26.9872 14.0893 26.9872 15.888C26.9872 22.2153 23.1328 23.6086 19.464 24.0164C20.055 24.5276 20.5815 25.5302 20.5815 27.0671C20.5815 29.2713 20.5624 31.0454 20.5624 31.588C20.5624 32.0264 20.859 32.5401 21.6942 32.3784C28.2371 30.1976 32.9521 24.0246 32.9521 16.7483C32.9521 7.64984 25.5753 0.274292 16.4761 0.274292Z" fill="#002C23"/>
<path d="M6.17127 23.7419C6.13509 23.8237 6.00613 23.8483 5.88893 23.7922C5.7694 23.7385 5.70221 23.6268 5.74097 23.5446C5.77651 23.4604 5.90547 23.4369 6.02474 23.4935C6.14452 23.5471 6.21275 23.6598 6.17127 23.7419ZM6.98173 24.465C6.90317 24.5378 6.74953 24.504 6.64525 24.3889C6.53748 24.274 6.51732 24.1205 6.59705 24.0465C6.67807 23.9737 6.82706 24.0077 6.93509 24.1227C7.04285 24.2389 7.06379 24.3914 6.9816 24.4651L6.98173 24.465ZM7.53776 25.3901C7.43672 25.4602 7.27157 25.3944 7.16962 25.2479C7.0687 25.1015 7.0687 24.9258 7.17182 24.8554C7.27416 24.785 7.43671 24.8483 7.54009 24.9937C7.64088 25.1426 7.64088 25.3183 7.53763 25.3902L7.53776 25.3901ZM8.47796 26.4615C8.38764 26.561 8.19536 26.5344 8.05451 26.3985C7.91056 26.2657 7.87037 26.0772 7.96096 25.9775C8.05231 25.8778 8.24576 25.9058 8.38764 26.0406C8.53068 26.1732 8.57436 26.3631 8.47809 26.4615H8.47796ZM9.69314 26.8233C9.65347 26.9522 9.46817 27.0109 9.28158 26.9561C9.09524 26.8997 8.97326 26.7485 9.01086 26.6181C9.04963 26.4883 9.23571 26.4272 9.42372 26.4858C9.60979 26.542 9.73204 26.692 9.69327 26.8233H9.69314ZM11.0763 26.9767C11.081 27.1126 10.9227 27.2253 10.7268 27.2277C10.5297 27.232 10.3704 27.122 10.3683 26.9884C10.3683 26.8512 10.523 26.7396 10.7199 26.7363C10.9158 26.7325 11.0763 26.8416 11.0763 26.9767ZM12.4349 26.9246C12.4584 27.0572 12.3222 27.1933 12.1278 27.2295C11.9365 27.2644 11.7595 27.1826 11.7351 27.0512C11.7113 26.9153 11.8501 26.7792 12.0409 26.744C12.2358 26.7101 12.4101 26.7898 12.4349 26.9246Z" fill="#002C23"/>
</svg>
