<svg width="121" height="104" viewBox="0 0 121 104" fill="none" xmlns="http://www.w3.org/2000/svg">
<path d="M74.3349 74.8897V84.735C74.3349 87.9476 71.7078 90.5754 68.496 90.5754H46.71C43.4992 90.5754 40.8721 87.9476 40.8721 84.735V74.8897C40.8721 74.873 40.8721 74.8552 40.8731 74.8384C40.8878 73.0859 41.6852 71.5115 42.9312 70.4487C43.9508 69.5777 45.2722 69.0505 46.71 69.0505H68.496C69.3752 69.0505 70.2104 69.2475 70.9596 69.5997C72.828 70.476 74.1641 72.3155 74.3203 74.4684C74.3297 74.6078 74.3349 74.7482 74.3349 74.8897Z" fill="white"/>
<path d="M68.4965 90.9944H46.7105C43.2602 90.9944 40.4531 88.1867 40.4531 84.7356V74.89C40.4531 71.439 43.2602 68.6313 46.7105 68.6313H68.4965C71.9467 68.6313 74.7538 71.439 74.7538 74.89V84.7356C74.7538 88.1867 71.9467 90.9944 68.4965 90.9944ZM46.7102 69.4695C43.7221 69.4695 41.2912 71.901 41.2912 74.8898V84.7354C41.2912 87.7242 43.7221 90.1556 46.7102 90.1556H68.4962C71.4843 90.1556 73.9152 87.7242 73.9152 84.7354V74.8898C73.9152 71.901 71.4843 69.4695 68.4962 69.4695H46.7102Z" fill="#14CBA8"/>
<path d="M79.7322 86.2203C79.6065 87.3408 79.0438 88.2705 78.195 89.0063C75.834 91.0544 71.2568 91.6036 67.6897 90.5754C65.247 89.8721 63.278 88.4288 62.819 86.2203L52.5464 90.5754L48.3139 92.3698C44.6703 93.5406 39.3595 93.1402 37.0499 89.784C36.3991 88.8407 35.9863 87.6626 35.915 86.2203C35.7149 82.188 37.9102 78.2113 40.8737 74.8384C41.8849 73.6865 42.9863 72.6048 44.1128 71.6153C45.189 70.6699 46.2872 69.8083 47.3519 69.0505C48.9625 67.9027 50.4966 66.9919 51.7583 66.3808H64.22C65.5079 67.0663 66.9226 67.9772 68.3593 69.0505C68.965 69.5033 69.5749 69.9865 70.1795 70.4927C71.6204 71.6992 73.0371 73.0439 74.3208 74.4684C77.693 78.2103 80.1503 82.4941 79.7322 86.2203Z" fill="white"/>
<g opacity="0.35">
<path opacity="0.35" d="M78.1939 89.0063C75.833 91.0544 71.2557 91.6036 67.6886 90.5754C65.2459 89.8721 63.2769 88.4288 62.8179 86.2203L52.5453 90.5754L48.3128 92.3698C44.6692 93.5406 39.3584 93.1402 37.0488 89.784C37.9458 87.738 39.3008 85.779 40.8726 83.9898C41.8839 82.8379 42.9852 81.7562 44.1117 80.7667C45.1879 79.8213 46.3878 79.3677 47.6924 79.2941C50.1115 79.1578 67.2401 77.7321 70.9591 79.5213C72.6526 80.3359 73.0361 82.1954 74.3198 83.6198C75.8665 85.3367 77.2214 87.1678 78.1939 89.0063Z" fill="#14CBA8"/>
</g>
<path d="M51.6069 84.5293C49.8651 85.2353 47.1688 85.0885 45.3308 84.8669C44.2284 84.7337 43.4542 83.7165 43.6161 82.6175C43.7639 81.6147 44.6462 80.8854 45.6585 80.9323C47.3779 81.0123 49.9568 81.0492 51.5897 80.6863" fill="white"/>
<g opacity="0.35">
<path opacity="0.35" d="M51.6071 84.529C49.8647 85.236 47.1684 85.088 45.3304 84.8673C44.228 84.734 43.4538 83.7162 43.6163 82.618C43.6485 82.3937 43.719 82.1833 43.8188 81.9915C44.109 82.5457 44.6589 82.9542 45.3299 83.0352C47.1647 83.2574 49.8563 83.4039 51.5987 82.7013L51.6071 84.529Z" fill="#14CBA8"/>
</g>
<path d="M48.1383 85.469C47.1341 85.469 46.1354 85.3862 45.2801 85.2829C44.6346 85.2051 44.0616 84.8773 43.6668 84.3603C43.2712 83.8423 43.1059 83.2016 43.201 82.5564C43.3813 81.3345 44.4454 80.4562 45.6775 80.5138C47.4723 80.5972 49.9386 80.6239 51.4984 80.2775C51.7302 80.2261 52.3071 80.2261 52.654 81.3406C53.0126 82.4925 52.9778 84.4263 51.764 84.9182C50.7468 85.3304 49.4379 85.469 48.1383 85.469ZM45.5649 81.3495C44.7967 81.3495 44.1439 81.9092 44.0305 82.6785C43.9686 83.0981 44.0763 83.5144 44.3333 83.8512C44.5898 84.1868 44.9615 84.3996 45.3807 84.4504C47.2454 84.6755 49.8118 84.8045 51.4494 84.1407C51.8735 83.9688 51.9757 83.281 52.0001 82.9932C52.0768 82.0806 51.7876 81.2745 51.6215 81.1087C49.9703 81.4619 47.4624 81.4362 45.639 81.3513C45.6139 81.35 45.5892 81.3495 45.5649 81.3495Z" fill="#14CBA8"/>
<path d="M64.9326 84.5251C66.675 85.23 69.371 85.0814 71.2091 84.8584C72.3114 84.7245 73.0851 83.7068 72.9221 82.6081C72.7736 81.6055 71.891 80.8765 70.8787 80.9242C69.1593 81.0055 66.5807 81.044 64.9473 80.6821" fill="white"/>
<g opacity="0.35">
<path opacity="0.35" d="M71.2086 84.859C69.3708 85.0807 66.6746 85.2306 64.9316 84.5246L64.9387 82.6801C66.6816 83.3813 69.3732 83.233 71.2078 83.0098C71.8756 82.9296 72.4221 82.524 72.7137 81.9726C72.8166 82.166 72.8889 82.3796 72.9227 82.6083C73.0846 83.7065 72.311 84.7251 71.2086 84.859Z" fill="#14CBA8"/>
</g>
<path d="M68.3895 85.4625C67.0935 85.4625 65.7896 85.3241 64.7752 84.9138C63.5615 84.4227 63.5253 82.4891 63.8829 81.3369C64.229 80.2222 64.8056 80.2212 65.038 80.2728C66.5986 80.6184 69.0651 80.5904 70.8589 80.5055C72.0915 80.4478 73.1556 81.3246 73.3366 82.5465C73.4323 83.1916 73.2672 83.8323 72.8721 84.3506C72.4776 84.8682 71.9049 85.1962 71.2594 85.2746C70.4007 85.3789 69.3975 85.4625 68.3895 85.4625ZM64.9156 81.1042C64.7493 81.2704 64.4606 82.0767 64.5381 82.9893C64.5625 83.2771 64.6652 83.9649 65.0893 84.1363C66.7272 84.7987 69.2935 84.6682 71.1583 84.4421C71.5775 84.3913 71.9492 84.1782 72.2054 83.8423C72.4622 83.5053 72.5696 83.0889 72.5072 82.6694C72.3896 81.8754 71.6967 81.3068 70.8982 81.3429C69.0751 81.4292 66.5677 81.4567 64.9156 81.1042Z" fill="#14CBA8"/>
<path d="M65.6043 79.412L65.6064 85.5704C65.6067 86.7129 64.6719 87.6487 63.5297 87.6489L52.1908 87.6526C51.0499 87.6528 50.1147 86.7179 50.1144 85.5754L50.1123 79.417C50.112 78.2745 51.0468 77.3403 52.1874 77.3401L63.5263 77.3364C64.1988 77.3361 64.7993 77.66 65.1802 78.1589C65.4458 78.5074 65.604 78.9422 65.6043 79.412Z" fill="white"/>
<g opacity="0.35">
<path opacity="0.35" d="M65.604 79.412L65.6061 85.5704C65.6063 86.7129 64.6716 87.6487 63.5294 87.6489L52.1905 87.6526C51.0496 87.6528 50.1143 86.7179 50.1141 85.5754L50.1133 83.2718C52.48 85.028 57.6438 86.2457 60.8703 83.6154C63.429 81.529 64.6339 79.4429 65.1801 78.1589C65.4455 78.5074 65.6037 78.9422 65.604 79.412Z" fill="#14CBA8"/>
</g>
<path d="M52.1898 88.0716C50.8142 88.0716 49.695 86.9524 49.6945 85.5765L49.6924 79.4173C49.6919 78.041 50.811 76.9211 52.1869 76.9206L63.5261 76.9169C63.5263 76.9169 63.5266 76.9169 63.5269 76.9169C64.9025 76.9169 66.0219 78.036 66.0225 79.412L66.0246 85.5712C66.0248 86.9475 64.9057 88.0674 63.5298 88.0679L52.1906 88.0716C52.1903 88.0716 52.1901 88.0716 52.1898 88.0716ZM63.5295 87.6487H63.5308H63.5295ZM63.5269 77.7551C63.5266 77.7551 63.5266 77.7551 63.5263 77.7551L52.1872 77.7588C51.7468 77.7588 51.3313 77.932 51.0175 78.2465C50.7034 78.5606 50.5304 78.9765 50.5307 79.4167L50.5328 85.5759C50.5328 86.0164 50.706 86.432 51.0203 86.7459C51.3345 87.0599 51.7497 87.2328 52.1898 87.2328C52.1901 87.2328 52.1901 87.2328 52.1903 87.2328L63.5295 87.2291C64.4433 87.2289 65.1862 86.4852 65.186 85.5712L65.1839 79.412C65.1839 78.4983 64.4404 77.7551 63.5269 77.7551Z" fill="#14CBA8"/>
<path d="M63.1412 83.7592C63.8405 83.0597 63.8405 81.9257 63.1412 81.2263C62.4419 80.5268 61.3082 80.5268 60.6089 81.2263C59.9096 81.9257 59.9096 83.0597 60.6089 83.7592C61.3082 84.4586 62.4419 84.4586 63.1412 83.7592Z" fill="#14CBA8"/>
<g opacity="0.35">
<path opacity="0.35" d="M63.6656 82.4917C63.6659 83.4806 62.8648 84.2828 61.8758 84.283C60.8869 84.2833 60.0852 83.482 60.085 82.4928C60.085 82.264 60.1279 82.0457 60.2076 81.8447C60.4656 82.5127 61.1153 82.9857 61.8753 82.9854C62.6353 82.9851 63.2847 82.5119 63.5425 81.8437C63.6224 82.0449 63.6656 82.2629 63.6656 82.4917Z" fill="#14CBA8"/>
</g>
<path d="M61.8755 84.5982C60.7149 84.5982 59.7708 83.6541 59.7705 82.4933C59.7702 81.3325 60.7141 80.3876 61.8747 80.387H61.8752C63.0358 80.387 63.9799 81.3312 63.9802 82.4917C63.9805 83.6528 63.0366 84.5975 61.876 84.598C61.8757 84.5982 61.8755 84.5982 61.8755 84.5982ZM61.8752 81.0162H61.875C61.061 81.0164 60.399 81.6791 60.3993 82.493C60.3995 83.3069 61.0618 83.9691 61.8755 83.9691H61.8757C62.6897 83.9688 63.3517 83.3061 63.3515 82.492C63.3512 81.6784 62.6889 81.0162 61.8752 81.0162Z" fill="#14CBA8"/>
<path d="M56.803 87.9652C56.6293 87.9652 56.4886 87.8245 56.4886 87.6508L56.4873 83.416L54.2191 81.709L54.2178 77.3385C54.2178 77.1648 54.3585 77.0241 54.5319 77.0238C54.7056 77.0238 54.8463 77.1645 54.8463 77.3382L54.8476 81.3949L57.1158 83.1018L57.1173 87.6502C57.1173 87.8245 56.9767 87.9652 56.803 87.9652Z" fill="#14CBA8"/>
<path d="M86.6653 89.2432C86.6653 95.9629 73.0342 101.411 56.2194 101.411C39.4036 101.411 25.7725 95.9629 25.7725 89.2432C25.7725 88.8218 25.827 88.3418 25.9317 87.8114H86.5071C86.6119 88.3418 86.6653 88.8218 86.6653 89.2432Z" fill="#14CBA8"/>
<path d="M70.379 95.3382L69.9066 95.411C69.8121 95.4257 69.7377 95.4999 69.7233 95.5945L69.6504 96.0669L69.5776 95.5945C69.5629 95.4999 69.4888 95.4254 69.3942 95.411L68.9219 95.3382L69.3942 95.2653C69.4888 95.2507 69.5632 95.1765 69.5776 95.0819L69.6504 94.6094L69.7233 95.0819C69.7379 95.1765 69.8121 95.2509 69.9066 95.2653L70.379 95.3382Z" fill="#14CBA8"/>
<path d="M57.1495 97.3035L56.6771 97.3763C56.5826 97.391 56.5082 97.4651 56.4938 97.5597L56.4209 98.0322L56.3481 97.5597C56.3334 97.4651 56.2593 97.3907 56.1647 97.3763L55.6924 97.3035L56.1647 97.2306C56.2593 97.2159 56.3337 97.1418 56.3481 97.0472L56.4209 96.5747L56.4938 97.0472C56.5084 97.1418 56.5826 97.2162 56.6771 97.2306L57.1495 97.3035Z" fill="#14CBA8"/>
<path d="M63.5115 98.7006L63.0362 98.774C62.9409 98.7887 62.8662 98.8634 62.8515 98.9588L62.7782 99.4341L62.7048 98.9588C62.6902 98.8634 62.6155 98.7887 62.5201 98.774L62.0449 98.7006L62.5201 98.6273C62.6155 98.6126 62.6902 98.5379 62.7048 98.4425L62.7782 97.9672L62.8515 98.4425C62.8662 98.5379 62.9409 98.6126 63.0362 98.6273L63.5115 98.7006Z" fill="#14CBA8"/>
<path d="M82.1195 91.1946L81.365 91.3112C81.2138 91.3345 81.0951 91.4532 81.0718 91.6044L80.9552 92.3591L80.8387 91.6044C80.8154 91.4532 80.6967 91.3345 80.5455 91.3112L79.791 91.1946L80.5455 91.078C80.6967 91.0547 80.8154 90.936 80.8387 90.7848L80.9552 90.0301L81.0718 90.7848C81.0951 90.936 81.2138 91.0547 81.365 91.078L82.1195 91.1946Z" fill="#14CBA8"/>
<path d="M56.2194 88.8244C75.6705 88.8244 91.4388 88.3386 91.4388 87.7393C91.4388 87.14 75.6705 86.6542 56.2194 86.6542C36.7683 86.6542 21 87.14 21 87.7393C21 88.3386 36.7683 88.8244 56.2194 88.8244Z" fill="#14CBA8"/>
<path d="M69.6991 92.0522C69.6991 94.3739 63.7082 96.2553 56.3183 96.2553C51.1322 96.2553 46.6356 95.3288 44.4141 93.9745C43.4699 93.3981 42.9365 92.7451 42.9365 92.0522C42.9365 90.7913 44.7023 89.6603 47.5002 88.891C47.5788 88.869 47.6584 88.847 47.738 88.827C50.0613 88.217 53.053 87.8491 56.3183 87.8491C58.9507 87.8491 61.4049 88.0881 63.4745 88.5011C64.3359 88.6719 65.1312 88.8732 65.8438 89.0996C66.9504 89.4528 67.861 89.8658 68.5181 90.3217C69.2768 90.85 69.6991 91.4359 69.6991 92.0522Z" fill="white"/>
<path d="M56.318 96.6754C52.7022 96.6754 49.2973 96.2312 46.7304 95.4249C43.9744 94.5592 42.5176 93.3931 42.5176 92.0528C42.5176 90.7124 43.9744 89.5464 46.7304 88.6806C49.2973 87.8743 52.7022 87.4301 56.318 87.4301C59.9338 87.4301 63.3387 87.8743 65.9056 88.6806C68.6616 89.5464 70.1184 90.7124 70.1184 92.0528C70.1184 93.3931 68.6616 94.5592 65.9056 95.4249C63.3385 96.2312 59.9335 96.6754 56.318 96.6754ZM56.318 88.2684C48.6793 88.2684 43.3559 90.2625 43.3559 92.0525C43.3559 93.8425 48.6793 95.8366 56.318 95.8366C63.9567 95.8366 69.2801 93.8425 69.2801 92.0525C69.2801 90.2625 63.9567 88.2684 56.318 88.2684Z" fill="#14CBA8"/>
<path d="M64.0609 90.4132L63.9299 90.3639C62.7065 89.9051 63.0347 87.2229 63.1644 86.4116L63.1972 86.2069L63.3798 86.1087C63.9847 85.783 64.5516 85.7143 65.0651 85.9043C65.8712 86.203 66.2018 87.041 66.2154 87.0766L66.2301 87.1144L66.2371 87.1545C66.5845 89.1237 65.0538 90.1213 64.1958 90.3736L64.0609 90.4132ZM63.9606 86.7583C63.806 87.9026 63.8477 89.1732 64.1277 89.5063C64.5597 89.3241 65.6359 88.7262 65.4187 87.3471C65.365 87.232 65.1536 86.829 64.7688 86.6891C64.5372 86.605 64.266 86.6283 63.9606 86.7583Z" fill="#14CBA8"/>
<path d="M64.0609 90.4132L63.9299 90.3639C62.7065 89.9051 63.0347 87.2229 63.1644 86.4116L63.1972 86.2069L63.3798 86.1087C63.9847 85.783 64.5516 85.7143 65.0651 85.9043C65.8712 86.203 66.2018 87.041 66.2154 87.0766L66.2301 87.1144L66.2371 87.1545C66.5845 89.1237 65.0538 90.1213 64.1958 90.3736L64.0609 90.4132ZM63.9606 86.7583C63.806 87.9026 63.8477 89.1732 64.1277 89.5063C64.5597 89.3241 65.6359 88.7262 65.4187 87.3471C65.365 87.232 65.1536 86.829 64.7688 86.6891C64.5372 86.605 64.266 86.6283 63.9606 86.7583Z" fill="#14CBA8"/>
<path d="M82.4477 48.7535C82.329 48.7535 82.2116 48.7077 82.1233 48.6193C81.9761 48.4721 81.9465 48.2438 82.0516 48.0638L83.4602 45.6504C83.7913 45.0829 83.7214 44.3769 83.2855 43.8943C81.886 42.3438 81.1063 40.34 81.0901 38.2518C81.054 33.6016 84.8039 29.746 89.4493 29.6564C89.5056 29.6553 89.5611 29.6548 89.6172 29.6548C91.9205 29.6548 94.0789 30.5591 95.6948 32.2013C97.3104 33.843 98.1799 36.0169 98.1435 38.3223C98.0701 42.9491 94.2447 46.7135 89.6167 46.7135L89.543 46.7133C88.8189 46.707 88.0993 46.6092 87.4043 46.4227C87.2848 46.3904 87.1612 46.3742 87.0367 46.3742C86.781 46.3742 86.528 46.4431 86.3047 46.5733L82.6782 48.6911C82.6067 48.7331 82.5268 48.7535 82.4477 48.7535Z" fill="#C4001D"/>
<path d="M89.6177 30.1131C94.1174 30.1131 97.7573 33.7976 97.6855 38.3149C97.6161 42.7015 93.9948 46.255 89.6169 46.255C89.5938 46.255 89.5705 46.2547 89.5474 46.2547C88.848 46.2487 88.1697 46.1533 87.5237 45.9798C87.3636 45.9368 87.2001 45.9159 87.0374 45.9159C86.7021 45.9159 86.3691 46.0055 86.0744 46.1774L82.4479 48.2952L83.8565 45.8818C84.2849 45.1476 84.1958 44.2181 83.6262 43.5871C82.3486 42.1716 81.565 40.302 81.549 38.2484C81.5147 33.8514 85.0632 30.1996 89.4584 30.1149C89.5118 30.1136 89.5645 30.1131 89.6177 30.1131ZM89.6177 29.196C89.5587 29.196 89.5 29.1965 89.4408 29.1978C84.5455 29.2921 80.5939 33.3553 80.6321 38.2552C80.6491 40.4555 81.471 42.5673 82.9456 44.2014C83.2469 44.5352 83.2948 45.0247 83.0646 45.4191L81.6559 47.8324C81.4458 48.1925 81.5048 48.6487 81.7995 48.9435C81.976 49.1201 82.211 49.2121 82.4481 49.2121C82.6066 49.2121 82.7662 49.1712 82.91 49.0868L86.5365 46.969C86.6895 46.8797 86.8627 46.8325 87.0372 46.8325C87.1213 46.8325 87.2049 46.8435 87.2858 46.8652C88.0183 47.0618 88.7764 47.165 89.5396 47.1716C89.5655 47.1718 89.5915 47.1718 89.6169 47.1718C94.4944 47.1718 98.5251 43.2051 98.6024 38.3293C98.6409 35.9 97.7245 33.6095 96.022 31.8795C94.3191 30.149 92.0449 29.196 89.6177 29.196Z" fill="#14CBA8"/>
<g opacity="0.2">
<path opacity="0.2" d="M97.6764 37.8081C97.6722 37.7196 97.667 37.6313 97.6601 37.5435C97.6565 37.4984 97.6531 37.4536 97.6486 37.4088C97.6402 37.32 97.6298 37.2316 97.6185 37.1436C97.6135 37.1056 97.6096 37.0671 97.6041 37.0291C97.5873 36.912 97.5679 36.7959 97.5462 36.6806C97.5368 36.6303 97.5255 36.5807 97.515 36.5307C97.5009 36.4623 97.4862 36.3942 97.4702 36.3266C97.4561 36.2668 97.4411 36.2073 97.4257 36.1481C97.4113 36.0928 97.3961 36.0381 97.3806 35.9833C97.3623 35.9191 97.3445 35.8546 97.3246 35.791C97.3128 35.7527 97.2994 35.7152 97.2871 35.6772C97.2386 35.5292 97.1865 35.3827 97.1296 35.2383C97.1215 35.2179 97.1142 35.1972 97.1058 35.1767C97.0736 35.0968 97.0398 35.0177 97.0052 34.9391C96.9947 34.9152 96.9842 34.8916 96.9735 34.8678C96.9363 34.7858 96.8983 34.7043 96.8588 34.6236C96.8556 34.6173 96.8525 34.6113 96.8493 34.605C96.668 34.2394 96.46 33.8896 96.2277 33.5579C96.6235 34.5329 96.8354 35.6023 96.8179 36.7233C96.7582 40.4911 94.0773 43.6422 90.548 44.4566C86.8062 45.2854 84.6281 44.5855 83.303 43.2782C83.2965 43.2706 82.7652 42.0026 82.7584 41.9952C82.5367 41.7497 82.3311 41.4898 82.1406 41.2183C82.1708 41.2925 82.2027 41.3664 82.2352 41.4395L82.2336 41.4374C82.5828 42.2285 83.0547 42.9533 83.6263 43.5869C84.1958 44.2179 84.2852 45.1476 83.8566 45.8815L82.4477 48.2952L86.0742 46.1774C86.512 45.9216 87.0338 45.8483 87.5235 45.9798C88.1698 46.1533 88.8478 46.2487 89.5472 46.2547C89.674 46.2557 89.8001 46.2531 89.9255 46.2484C90.0421 46.2439 90.1579 46.2358 90.2732 46.2264C90.2905 46.2251 90.308 46.2243 90.3253 46.2227C90.4312 46.2133 90.5359 46.2007 90.6407 46.1871C90.6672 46.1837 90.6939 46.1813 90.7201 46.1776C90.8186 46.164 90.9161 46.1472 91.0133 46.13C91.0452 46.1242 91.0774 46.1197 91.1094 46.1134C91.2021 46.0959 91.2938 46.0754 91.3853 46.0547C91.4209 46.0466 91.457 46.0395 91.4924 46.0309C91.5804 46.0097 91.6674 45.9858 91.7544 45.9617C91.7926 45.9512 91.8312 45.9413 91.8691 45.9303C91.9532 45.9056 92.036 45.8787 92.1191 45.8514C92.1589 45.8383 92.199 45.8257 92.2385 45.8121C92.3187 45.7843 92.3981 45.7542 92.4772 45.7238C92.5183 45.7081 92.5597 45.6929 92.6003 45.6764C92.6771 45.6454 92.7528 45.6127 92.8285 45.5797C92.8704 45.5613 92.9126 45.5432 92.9542 45.5241C93.0276 45.4906 93.0999 45.4552 93.172 45.4193C93.2147 45.3981 93.2574 45.3774 93.2995 45.3554C93.3695 45.3192 93.4386 45.2812 93.5075 45.2429C93.5503 45.2191 93.5932 45.1955 93.6354 45.1709C93.7022 45.1321 93.7682 45.092 93.834 45.0514C93.8767 45.0249 93.9196 44.9985 93.9618 44.9712C94.0255 44.9301 94.0883 44.8879 94.1507 44.8452C94.1934 44.8158 94.2361 44.7865 94.2783 44.7566C94.3388 44.7134 94.3985 44.6693 94.4577 44.6245C94.4999 44.5926 94.5421 44.5603 94.5837 44.5278C94.6411 44.4828 94.698 44.4367 94.754 44.39C94.7959 44.3554 94.8373 44.3203 94.8785 44.2847C94.9327 44.2378 94.9864 44.1901 95.0393 44.1419C95.0805 44.1044 95.1208 44.0667 95.1611 44.0287C95.2125 43.9799 95.2633 43.9307 95.3134 43.8806C95.3534 43.8405 95.3927 43.8002 95.432 43.7593C95.4802 43.709 95.5279 43.6584 95.5748 43.607C95.6138 43.5643 95.6518 43.5211 95.6898 43.4776C95.7351 43.426 95.7799 43.3738 95.8237 43.3209C95.8611 43.2756 95.8981 43.2297 95.9345 43.1839C95.9767 43.1309 96.0183 43.0777 96.0592 43.0237C96.0954 42.9758 96.1305 42.9271 96.1658 42.8783C96.2049 42.8243 96.2436 42.7701 96.2814 42.7148C96.3159 42.6642 96.3492 42.6131 96.3827 42.5618C96.4186 42.5067 96.4545 42.4517 96.4891 42.3956C96.5219 42.3424 96.5533 42.2885 96.585 42.2347C96.6177 42.1787 96.6507 42.1229 96.6822 42.066C96.7131 42.0104 96.7424 41.9538 96.7718 41.8975C96.8014 41.8409 96.8312 41.7843 96.8595 41.7269C96.8884 41.6687 96.9153 41.6095 96.9426 41.5506C96.969 41.4932 96.996 41.4363 97.0214 41.3781C97.0479 41.3176 97.0723 41.256 97.0974 41.1945C97.121 41.1365 97.1448 41.0792 97.1671 41.0207C97.1909 40.9576 97.2129 40.8936 97.2352 40.8297C97.2556 40.7715 97.2766 40.7136 97.2957 40.6549C97.317 40.5894 97.3361 40.5226 97.3557 40.4563C97.373 40.3981 97.3911 40.3402 97.4071 40.2812C97.4257 40.2126 97.4419 40.1429 97.4587 40.0737C97.4726 40.0161 97.4878 39.9587 97.5006 39.9005C97.5163 39.8282 97.5294 39.7548 97.5433 39.6817C97.554 39.6254 97.5661 39.5696 97.5755 39.5127C97.5884 39.4354 97.5983 39.3573 97.6091 39.2795C97.6164 39.2258 97.6253 39.1726 97.6316 39.1186C97.6418 39.0311 97.6486 38.9428 97.656 38.8545C97.6596 38.8091 97.6651 38.7643 97.6683 38.719C97.6772 38.5848 97.6829 38.4499 97.685 38.3139C97.6871 38.1847 97.685 38.056 97.6811 37.9281C97.6806 37.8886 97.6782 37.8485 97.6764 37.8081Z" fill="#14CBA8"/>
</g>
<g opacity="0.5">
<g opacity="0.5">
<path opacity="0.5" d="M81.9829 38.8267C81.9486 34.4297 85.4971 30.7782 89.8925 30.6933C92.4633 30.6438 94.7663 31.797 96.2777 33.6284C94.7962 31.4655 92.2901 30.0599 89.4587 30.1144C85.0635 30.1991 81.515 33.8508 81.5491 38.2479C81.564 40.1673 82.2499 41.9258 83.3827 43.3034C82.5108 42.0265 81.9957 40.4867 81.9829 38.8267Z" fill="white"/>
</g>
</g>
<path d="M46.8592 83.7834C46.9899 83.8725 47.1448 83.9616 47.2957 84.0352C47.4481 84.1104 47.6048 84.1751 47.763 84.2286C47.921 84.2831 48.0811 84.3263 48.2412 84.3562C48.4004 84.3897 48.561 84.4026 48.7182 84.4117L48.7266 84.4123C48.9592 84.4261 49.1366 84.6263 49.1227 84.859C49.1088 85.0917 48.9089 85.2691 48.676 85.255C48.6459 85.2531 48.6142 85.2476 48.5862 85.2398C48.3915 85.1845 48.2008 85.1237 48.0208 85.0422C47.8395 84.9646 47.6669 84.8732 47.5026 84.772C47.3379 84.6719 47.1812 84.5619 47.0329 84.4426C46.8833 84.3221 46.7474 84.2003 46.6098 84.0525C46.5407 83.9783 46.5448 83.862 46.619 83.7928C46.6829 83.7331 46.7783 83.7278 46.8477 83.7752L46.8592 83.7834Z" fill="#14CBA8"/>
<path d="M59.0056 82.5426L58.9433 82.573C58.937 82.5759 58.932 82.5806 58.9284 82.5864C58.9255 82.5908 58.9236 82.5958 58.9226 82.6013L58.921 82.6118L58.9124 82.6699C58.9079 82.7006 58.8699 82.7129 58.8482 82.6904L58.8 82.6403C58.7914 82.6314 58.779 82.6275 58.7667 82.6293L58.6981 82.6409C58.6674 82.6461 58.6441 82.6136 58.6588 82.5864L58.6913 82.525C58.697 82.514 58.697 82.5009 58.6915 82.4902L58.6596 82.4286C58.646 82.4022 58.6669 82.3718 58.6955 82.3739C58.6968 82.3739 58.6981 82.3741 58.6994 82.3744L58.7678 82.3864C58.7798 82.3885 58.7924 82.3846 58.801 82.3757L58.8401 82.3359L58.8498 82.3262C58.8715 82.3039 58.9095 82.3165 58.9137 82.3471L58.9234 82.416C58.9252 82.4284 58.9328 82.4388 58.9438 82.4443L59.0059 82.4753C59.0337 82.4892 59.0334 82.529 59.0056 82.5426Z" fill="#14CBA8"/>
<path d="M64.2194 66.3813C70.7363 69.8544 80.5343 79.0669 79.7318 86.2198C79.0172 92.5891 64.1906 92.8129 62.8178 86.2198C61.8346 81.4976 68.1789 81.5143 69.6989 81.544C71.9901 81.5888 72.5157 80.9525 72.6899 80.1148" fill="white"/>
<g opacity="0.35">
<path opacity="0.35" d="M79.7319 86.2203C79.0173 92.5889 64.1914 92.8132 62.8187 86.2203C62.608 85.2067 62.7338 84.4112 63.0786 83.7886C65.3892 89.2924 78.027 89.0639 79.5978 83.624C79.7739 84.5097 79.8263 85.3797 79.7319 86.2203Z" fill="#14CBA8"/>
</g>
<path d="M46.4992 93.2212C46.2487 93.2608 45.9972 93.2949 45.7449 93.3179C44.833 93.4115 43.9121 93.4086 42.9973 93.3158C42.083 93.2225 41.1742 93.0226 40.3 92.7055C39.4305 92.3785 38.5898 91.9312 37.8691 91.3133C37.6826 91.1674 37.5207 90.9921 37.3486 90.8288L37.112 90.5618L36.9949 90.4274L36.8878 90.2846C36.5891 89.9125 36.3588 89.4916 36.1485 89.0663C35.755 88.1998 35.5475 87.2632 35.4906 86.3327C35.4429 85.4054 35.5098 84.4791 35.6748 83.5724L35.8173 82.8969C35.8757 82.6749 35.9397 82.4546 36.0007 82.2332C36.0565 82.0099 36.1422 81.7974 36.2137 81.5799L36.3258 81.2552C36.3662 81.1483 36.4112 81.0435 36.4539 80.9374C36.543 80.7272 36.6211 80.5116 36.7193 80.3061L37.0104 79.6874C37.1112 79.4833 37.2218 79.2847 37.3271 79.0832C37.4303 78.8801 37.5464 78.6851 37.6622 78.4899C37.8859 78.0942 38.1374 77.7174 38.3829 77.3362C38.6427 76.9659 38.8948 76.5891 39.1725 76.2325C39.4402 75.868 39.7273 75.5197 40.011 75.1686C40.1549 74.9949 40.3045 74.8261 40.4506 74.6545C40.596 74.482 40.7467 74.3143 40.8997 74.149C41.502 73.4782 42.1386 72.8406 42.7906 72.2214C44.0982 70.9857 45.4882 69.8408 46.9477 68.7911C48.4071 67.7408 49.9313 66.7786 51.5629 65.9784L51.6541 65.9336H51.7576L64.2193 65.9388H64.3306L64.4273 65.9907C66.2014 66.9432 67.8506 68.0823 69.4211 69.3144C70.9922 70.5468 72.4732 71.891 73.8588 73.3312C74.5499 74.0531 75.2113 74.8044 75.8422 75.5821C76.4728 76.3601 77.0701 77.1679 77.6131 78.0154C78.1573 78.8615 78.6537 79.743 79.0713 80.6675C79.4876 81.5917 79.8261 82.5612 80.0233 83.5727C80.0658 83.8271 80.1239 84.0782 80.1423 84.3373C80.1685 84.5949 80.2017 84.8517 80.1989 85.113L80.207 85.5031C80.2067 85.6334 80.1926 85.7639 80.1858 85.8941C80.1763 86.0249 80.1698 86.1543 80.1577 86.2858C80.1352 86.4205 80.1242 86.5568 80.0904 86.6896C79.9783 87.225 79.7666 87.7417 79.469 88.1964C79.1766 88.6555 78.8067 89.0535 78.3999 89.3936C77.9938 89.7361 77.55 90.0215 77.0881 90.2604C76.6265 90.5005 76.1474 90.6973 75.6596 90.8595C74.6832 91.1828 73.6738 91.371 72.6599 91.4559C71.6456 91.54 70.6246 91.5209 69.6137 91.3966C68.6035 91.2711 67.6012 91.0408 66.6402 90.6698C65.6835 90.2963 64.7548 89.7862 63.983 89.0556C63.5995 88.6908 63.2526 88.2766 62.9833 87.8093C62.7135 87.3434 62.5159 86.8325 62.4043 86.305L62.983 86.6079L55.7205 89.6837L53.9013 90.4436C53.293 90.692 52.6847 90.9399 52.0738 91.1815C50.8527 91.666 49.6261 92.1353 48.3859 92.5656L46.4992 93.2212ZM49.4252 91.5953C50.2151 91.2145 51.0073 90.8427 51.8045 90.4824C52.4026 90.2114 53.0028 89.9471 53.6032 89.6827L55.4103 88.9049L62.6529 85.8304L63.124 85.6305L63.2314 86.1333C63.3254 86.5728 63.4887 86.9941 63.714 87.3835C63.9387 87.7732 64.2329 88.1243 64.5643 88.4398C65.2311 89.0713 66.0665 89.5354 66.9462 89.8773C67.8296 90.218 68.7677 90.4342 69.7179 90.5513C70.6687 90.6677 71.6338 90.6847 72.5887 90.6048C73.5431 90.5241 74.4899 90.3456 75.3897 90.0466C76.2854 89.7453 77.1471 89.3281 77.8474 88.7359C78.5513 88.1531 79.0724 87.3809 79.2468 86.5136C79.2751 86.4069 79.2819 86.2953 79.3013 86.1865L79.3249 85.8391C79.3307 85.7227 79.3443 85.6072 79.3443 85.4903L79.3362 85.1394C79.3396 84.9054 79.3079 84.6717 79.2843 84.4377C79.2686 84.2032 79.2136 83.9715 79.1751 83.7386C78.9932 82.8094 78.677 81.9001 78.2812 81.0241C77.8846 80.1476 77.4085 79.3028 76.8833 78.4873C76.3593 77.6708 75.7793 76.8873 75.1647 76.1308C74.5501 75.3743 73.9041 74.6414 73.2279 73.9362C71.8719 72.5293 70.4185 71.2118 68.8786 70.0059C67.3402 68.8008 65.7228 67.6874 64.0121 66.771L64.2198 66.8229L51.7581 66.8282L51.9527 66.7836C50.3903 67.5498 48.8984 68.4958 47.4703 69.5183C46.0415 70.5426 44.6784 71.6617 43.4 72.8666C42.7623 73.4703 42.1401 74.0913 41.5536 74.743C41.4042 74.9037 41.2578 75.0667 41.1163 75.2338C40.9738 75.4002 40.8284 75.564 40.6885 75.7325C40.4129 76.0724 40.1336 76.4096 39.8746 76.7618C39.605 77.1064 39.3621 77.469 39.1106 77.8259C38.8743 78.1923 38.6315 78.5546 38.4169 78.933C38.3056 79.1201 38.194 79.307 38.0955 79.5004C37.9949 79.6927 37.8885 79.8824 37.7921 80.0766L37.5144 80.6643C37.4206 80.8598 37.3473 81.0631 37.2624 81.262C37.222 81.3621 37.1788 81.4614 37.1406 81.5623L37.0347 81.8679C36.9674 82.0725 36.8851 82.273 36.8335 82.4818L36.6606 83.1031L36.527 83.7325C36.3727 84.575 36.3104 85.4321 36.352 86.2814C36.4026 87.1244 36.5878 87.9511 36.9281 88.7063C37.112 89.0758 37.3087 89.4418 37.5684 89.7641L37.6606 89.8886L37.7628 90.0052L37.9676 90.2379C38.1188 90.3797 38.2579 90.5338 38.4224 90.6619C39.0527 91.2051 39.8038 91.6084 40.5953 91.9079C41.3919 92.198 42.2323 92.3858 43.0859 92.4739C43.9397 92.5619 44.8055 92.5664 45.6624 92.4794C46.0915 92.4411 46.517 92.373 46.939 92.291C47.3598 92.2084 47.7821 92.0937 48.1667 91.9771L49.4252 91.5953Z" fill="#14CBA8"/>
<path d="M64.4168 66.0113C66.696 67.2256 68.7831 68.7326 70.7419 70.3845C72.6955 72.0424 74.517 73.8639 76.1198 75.88C76.9199 76.8886 77.6581 77.9519 78.301 79.079C78.9434 80.2049 79.4901 81.3998 79.8498 82.6697C80.0256 83.3051 80.159 83.9579 80.2134 84.6245C80.2449 84.957 80.2514 85.2932 80.2431 85.6294C80.2331 85.9661 80.2043 86.2981 80.1391 86.6521C80.0023 87.3476 79.6913 88.0092 79.263 88.5611C79.0487 88.8373 78.809 89.0896 78.553 89.3194C78.2953 89.5471 78.0204 89.7497 77.7367 89.935C76.5932 90.6668 75.3119 91.0819 74.0222 91.3214C73.3756 91.4409 72.7225 91.5122 72.0681 91.5378C71.4136 91.5667 70.7582 91.5486 70.1059 91.4904C68.8025 91.3715 67.5047 91.0861 66.2815 90.5623C65.6708 90.3002 65.0817 89.9724 64.5388 89.5671C64.2687 89.3624 64.0123 89.137 63.772 88.8926C63.5331 88.6465 63.3167 88.3761 63.1234 88.0884C62.7398 87.5121 62.4708 86.8471 62.3524 86.1658C62.2308 85.4939 62.2243 84.7552 62.4734 84.0598C62.596 83.7142 62.7805 83.3887 63.0089 83.1052C63.2381 82.8219 63.5082 82.5806 63.7964 82.3791C64.3754 81.9768 65.0151 81.7229 65.6562 81.5426C66.9443 81.1899 68.2553 81.105 69.5486 81.1223C69.7134 81.1242 69.8617 81.1315 70.0147 81.131C70.1669 81.1326 70.3175 81.1284 70.4674 81.1218C70.7663 81.1121 71.0602 81.0822 71.3345 81.0254C71.608 80.9664 71.8595 80.8765 72.051 80.7264C72.2467 80.5812 72.3816 80.3535 72.4854 80.0729L72.4877 80.0668C72.5281 79.9576 72.6497 79.9018 72.7589 79.9421C72.8501 79.9759 72.9038 80.0661 72.8959 80.1583C72.8886 80.244 72.8776 80.3307 72.8611 80.4188C72.8419 80.5063 72.8173 80.5948 72.7851 80.6832C72.7191 80.859 72.6159 81.0298 72.4849 81.1761C72.3513 81.3194 72.1954 81.4391 72.0327 81.5314C71.8692 81.6228 71.6997 81.6907 71.531 81.746C71.1925 81.8558 70.8538 81.9035 70.5206 81.937C70.1902 81.9627 69.8494 81.9671 69.5374 81.9619C68.2987 81.9512 67.0515 82.0455 65.8906 82.372C65.314 82.5368 64.7607 82.7669 64.2983 83.0934C63.8349 83.4178 63.481 83.8475 63.307 84.3546C63.1284 84.8603 63.1263 85.436 63.2334 86.0059C63.3356 86.5743 63.5554 87.1091 63.8753 87.5876C64.5166 88.5496 65.5372 89.2484 66.6436 89.7175C67.7562 90.1894 68.9676 90.4535 70.1881 90.5591C71.41 90.6634 72.6494 90.6105 73.8516 90.3917C75.0501 90.1716 76.2275 89.7827 77.2256 89.1425C77.4729 88.9811 77.7097 88.8066 77.9277 88.6145C78.1436 88.4206 78.3421 88.2113 78.5169 87.9867C78.8656 87.5368 79.1069 87.0193 79.2164 86.4695C79.2664 86.2001 79.2955 85.8985 79.3036 85.6011C79.3107 85.3034 79.306 85.0042 79.2774 84.7052C79.2292 84.1067 79.1082 83.5106 78.9465 82.9238C78.6151 81.7504 78.1014 80.6192 77.4878 79.543C76.8753 78.4645 76.1594 77.4399 75.3894 76.4565C73.8437 74.4917 72.0694 72.6978 70.1635 71.0645C69.2094 70.2485 68.2199 69.4739 67.1974 68.7478C66.1749 68.0228 65.1186 67.3446 64.0225 66.7519L64.0204 66.7508C63.8168 66.6408 63.7409 66.3863 63.8509 66.1827C63.9607 65.9791 64.2137 65.9031 64.4168 66.0113Z" fill="#14CBA8"/>
<g opacity="0.35">
<path opacity="0.35" d="M68.5184 90.3217C68.4126 90.6121 68.2742 90.8752 68.1108 91.1121C66.5808 93.3446 62.8733 93.3446 62.8733 93.3446C57.6086 95.0709 53.5228 94.3435 51.0844 93.4746C50.7312 93.3488 50.4127 93.2199 50.1297 93.0952C49.8897 93.222 49.6341 93.331 49.3616 93.418C47.883 93.8928 46.1299 94.1098 44.4144 93.9746C40.8652 93.6958 37.4762 91.9139 37.0078 87.8114H47.4942C47.5068 87.8774 47.5204 87.9414 47.534 88.0032C47.5959 88.2852 47.6661 88.5619 47.7384 88.8271C50.0616 88.217 53.0534 87.8491 56.3187 87.8491C58.951 87.8491 61.4052 88.0881 63.4748 88.5011C63.4675 88.6164 63.4612 88.7359 63.4581 88.8596C63.4518 89.0839 63.4518 89.3187 63.4654 89.5472C63.5063 90.2316 63.6614 90.8636 64.0774 91.0198C64.0774 91.0198 64.9388 90.7662 65.468 90.0335C65.6482 89.7819 65.7907 89.4738 65.8441 89.0996C66.9507 89.4528 67.8614 89.8658 68.5184 90.3217Z" fill="#14CBA8"/>
</g>
<path d="M65.4312 83.906C65.142 83.0381 66.2371 80.7741 58.4878 79.8549C56.8017 79.6169 55.0098 79.661 53.3174 79.8475C47.3506 80.5089 46.9168 82.7488 47.0614 84.3399C47.0614 84.3399 47.0667 84.408 47.0771 84.5286C47.1243 85.0799 47.2752 86.714 47.4942 87.8114C47.5068 87.8774 47.5204 87.9414 47.534 88.0032C47.5958 88.2852 47.6661 88.5619 47.7384 88.827C47.8631 89.2861 47.9982 89.7106 48.1208 90.0691C48.3828 90.8364 48.933 91.4726 49.6602 91.829C50.0427 92.0166 50.5195 92.2252 51.0843 92.4264C53.5228 93.2953 57.6086 94.0227 62.8733 92.2964C62.8733 92.2964 66.5808 92.2964 68.1107 90.0639C68.5121 89.479 68.7636 88.7421 68.7594 87.8114C68.7594 87.7642 68.7594 87.715 68.7573 87.6667C68.7573 87.6667 69.0465 84.4845 65.4312 83.906ZM65.4679 88.9853C64.9387 89.718 64.0773 89.9716 64.0773 89.9716C63.6613 89.8155 63.5062 89.1834 63.4654 88.499C63.4517 88.2705 63.4517 88.0357 63.458 87.8114C63.48 87.0934 63.5785 86.4781 63.5785 86.4781C65.1996 85.605 65.8242 87.2276 65.8242 87.2276C65.8609 87.4361 65.8734 87.6311 65.8661 87.8114C65.8473 88.2956 65.6859 88.6814 65.4679 88.9853Z" fill="#C4001D"/>
<g opacity="0.7">
<path opacity="0.7" d="M65.8315 88.1269C65.5779 89.5304 64.0773 89.9716 64.0773 89.9716C63.6592 89.8144 63.5041 89.1761 63.4654 88.4875C63.4203 89.4161 63.4863 90.6016 64.0773 90.8238C64.0773 90.8238 66.1669 90.2096 65.8315 88.1269ZM65.4312 83.906C65.142 83.0381 66.2371 80.7741 58.4878 79.8549C56.8017 79.6169 55.0098 79.661 53.3174 79.8475C47.3506 80.5089 46.9168 82.7488 47.0614 84.3399C47.0614 84.3399 47.0614 84.342 47.0614 84.3452C47.2197 82.8924 48.3535 81.25 53.3174 80.6997C55.0098 80.5131 56.8017 80.4691 58.4878 80.707C63.8154 81.339 64.8114 82.5557 65.0076 83.5365C65.1347 84.1712 65.5651 84.6986 66.17 84.9284C68.1099 85.6648 68.6962 87.3308 68.752 88.0934C68.7604 87.956 68.7615 87.8135 68.7573 87.6668C68.7573 87.6668 69.0465 84.4846 65.4312 83.906Z" fill="white"/>
</g>
<g opacity="0.35">
<path opacity="0.35" d="M47.4345 87.4896C47.4534 87.6007 47.4733 87.7087 47.4942 87.8114C47.4733 87.7087 47.4544 87.6007 47.4345 87.4896ZM47.0615 84.3399C47.0615 84.3399 47.0667 84.408 47.0772 84.5286C47.1275 84.5443 47.1778 84.559 47.2281 84.5747C47.1683 84.059 47.1222 83.5842 47.0939 83.2708C47.0258 83.6418 47.0311 84.0056 47.0615 84.3399ZM65.8243 85.7706C65.8243 85.7706 65.8201 85.7591 65.8106 85.7392C65.2909 84.5611 63.5262 84.8954 63.4654 86.1815C63.4476 86.5389 63.4476 86.9341 63.4874 87.2978C63.5231 86.823 63.5786 86.4781 63.5786 86.4781C64.8466 85.7958 65.5047 86.6385 65.731 87.0389C65.8609 86.693 65.9133 86.2738 65.8243 85.7706Z" fill="#14CBA8"/>
</g>
<g opacity="0.35">
<path opacity="0.35" d="M68.7564 87.6667C68.901 92.2964 62.8723 92.2964 62.8723 92.2964C57.6077 94.0227 53.5219 93.2953 51.0834 92.4264C50.5186 92.2252 50.0418 92.0166 49.6593 91.829C48.932 91.4726 48.3819 90.8364 48.1199 90.0691C47.926 89.5031 47.7028 88.7725 47.5331 88.0032C47.5194 87.9414 47.5058 87.8774 47.4932 87.8114C47.4723 87.7087 47.4534 87.6007 47.4335 87.4896C47.4272 87.4529 47.4209 87.4152 47.4146 87.3774C47.3004 86.6982 47.2103 85.9111 47.1495 85.3094C47.1443 85.2549 47.139 85.2025 47.1338 85.1522C47.1296 85.1103 47.1254 85.0684 47.1212 85.0285C47.1181 84.9929 47.1149 84.9583 47.1118 84.9248C47.0971 84.7634 47.0846 84.6281 47.0762 84.5286C47.1265 84.5443 47.1768 84.559 47.2271 84.5747C48.101 84.8399 49.1123 85.0967 50.178 85.4195C51.4585 85.8073 52.2245 86.7244 52.519 87.8114C52.5379 87.8795 52.5546 87.9476 52.5683 88.0168C52.7946 89.0681 52.5966 90.2546 52.015 91.2671C54.5027 91.9757 58.2291 92.3625 62.8723 90.8395C62.8723 90.8395 68.223 90.8395 68.7207 86.9687C68.7825 87.3827 68.7564 87.6667 68.7564 87.6667Z" fill="#14CBA8"/>
</g>
<path d="M56.5693 93.7723C53.3231 93.7723 50.8982 92.9033 49.4744 92.2053C48.6471 91.7996 48.0249 91.0892 47.7228 90.2043C47.5515 89.7038 47.3081 88.9311 47.1234 88.0934C46.8303 86.7667 46.6498 84.4694 46.6422 84.3721C46.3841 81.5324 48.4899 79.9605 53.2699 79.4306C55.2114 79.2165 56.9863 79.2194 58.5451 79.4395C64.9727 80.2018 65.6494 81.893 65.7783 83.4183C65.7819 83.4621 65.7856 83.5051 65.7895 83.5457C69.2453 84.2626 69.1931 87.3203 69.1753 87.672C69.211 88.9421 68.8196 90.0086 68.0119 90.8421C66.3394 92.5679 63.4393 92.7042 62.9413 92.7147C60.5696 93.4856 58.434 93.7723 56.5693 93.7723ZM56.0128 80.1109C55.1732 80.1109 54.2882 80.162 53.3621 80.2639C47.1729 80.9499 47.3864 83.2988 47.4776 84.3017C47.48 84.3305 47.6615 86.6432 47.9421 87.9125C48.1187 88.7123 48.3516 89.4525 48.5161 89.9329C48.7458 90.6058 49.2171 91.1453 49.8433 91.4522C51.9773 92.4982 56.4909 93.9476 62.7412 91.8976L62.8048 91.8767H62.8719C62.9012 91.8767 65.8671 91.8531 67.412 90.2557C68.0583 89.5878 68.3695 88.7209 68.337 87.6791L68.3362 87.6534L68.3386 87.628C68.348 87.5153 68.5351 84.8268 65.3638 84.3192L65.1128 84.2791L65.0324 84.0378C64.975 83.8656 64.9596 83.6825 64.9431 83.4883C64.902 83.0022 64.8553 82.4511 64.1247 81.8925C63.152 81.1485 61.2382 80.6027 58.4372 80.2704C57.68 80.1643 56.8703 80.1109 56.0128 80.1109ZM64.0602 90.4132L63.9292 90.3639C62.7058 89.9051 63.0341 87.2229 63.1637 86.4116L63.1965 86.2069L63.3791 86.1087C63.984 85.783 64.5509 85.7143 65.0644 85.9043C65.8705 86.203 66.2011 87.041 66.2147 87.0766L66.2294 87.1144L66.2365 87.1545C66.5838 89.1237 65.0531 90.1213 64.1951 90.3736L64.0602 90.4132ZM63.9599 86.7583C63.8053 87.9026 63.847 89.1732 64.127 89.5063C64.559 89.3241 65.6352 88.7262 65.418 87.3471C65.3643 87.232 65.1529 86.829 64.7681 86.6891C64.5365 86.605 64.2654 86.6283 63.9599 86.7583Z" fill="#14CBA8"/>
<path d="M56.3184 85.0629C59.9131 85.0629 62.8272 84.2209 62.8272 83.1822C62.8272 82.1436 59.9131 81.3016 56.3184 81.3016C52.7237 81.3016 49.8096 82.1436 49.8096 83.1822C49.8096 84.2209 52.7237 85.0629 56.3184 85.0629Z" fill="#BF6325"/>
<path d="M57.2094 83.9898C56.7819 84.0299 56.468 84.1824 56.3829 84.357C56.298 84.1824 55.9839 84.0297 55.5564 83.9898C54.3489 83.8282 53.3078 83.6712 53.4092 83.0295C53.7317 82.2389 56.024 82.2158 56.3829 82.9516C56.7418 82.2161 59.0344 82.2392 59.3566 83.0295C59.4577 83.6712 58.4166 83.8282 57.2094 83.9898Z" fill="#BE9577"/>
<path d="M56.3828 84.2529C56.5921 83.8381 58.0117 83.7569 58.778 83.4183C58.9816 83.3284 59.0976 83.1783 59.0529 83.0281C58.8967 82.5038 56.9824 82.3985 56.3828 82.9516C55.7831 82.3987 53.8688 82.5041 53.7127 83.0281C53.6679 83.1783 53.7839 83.3282 53.9875 83.4183C54.7538 83.7569 56.1734 83.8381 56.3828 84.2529Z" fill="#FDFFFE"/>
<path d="M56.3601 83.1631C56.201 83.0675 56.0255 83.0004 55.8432 82.9592C55.6614 82.9168 55.4735 82.899 55.2867 82.8984C55.0999 82.8997 54.9129 82.9173 54.7358 82.9582C54.6478 82.9789 54.5611 83.0053 54.488 83.0426C54.4518 83.0606 54.4185 83.0824 54.3997 83.1036C54.3902 83.1141 54.3853 83.1235 54.384 83.1296C54.3826 83.1358 54.3829 83.1395 54.3868 83.1474C54.3908 83.155 54.3994 83.1652 54.4115 83.1752C54.4225 83.1851 54.4421 83.1969 54.4586 83.2079C54.4932 83.2294 54.5307 83.2483 54.5718 83.2656C54.6525 83.3012 54.7405 83.3308 54.8291 83.3594C55.0067 83.4165 55.1898 83.4671 55.3716 83.5239C55.5537 83.5792 55.7355 83.6392 55.9115 83.7118C55.999 83.7493 56.0855 83.7888 56.1667 83.8368C56.2474 83.8845 56.3244 83.9395 56.3826 84.0071C56.3111 83.9503 56.2291 83.9075 56.1442 83.8709C56.059 83.8344 55.9708 83.8035 55.8809 83.7763C55.7017 83.7205 55.5178 83.6759 55.3334 83.6298C55.1484 83.5852 54.9632 83.5404 54.778 83.4867C54.6855 83.4595 54.593 83.4299 54.5011 83.3919C54.4555 83.3733 54.4091 83.3502 54.3651 83.3235C54.3434 83.3091 54.3227 83.2975 54.2993 83.2779C54.2768 83.259 54.2543 83.2365 54.2383 83.2055C54.2221 83.1751 54.2158 83.1353 54.2249 83.1005C54.2336 83.0654 54.2527 83.0373 54.2731 83.015C54.2938 82.9925 54.3164 82.975 54.3392 82.9598C54.362 82.9443 54.3853 82.9315 54.4091 82.9199C54.5037 82.8749 54.6009 82.8473 54.6989 82.8269C54.8948 82.7873 55.0944 82.7758 55.2917 82.7871C55.489 82.7976 55.6844 82.8321 55.8686 82.8924C56.0509 82.9545 56.2241 83.0431 56.3601 83.1631Z" fill="#FCC59C"/>
<path d="M56.3821 83.1631C56.5183 83.0428 56.6912 82.9545 56.8744 82.8929C57.0585 82.8327 57.2542 82.7981 57.4512 82.7876C57.6485 82.7763 57.8479 82.7879 58.0441 82.8274C58.1421 82.8479 58.2393 82.8754 58.3338 82.9204C58.3574 82.9317 58.3807 82.9448 58.4038 82.9603C58.4266 82.9755 58.4491 82.993 58.4698 83.0156C58.4902 83.0378 58.5094 83.0659 58.518 83.101C58.5269 83.1358 58.5209 83.1757 58.5047 83.2061C58.4887 83.237 58.4661 83.2595 58.4436 83.2784C58.4203 83.298 58.3996 83.3096 58.3779 83.324C58.3341 83.351 58.2875 83.3738 58.2419 83.3924C58.1499 83.4304 58.0577 83.4602 57.965 83.4872C57.7798 83.5409 57.5943 83.5858 57.4096 83.6303C57.2254 83.6762 57.0412 83.7207 56.862 83.7768C56.7722 83.804 56.6839 83.835 56.5988 83.8714C56.5139 83.9081 56.4319 83.9508 56.3604 84.0076C56.4185 83.94 56.4955 83.885 56.5762 83.8373C56.6572 83.7894 56.7439 83.7498 56.8314 83.7123C57.0074 83.6397 57.1893 83.5797 57.3713 83.5244C57.5529 83.4676 57.7363 83.4173 57.9139 83.3599C58.0024 83.3313 58.0905 83.3017 58.1712 83.2661C58.2123 83.2488 58.2498 83.2299 58.2843 83.2084C58.3008 83.1974 58.3205 83.1856 58.3315 83.1757C58.3435 83.1657 58.3522 83.1552 58.3561 83.1479C58.36 83.1403 58.36 83.1364 58.359 83.1301C58.3577 83.124 58.3527 83.1144 58.3433 83.1041C58.3244 83.0829 58.2911 83.0614 58.255 83.0431C58.1816 83.0061 58.0949 82.9797 58.0072 82.9587C57.8298 82.9176 57.6427 82.9 57.4562 82.899C57.2694 82.8995 57.0816 82.9173 56.8998 82.9598C56.7166 83.0004 56.5411 83.0674 56.3821 83.1631Z" fill="#FCC59C"/>
<path d="M56.3706 83.3052C56.1785 83.209 55.9687 83.1571 55.758 83.1443C55.653 83.1385 55.5464 83.1396 55.4463 83.1626C55.3983 83.1736 55.3446 83.1935 55.3242 83.2229C55.3053 83.2446 55.3376 83.2837 55.3774 83.313L55.375 83.3114C55.5346 83.4042 55.7156 83.4658 55.8888 83.5413C55.976 83.5782 56.0638 83.6149 56.1489 83.6573C56.1914 83.6788 56.2335 83.7014 56.2734 83.7281C56.3116 83.7546 56.3559 83.7834 56.3703 83.8305C56.3504 83.7863 56.3048 83.7643 56.2652 83.7412C56.2241 83.7187 56.1806 83.7003 56.1371 83.683C56.0499 83.6476 55.9613 83.6149 55.8723 83.5832C55.6941 83.519 55.5157 83.4558 55.3446 83.3633L55.3433 83.3625L55.3423 83.3618C55.3195 83.3437 55.2954 83.3269 55.2771 83.2981C55.2577 83.2724 55.2493 83.2213 55.2744 83.1899C55.3208 83.1325 55.3797 83.1217 55.4335 83.1076C55.5432 83.0856 55.6535 83.0843 55.7617 83.0958C55.9778 83.1194 56.1911 83.1851 56.3706 83.3052Z" fill="#FCC59C"/>
<path d="M56.3711 83.3051C56.5505 83.1851 56.7638 83.1193 56.9797 83.0955C57.0881 83.084 57.1981 83.085 57.3079 83.1073C57.3616 83.1214 57.4203 83.1322 57.4669 83.1896C57.4921 83.221 57.4837 83.2721 57.4643 83.2978C57.446 83.3266 57.4219 83.3434 57.3991 83.3615L57.398 83.3622L57.3967 83.363C57.2257 83.4558 57.047 83.5187 56.8691 83.5829C56.78 83.6146 56.6915 83.6471 56.6042 83.6827C56.5605 83.7003 56.517 83.7186 56.4761 83.7409C56.4366 83.7639 56.3913 83.786 56.3711 83.8302C56.3855 83.7831 56.4298 83.7543 56.468 83.7278C56.5078 83.7011 56.55 83.6785 56.5925 83.657C56.6779 83.6146 56.7654 83.5779 56.8526 83.541C57.0258 83.4655 57.2068 83.4039 57.3663 83.3112L57.364 83.3127C57.4038 83.2834 57.4363 83.2443 57.4172 83.2226C57.3967 83.1935 57.343 83.1733 57.2951 83.1623C57.195 83.1393 57.0881 83.1382 56.9833 83.144C56.773 83.1571 56.5631 83.209 56.3711 83.3051Z" fill="#FCC59C"/>
<path d="M55.0252 83.0295C54.9878 83.0509 54.9501 83.0709 54.9226 83.0952C54.8943 83.123 54.8924 83.1366 54.9157 83.1631C54.9385 83.1896 54.9708 83.2137 55.0048 83.2362C55.0373 83.2614 55.074 83.2818 55.1067 83.3111C55.0638 83.3049 55.0216 83.2949 54.9818 83.2771C54.9411 83.2616 54.9042 83.2359 54.8686 83.2021C54.8615 83.1903 54.8542 83.1793 54.8484 83.1668C54.8455 83.1513 54.8395 83.1366 54.845 83.1204C54.8513 83.0874 54.8743 83.068 54.895 83.057C54.9377 83.035 54.9812 83.0271 55.0252 83.0295Z" fill="#FCC59C"/>
<path d="M59.5219 82.7834C59.6455 82.8109 59.7637 82.8719 59.8556 82.977C59.8975 83.0321 59.9374 83.1015 59.9368 83.1819C59.9423 83.2613 59.9093 83.3368 59.8703 83.3958C59.7854 83.5113 59.6743 83.5871 59.5585 83.64C59.4441 83.6971 59.3214 83.7288 59.1973 83.7503C59.2968 83.6704 59.4021 83.6096 59.4975 83.5375C59.5939 83.4691 59.6851 83.3942 59.7435 83.3109C59.8048 83.2281 59.8085 83.1408 59.7582 83.0452C59.7039 82.9524 59.6164 82.8659 59.5219 82.7834Z" fill="#BE9577"/>
<path d="M53.1775 82.7834C53.0829 82.8659 52.9954 82.9524 52.9409 83.0452C52.8906 83.1408 52.8946 83.2281 52.9556 83.3109C53.014 83.3942 53.1052 83.4691 53.2016 83.5375C53.297 83.6093 53.4023 83.6701 53.5018 83.7503C53.3779 83.7291 53.255 83.6971 53.1406 83.64C53.025 83.5873 52.9137 83.5113 52.8288 83.3958C52.79 83.3368 52.757 83.2613 52.7623 83.1819C52.7617 83.1015 52.8016 83.0321 52.8435 82.977C52.9357 82.8719 53.0538 82.8109 53.1775 82.7834Z" fill="#BE9577"/>
<path d="M56.3176 85.4822C52.875 85.4822 49.3896 84.6921 49.3896 83.182C49.3896 81.6721 52.8747 80.8821 56.3176 80.8821C59.7605 80.8821 63.2456 81.6721 63.2456 83.182C63.2456 84.6921 59.7603 85.4822 56.3176 85.4822ZM56.3176 81.7206C52.3775 81.7206 50.228 82.686 50.228 83.182C50.228 83.678 52.3775 84.6436 56.3176 84.6436C60.2578 84.6436 62.4073 83.678 62.4073 83.182C62.4073 82.686 60.2578 81.7206 56.3176 81.7206Z" fill="#C4001D"/>
<g opacity="0.35">
<path opacity="0.35" d="M50.7236 84.0501C50.7236 83.0114 53.6376 82.1694 57.2324 82.1694C59.6057 82.1694 61.6813 82.5366 62.8185 83.0848C62.6433 82.0914 59.8 81.3013 56.3184 81.3013C52.7238 81.3013 49.8096 82.1432 49.8096 83.182C49.8096 83.5349 50.1467 83.8651 50.7323 84.1473C50.7265 84.1151 50.7236 84.0829 50.7236 84.0501Z" fill="#14CBA8"/>
</g>
<path d="M51.7581 66.3813C46.2312 69.0557 35.4823 77.5072 35.914 86.2198C36.2396 92.7904 43.6447 93.8694 48.3128 92.3698C52.2221 91.1138 52.8615 85.5026 49.1305 84.3716C46.0342 83.4332 43.3895 83.058 43.2569 81.3836" fill="white"/>
<g opacity="0.35">
<path opacity="0.35" d="M48.313 92.3698C43.6445 93.8697 36.239 92.7901 35.9141 86.2203C35.8795 85.5317 35.9162 84.8441 36.0137 84.1617C36.9662 89.8962 43.8761 90.8007 48.313 89.3752C49.8597 88.8784 50.8929 87.7003 51.3477 86.388C52.1735 88.5032 51.0375 91.4946 48.313 92.3698Z" fill="#14CBA8"/>
</g>
<path d="M51.9405 66.7587C50.8386 67.3001 49.7747 67.9402 48.7428 68.6239C47.7119 69.3109 46.7096 70.0441 45.7455 70.824C43.8187 72.3833 42.0223 74.1115 40.4703 76.0304C39.6967 76.9908 38.9873 77.9999 38.3735 79.0601C37.7623 80.1206 37.2457 81.234 36.8923 82.393C36.5399 83.5504 36.3418 84.7526 36.3759 85.9501C36.3976 87.1408 36.6782 88.3127 37.2923 89.2959C37.9001 90.2816 38.8285 91.0492 39.8929 91.5586C40.9587 92.0724 42.1467 92.3481 43.3468 92.4524C44.5491 92.5548 45.7725 92.483 46.9571 92.2459C47.2532 92.1861 47.5469 92.1159 47.8363 92.0339C47.9789 91.9935 48.1303 91.9487 48.2621 91.9029C48.397 91.8583 48.5277 91.8036 48.6574 91.7464C49.1716 91.5103 49.6387 91.1739 50.0199 90.7541C50.7859 89.9203 51.2174 88.7626 51.1613 87.6371C51.1338 87.0764 50.9806 86.5271 50.6958 86.0631C50.4131 85.5977 49.9971 85.2256 49.5012 84.9861C49.2544 84.8608 48.9948 84.7867 48.6857 84.6939L47.7884 84.434C47.1874 84.2631 46.5807 84.0978 45.9716 83.9086C45.6669 83.8135 45.3617 83.7123 45.0565 83.5957C44.7518 83.4786 44.445 83.3484 44.1493 83.1728C43.8546 82.9988 43.5651 82.7732 43.3432 82.4661C43.1215 82.1613 42.9992 81.7601 43.0487 81.4006C43.065 81.2832 43.1731 81.2012 43.2905 81.2175C43.373 81.2287 43.438 81.2856 43.4637 81.3592L43.4666 81.3676C43.5596 81.6351 43.6971 81.8382 43.8844 82.0086C44.0691 82.1807 44.3015 82.3217 44.5514 82.4543C45.0557 82.7163 45.6336 82.9186 46.2212 83.0958C46.8107 83.2739 47.4148 83.434 48.0208 83.6012L48.9317 83.8578C49.0868 83.9039 49.2272 83.9416 49.3988 83.9995C49.5636 84.0553 49.7262 84.1201 49.8842 84.1974C50.519 84.4992 51.0786 84.9927 51.449 85.5993C51.8234 86.2043 52.0154 86.9008 52.0523 87.5902C52.1233 88.9735 51.614 90.3464 50.6914 91.3649C50.2316 91.8756 49.6631 92.2896 49.0393 92.5784C48.8827 92.6486 48.7239 92.7149 48.5615 92.77C48.3972 92.8273 48.2482 92.8719 48.0894 92.9177C47.7763 93.0079 47.4601 93.0852 47.1421 93.1507C45.8697 93.4109 44.5658 93.4937 43.2693 93.3894C41.9749 93.2851 40.6789 92.9856 39.4827 92.4091C38.8862 92.1209 38.3171 91.7606 37.8073 91.3219C37.2973 90.8843 36.849 90.3676 36.4927 89.7927C35.7731 88.6408 35.4598 87.2818 35.4375 85.9732C35.4013 84.6612 35.6188 83.3567 35.9971 82.1183C36.3764 80.8776 36.9242 79.7024 37.5647 78.5921C38.2066 77.4811 38.949 76.4366 39.7533 75.4487C41.3658 73.4742 43.213 71.7159 45.1896 70.1311C46.1791 69.3395 47.2044 68.593 48.2655 67.898C49.3288 67.2065 50.4228 66.5593 51.5763 66.004C51.7849 65.9037 52.0353 65.9914 52.1359 66.2C52.2357 66.4076 52.1495 66.6565 51.9431 66.7582L51.9405 66.7587Z" fill="#14CBA8"/>
<path d="M36.7187 89.5605C36.588 89.5605 36.4659 89.4785 36.4214 89.3477C35.9915 88.0899 36.3354 86.4868 37.3186 85.1638C38.1292 84.0732 40.0686 82.2669 43.9477 82.4103C44.1211 82.4168 44.2566 82.5628 44.2503 82.7362C44.2437 82.91 44.0963 83.0441 43.9244 83.0386C40.3306 82.9018 38.5599 84.5477 37.8232 85.539C36.9747 86.6807 36.6579 88.0957 37.0163 89.1444C37.0724 89.3087 36.9849 89.4874 36.8206 89.5435C36.7866 89.555 36.7525 89.5605 36.7187 89.5605Z" fill="#14CBA8"/>
<path d="M74.9228 60.3849C74.714 60.3982 74.5337 60.2397 74.5204 60.0308L73.824 49.1353C73.8107 48.9264 73.9692 48.7461 74.178 48.7328C76.3691 48.5926 78.259 50.2557 78.3989 52.4474L78.6363 56.1629C78.7767 58.3546 77.1139 60.2447 74.9228 60.3849Z" fill="white"/>
<path d="M74.8983 60.4611C74.661 60.4611 74.4606 60.2758 74.4454 60.0355L73.749 49.14C73.7412 49.0189 73.7812 48.902 73.8611 48.8108C73.9413 48.7196 74.0521 48.6654 74.1732 48.6575C75.2533 48.5886 76.2952 48.9442 77.1073 49.6591C77.9197 50.3739 78.4052 51.3626 78.4741 52.4427L78.7114 56.1581C78.7803 57.2383 78.4248 58.2804 77.7101 59.093C76.9955 59.9056 76.0073 60.3911 74.9274 60.46C74.918 60.4606 74.9083 60.4611 74.8983 60.4611ZM74.4372 48.7998C74.3526 48.7998 74.268 48.8025 74.1829 48.808C74.1019 48.8132 74.0278 48.8494 73.9743 48.9104C73.9209 48.9712 73.8942 49.0496 73.8994 49.1305L74.5957 60.0261C74.6065 60.1933 74.7493 60.3225 74.9182 60.3099C77.0644 60.1726 78.6988 58.3145 78.5616 56.1678L78.3242 52.4524C78.2577 51.4124 77.7903 50.4606 77.0083 49.7723C76.2902 49.1402 75.3853 48.7998 74.4372 48.7998Z" fill="#14CBA8"/>
<g opacity="0.35">
<path opacity="0.35" d="M78.5258 54.4206L78.6377 56.1631C78.7773 58.354 77.1148 60.2446 74.9234 60.3856C74.7146 60.3993 74.5346 60.2397 74.521 60.0308L74.335 57.1345C74.402 57.2629 74.5401 57.3455 74.6933 57.3368L74.9517 57.3195C76.6828 57.2092 78.0854 56.0049 78.5258 54.4206Z" fill="#14CBA8"/>
</g>
<path d="M74.8992 60.8049C74.4821 60.8049 74.1303 60.4797 74.1033 60.0576L73.4069 49.162C73.3933 48.9492 73.4633 48.7438 73.6042 48.5837C73.7452 48.4236 73.9398 48.328 74.1525 48.3143C75.3233 48.2396 76.4545 48.6254 77.3358 49.4007C78.2171 50.1764 78.7437 51.2486 78.8186 52.4205L79.056 56.1359C79.1309 57.3077 78.745 58.4384 77.9698 59.3199C77.1943 60.2014 76.1223 60.7281 74.9508 60.8031C74.9332 60.8044 74.9162 60.8049 74.8992 60.8049ZM74.2461 49.1489L74.9372 59.9637C75.8695 59.8938 76.7215 59.4695 77.3403 58.7662C77.9677 58.053 78.28 57.1379 78.2195 56.1896L77.9821 52.4742C77.9216 51.5259 77.4954 50.658 76.7823 50.0304C76.0786 49.4117 75.18 49.0997 74.2461 49.1489Z" fill="#14CBA8"/>
<path d="M38.2227 51.0316C38.4315 51.0183 38.6118 51.1768 38.6251 51.3856L39.3215 62.2812C39.3348 62.49 39.1763 62.6703 38.9675 62.6837C36.7764 62.8239 34.8865 61.1607 34.7466 58.969L34.5092 55.2536C34.3691 53.0622 36.0316 51.1718 38.2227 51.0316Z" fill="white"/>
<path d="M38.7084 62.7675C37.7236 62.7675 36.7841 62.4141 36.0383 61.7577C35.2259 61.0428 34.7405 60.0541 34.6716 58.974L34.4342 55.2586C34.3653 54.1785 34.7208 53.1363 35.4355 52.3238C36.1502 51.5112 37.1383 51.0256 38.2182 50.9567C38.4666 50.9405 38.6845 51.131 38.7005 51.3812L39.3968 62.2768C39.4047 62.3978 39.3646 62.5147 39.2847 62.6059C39.2045 62.6971 39.0937 62.7513 38.9727 62.7592C38.8842 62.7647 38.7961 62.7675 38.7084 62.7675ZM38.2276 51.1068C36.0815 51.2442 34.447 53.1023 34.5843 55.2489L34.8217 58.9643C34.8882 60.0044 35.3556 60.9561 36.1376 61.6445C36.9196 62.3326 37.9219 62.6745 38.9627 62.6088C39.0437 62.6035 39.1178 62.5671 39.1713 62.5063C39.2247 62.4455 39.2514 62.3672 39.2462 62.2864L38.5499 51.3909C38.5394 51.2235 38.3945 51.0966 38.2276 51.1068Z" fill="#14CBA8"/>
<g opacity="0.35">
<path opacity="0.35" d="M39.1296 59.2586L39.3224 62.2812C39.3361 62.4901 39.1765 62.6701 38.9677 62.6837C37.8176 62.7568 36.7496 62.3336 35.9746 61.5973C35.2749 60.9322 34.8141 60.0104 34.7475 58.9698L34.6475 57.4042C35.3572 58.7379 36.8043 59.6063 38.4108 59.5039L38.8082 59.4785C38.9531 59.4688 39.0712 59.3807 39.1296 59.2586Z" fill="#14CBA8"/>
</g>
<path d="M38.708 63.1114C37.6397 63.1114 36.6206 62.7278 35.8113 62.0155C34.9301 61.2399 34.4035 60.1676 34.3286 58.9958L34.0912 55.2804C34.0163 54.1085 34.4022 52.9778 35.1774 52.0963C35.9528 51.2148 37.0248 50.6881 38.1964 50.6132C38.6349 50.583 39.0159 50.9195 39.0439 51.3587L39.7402 62.2545C39.7538 62.4673 39.6839 62.6727 39.5429 62.8328C39.402 62.9929 39.2074 63.0886 38.9946 63.1022C38.8987 63.1085 38.8031 63.1114 38.708 63.1114ZM38.2097 51.453C37.2774 51.523 36.4254 51.9472 35.8066 52.6505C35.1792 53.3638 34.8669 54.2788 34.9274 55.2272L35.1648 58.9426C35.2253 59.8909 35.6515 60.7588 36.3646 61.3864C37.0678 62.0051 37.9672 62.3171 38.9006 62.2679L38.2097 51.453Z" fill="#14CBA8"/>
<g opacity="0.35">
<path opacity="0.35" d="M70.96 69.5997C70.7096 69.9058 70.4487 70.2034 70.1793 70.4927C66.7537 74.1655 61.8611 76.4473 56.4434 76.4085C51.6963 76.375 47.3779 74.5648 44.1126 71.6153C43.7019 71.2443 43.3078 70.8554 42.9316 70.4487C43.9513 69.5777 45.2727 69.0505 46.7104 69.0505H47.3517C48.9624 67.9027 50.4965 66.9919 51.7582 66.3808H64.2199C65.5078 67.0663 66.9224 67.9772 68.3591 69.0505H68.4964C69.3756 69.0505 70.2108 69.2475 70.96 69.5997Z" fill="#14CBA8"/>
</g>
<path d="M56.5752 74.3132C66.8481 74.3132 75.1759 65.9835 75.1759 55.7082C75.1759 45.433 66.8481 37.1032 56.5752 37.1032C46.3024 37.1032 37.9746 45.433 37.9746 55.7082C37.9746 65.9835 46.3024 74.3132 56.5752 74.3132Z" fill="white"/>
<path d="M56.5794 74.3882C56.5335 74.3882 56.488 74.3882 56.4419 74.3879C51.4535 74.3523 46.7775 72.3757 43.2754 68.8222C39.7733 65.269 37.8643 60.5641 37.8999 55.5746C37.9355 50.5851 39.9116 45.908 43.4643 42.4051C47.0167 38.9022 51.7263 36.989 56.7088 37.0283C67.0066 37.102 75.3244 45.5417 75.2505 55.8416L75.1753 55.8411L75.2505 55.8416C75.2149 60.8311 73.2388 65.5082 69.6861 69.0112C66.1667 72.4819 61.5166 74.3882 56.5794 74.3882ZM56.5718 37.1787C51.6741 37.1787 47.0618 39.0699 43.5701 42.5125C40.0463 45.9872 38.0862 50.6265 38.0508 55.5757C38.0154 60.5248 39.909 65.192 43.3828 68.7164C46.8566 72.2411 51.4949 74.2016 56.4429 74.237C61.3916 74.2758 66.0567 72.3784 69.5808 68.9037C73.1046 65.4291 75.0647 60.7897 75.1001 55.8406C75.1732 45.6237 66.9225 37.2521 56.7078 37.179C56.6627 37.1787 56.6171 37.1787 56.5718 37.1787Z" fill="#14CBA8"/>
<g opacity="0.35">
<path opacity="0.35" d="M75.016 53.2645C75.1284 54.1067 75.1824 54.9667 75.1763 55.8414C75.1014 66.1159 66.715 74.3856 56.4426 74.3132C46.1705 74.2383 37.9028 65.8499 37.9751 55.5751C37.9769 55.2795 37.9861 54.984 38.0023 54.6928C39.1914 63.7583 46.9106 70.7865 56.3095 70.8541C66.2861 70.9248 74.4829 63.1268 75.016 53.2645Z" fill="#14CBA8"/>
</g>
<path d="M56.5801 74.7322C56.5335 74.7322 56.4868 74.732 56.4402 74.7317C51.3599 74.6953 46.598 72.6823 43.0314 69.0635C39.4649 65.4448 37.5207 60.6534 37.5571 55.572C37.5933 50.4905 39.6058 45.7274 43.224 42.16C46.8086 38.6254 51.5446 36.684 56.5728 36.684C56.6194 36.684 56.6658 36.684 56.7124 36.6845C67.1996 36.7594 75.6706 45.3546 75.5954 55.8442L75.1763 55.8413L75.5954 55.8442C75.5593 60.9257 73.5468 65.6888 69.9286 69.2561C66.344 72.7908 61.6082 74.7322 56.5801 74.7322ZM56.5725 37.5225C51.7657 37.5225 47.239 39.3785 43.8121 42.7572C40.3535 46.1674 38.4298 50.7206 38.3952 55.578C38.3604 60.4354 40.2191 65.0156 43.6285 68.475C47.0378 71.9344 51.59 73.8586 56.4462 73.8932C56.4908 73.8934 56.5356 73.8937 56.5801 73.8937C61.3868 73.8937 65.9133 72.0379 69.3402 68.659C72.7988 65.2488 74.7225 60.6956 74.7571 55.8382C74.8289 45.8108 66.7312 37.5948 56.7061 37.523C56.6618 37.5227 56.617 37.5225 56.5725 37.5225Z" fill="#14CBA8"/>
<path d="M75.1127 56.3185C75.1418 59.959 73.987 63.3485 71.9886 66.161C70.4904 68.2696 64.2923 71.9884 56.603 72.1187C49.4735 72.2395 42.9558 68.4886 41.4243 66.4041C39.3814 63.6236 38.1729 60.2533 38.1441 56.6125C38.0676 46.9784 46.311 42.9187 56.5199 42.8374C66.7289 42.7565 75.0359 46.6847 75.1127 56.3185Z" fill="#14CBA8"/>
<path d="M56.2585 72.5411C49.0371 72.5411 42.6626 68.7974 41.0869 66.6526C38.9164 63.6986 37.754 60.2279 37.7252 56.616C37.6877 51.9129 39.5438 48.2721 43.2419 45.7945C46.4736 43.6293 51.0643 42.4619 56.5171 42.4184C61.9691 42.3757 66.5783 43.4692 69.8441 45.5828C73.5809 48.0012 75.4949 51.6123 75.5321 56.3151C75.561 59.9271 74.4538 63.4156 72.3305 66.4039C70.859 68.4748 64.7374 72.4001 56.6103 72.538C56.493 72.5401 56.3753 72.5411 56.2585 72.5411ZM56.8293 43.2559C56.7277 43.2559 56.626 43.2564 56.5236 43.2572C51.092 43.3005 38.4687 44.688 38.5635 56.6097C38.591 60.0439 39.6971 63.3451 41.7625 66.1563C43.2301 68.1538 49.6163 71.8179 56.5962 71.7C64.3282 71.5689 70.3046 67.8082 71.6473 65.9186C73.6676 63.0749 74.7211 59.7568 74.6938 56.3222C74.6587 51.9192 72.8739 48.5428 69.3885 46.2872C66.3213 44.302 61.9835 43.2559 56.8293 43.2559Z" fill="#14CBA8"/>
<g opacity="0.7">
<path opacity="0.7" d="M71.4487 55.4636C71.7587 53.6717 70.9576 52.037 69.6595 51.8124C68.3613 51.5877 67.0577 52.8582 66.7478 54.65C66.4378 56.4419 67.2389 58.0766 68.537 58.3012C69.8351 58.5259 71.1387 57.2555 71.4487 55.4636Z" fill="white"/>
</g>
<g opacity="0.7">
<path opacity="0.7" d="M67.4626 61.9969C67.7171 61.202 67.3706 60.3805 66.6886 60.1621C66.0067 59.9436 65.2475 60.4109 64.993 61.2058C64.7385 62.0007 65.0851 62.8221 65.767 63.0406C66.449 63.259 67.2081 62.7917 67.4626 61.9969Z" fill="white"/>
</g>
<g opacity="0.35">
<path opacity="0.35" d="M71.4458 47.3594C73.7227 49.4982 75.0807 52.4485 75.1122 56.318C75.1413 59.9593 73.9859 63.3485 71.9889 66.161C70.4901 68.2696 64.2915 71.9882 56.6025 72.1192C53.8876 72.1658 51.262 71.6504 48.9658 70.8782C58.414 70.5155 65.9642 65.9519 67.8221 63.3364C70.3586 59.7667 71.8238 55.4645 71.7864 50.8451C71.7772 49.6106 71.6591 48.4495 71.4458 47.3594Z" fill="#111A28"/>
</g>
<path d="M39.4717 48.8041C39.3774 48.8041 39.2831 48.7726 39.205 48.7079C39.0337 48.5659 39.003 48.3169 39.133 48.1393C42.3477 43.3353 48.6393 40.5451 56.3978 40.4833C64.1062 40.418 70.446 43.0256 73.7873 47.6267C73.9031 47.7784 73.9044 47.9954 73.7784 48.1484C73.6327 48.325 73.3734 48.3531 73.1944 48.2103C73.1913 48.2077 73.1855 48.2029 73.1824 48.2001L73.1441 48.1676L73.1145 48.1269C69.9357 43.743 63.8481 41.2665 56.4049 41.3218C48.9225 41.3815 42.8784 44.0405 39.8227 48.617L39.7934 48.6555C39.7101 48.7535 39.5912 48.8041 39.4717 48.8041Z" fill="#14CBA8"/>
<g opacity="0.7">
<path opacity="0.7" d="M42.3409 62.3111C42.3409 62.3111 39.2821 52.8308 44.3728 49.0027C49.4636 45.1746 56.8312 45.1313 56.6624 45.6053C56.6624 45.6053 48.522 47.6453 45.382 54.1203C42.9608 59.1129 42.3409 62.3111 42.3409 62.3111Z" fill="white"/>
</g>
<path d="M79.5637 87.3206C79.5383 87.3206 79.5126 87.3175 79.487 87.3112C79.3185 87.269 79.2163 87.0982 79.2585 86.9297C79.4272 86.2568 79.3232 85.63 78.941 85.0134C77.42 82.5602 72.1249 81.3794 72.0717 81.3676C71.9022 81.3307 71.7945 81.163 71.8315 80.9934C71.8684 80.8239 72.0361 80.7157 72.2056 80.7532C72.4338 80.8029 77.8132 82.0023 79.4749 84.6811C79.9452 85.4395 80.0777 86.2473 79.8684 87.0824C79.8325 87.2255 79.7044 87.3206 79.5637 87.3206Z" fill="#14CBA8"/>
<path d="M32.7527 90.0736L32.0357 90.1844C31.8921 90.2067 31.7795 90.3194 31.7572 90.463L31.6464 91.1799L31.5356 90.463C31.5133 90.3194 31.4006 90.2067 31.2571 90.1844L30.54 90.0736L31.2571 89.9628C31.4006 89.9405 31.5133 89.8278 31.5356 89.6842L31.6464 88.9673L31.7572 89.6842C31.7795 89.8278 31.8921 89.9405 32.0357 89.9628L32.7527 90.0736Z" fill="#14CBA8"/>
<path d="M77.1575 94.9708L76.5843 95.0594C76.4696 95.0772 76.3795 95.1674 76.3617 95.2821L76.2731 95.8555L76.1846 95.2821C76.1667 95.1674 76.0766 95.0772 75.9619 95.0594L75.3887 94.9708L75.9619 94.8823C76.0766 94.8645 76.1667 94.7743 76.1846 94.6595L76.2731 94.0862L76.3617 94.6595C76.3795 94.7743 76.4696 94.8645 76.5843 94.8823L77.1575 94.9708Z" fill="#14CBA8"/>
<path d="M40.1163 95.0887L39.644 95.1616C39.5494 95.1763 39.475 95.2504 39.4606 95.345L39.3877 95.8175L39.3149 95.345C39.3002 95.2504 39.2261 95.176 39.1315 95.1616L38.6592 95.0887L39.1315 95.0159C39.2261 95.0012 39.3005 94.9271 39.3149 94.8325L39.3877 94.36L39.4606 94.8325C39.4752 94.9271 39.5494 95.0015 39.644 95.0159L40.1163 95.0887Z" fill="#14CBA8"/>
<path d="M46.9317 96.6484L46.4594 96.7212C46.3648 96.7359 46.2904 96.81 46.276 96.9046L46.2032 97.3771L46.1303 96.9046C46.1157 96.81 46.0415 96.7356 45.947 96.7212L45.4746 96.6484L45.947 96.5755C46.0415 96.5608 46.1159 96.4867 46.1303 96.3921L46.2032 95.9196L46.276 96.3921C46.2907 96.4867 46.3648 96.5611 46.4594 96.5755L46.9317 96.6484Z" fill="#14CBA8"/>
<path d="M52.1393 98.761L51.5925 98.8453C51.483 98.8624 51.3971 98.9483 51.3801 99.0579L51.2957 99.6047L51.2114 99.0579C51.1943 98.9483 51.1084 98.8624 50.9989 98.8453L50.4521 98.761L50.9989 98.6766C51.1084 98.6596 51.1943 98.5736 51.2114 98.4641L51.2957 97.9175L51.3801 98.4641C51.3971 98.5736 51.483 98.6596 51.5925 98.6766L52.1393 98.761Z" fill="#14CBA8"/>
<path d="M34.3692 94.2698L33.8969 94.3427C33.8023 94.3574 33.7279 94.4315 33.7135 94.5261L33.6407 94.9986L33.5678 94.5261C33.5532 94.4315 33.479 94.3571 33.3844 94.3427L32.9121 94.2698L33.3844 94.197C33.479 94.1823 33.5534 94.1082 33.5678 94.0136L33.6407 93.5411L33.7135 94.0136C33.7282 94.1082 33.8023 94.1826 33.8969 94.197L34.3692 94.2698Z" fill="#14CBA8"/>
<path fill-rule="evenodd" clip-rule="evenodd" d="M89.2549 37.4004L89.0613 37.119C88.9979 37.0265 88.9356 36.9237 88.8764 36.821C88.7679 36.6321 88.6375 36.3923 88.5777 36.1541C88.4685 35.7178 88.7378 35.4474 88.9757 35.1615C89.0116 35.118 89.0535 35.0774 89.0925 35.0365C89.3414 34.7742 89.6822 34.4603 89.9476 34.2019C90.2174 33.9381 90.3799 33.6462 90.4116 33.219C90.4283 32.996 90.3856 32.5183 90.2279 32.4324C90.2748 32.767 90.2856 32.9945 90.1501 33.3309C89.9932 33.7216 89.7378 33.9551 89.4412 34.186C89.1989 34.3746 88.8022 34.715 88.5932 34.9121C88.4577 35.0405 88.229 35.27 88.1342 35.4941C87.994 35.8255 88.1331 36.0422 88.2833 36.2739C88.3548 36.3842 88.4274 36.4785 88.5038 36.5773C88.5929 36.6926 88.672 36.7723 88.7433 36.8627C88.8185 36.9583 88.9112 37.0464 88.9932 37.1373C89.0443 37.1934 89.2044 37.365 89.2549 37.4004Z" fill="white"/>
<path fill-rule="evenodd" clip-rule="evenodd" d="M92.1295 40.2726C92.2246 40.4259 92.1306 40.4906 92.0009 40.5514C91.424 40.8216 89.4739 40.8722 88.8648 40.8808C88.2436 40.89 87.618 40.8653 87.0183 40.76C86.9211 40.7432 86.4936 40.6751 86.474 40.5616C86.4609 40.4901 86.5363 40.4367 86.5753 40.4123C86.7134 40.3263 86.9662 40.2674 87.1399 40.2357C87.1902 40.2268 87.3118 40.2137 87.3492 40.1982C87.0587 40.1555 86.1381 40.3109 85.9364 40.5973C85.8093 40.7776 86.022 40.8612 86.1638 40.9075C86.6945 41.0807 87.799 41.1159 88.3817 41.1242C89.2525 41.136 91.3478 41.1274 92.1156 40.5996C92.1604 40.5692 92.2485 40.5048 92.2576 40.4424C92.2689 40.3656 92.1769 40.2925 92.1295 40.2726Z" fill="white"/>
<path fill-rule="evenodd" clip-rule="evenodd" d="M89.6169 37.7552C89.7094 37.7235 89.9827 37.4995 90.0563 37.4243C90.1527 37.3242 90.3172 37.1386 90.3314 36.9243C90.3439 36.7299 90.2098 36.4762 90.1278 36.3523C89.8687 35.9595 89.6617 35.7344 90.0125 35.2989C90.1299 35.1537 90.257 35.0402 90.4058 34.9173C90.5836 34.7701 90.875 34.5691 91.0838 34.4381L91.3214 34.2853C91.1956 34.3021 90.8624 34.4352 90.7309 34.4842C90.5543 34.5507 90.3507 34.6522 90.1964 34.741C89.6672 35.047 89.1464 35.526 89.3594 36.1885C89.5035 36.6366 89.9232 36.9049 89.8931 37.2408C89.8742 37.4463 89.6767 37.6522 89.6169 37.7552Z" fill="white"/>
<path fill-rule="evenodd" clip-rule="evenodd" d="M90.7224 39.9463C90.56 39.8848 90.4374 39.8132 90.292 39.7268C90.2077 39.6765 90.2401 39.6804 90.1322 39.7074C89.6918 39.8159 88.9777 39.8174 88.5153 39.8033C88.3963 39.7996 88.0621 39.7891 87.9945 39.6772C87.9515 39.6068 88.0099 39.5551 88.0327 39.515C87.7296 39.5761 87.421 39.8279 87.8425 40.0375C88.3167 40.2728 89.3135 40.2755 89.8325 40.1832C89.9803 40.1568 90.6517 40.0035 90.7224 39.9463Z" fill="white"/>
<path fill-rule="evenodd" clip-rule="evenodd" d="M90.8626 38.9569C90.7372 38.9255 90.6248 38.8471 90.548 38.7798C90.4809 38.7224 90.504 38.7365 90.3599 38.7607C89.8415 38.8471 88.2982 38.9981 87.8565 38.8159C87.7991 38.7924 87.7331 38.7567 87.7289 38.6894C87.7242 38.6095 87.792 38.5662 87.8206 38.5225C87.4653 38.5665 87.1242 38.9092 87.6 39.0727C88.1365 39.2567 89.2939 39.2627 89.8645 39.1909C90.0526 39.1666 90.7188 39.0368 90.8626 38.9569Z" fill="white"/>
<path fill-rule="evenodd" clip-rule="evenodd" d="M91.2193 37.7919C91.1517 37.7948 91.0613 37.8157 90.9932 37.8267C90.9141 37.8385 90.8386 37.8501 90.7598 37.8605C90.2848 37.9271 89.758 37.9808 89.2825 38.0086C88.9113 38.0303 87.511 38.0767 87.302 37.8815C87.2865 37.794 87.3871 37.7387 87.4484 37.7051C87.6884 37.5762 87.9438 37.533 88.1804 37.4588C87.8537 37.4282 87.0321 37.6632 86.7351 37.849C86.4139 38.0495 86.9493 38.1291 87.1495 38.1572C88.3218 38.3204 89.4179 38.2329 90.5772 38.0681C90.7663 38.0413 90.8067 38.0521 90.9353 37.9703C91.0241 37.914 91.1404 37.8542 91.2193 37.7919Z" fill="white"/>
<path fill-rule="evenodd" clip-rule="evenodd" d="M87.168 41.3228C87.4952 41.4602 88.208 41.544 88.5779 41.5741C89.0979 41.6169 89.6688 41.6066 90.1888 41.57C90.8618 41.5223 91.6598 41.4452 92.2522 41.1444C92.3928 41.0726 92.6467 40.901 92.6713 40.7361C92.6289 40.7553 92.5925 40.7941 92.5526 40.8205C91.5081 41.5398 89.1213 41.4712 87.8892 41.3834L87.168 41.3228Z" fill="white"/>
<path fill-rule="evenodd" clip-rule="evenodd" d="M91.4556 37.5115C91.7115 37.4316 92.0026 37.4848 92.1645 37.6289C92.3397 37.7851 92.3418 38.0812 92.2153 38.3107C92.0463 38.6168 91.6916 38.8898 91.3977 39.0743C91.3474 39.106 91.2986 39.1301 91.2549 39.1623C91.4443 39.1422 91.8936 38.9393 92.0647 38.8337C92.2829 38.6988 92.5263 38.5023 92.6269 38.2473C92.7702 37.8854 92.5616 37.6092 92.3395 37.4785C92.2116 37.4038 92.0576 37.359 91.8779 37.3663C91.7403 37.3721 91.5176 37.4266 91.4556 37.5115Z" fill="white"/>
<path d="M102.193 100.525C102.191 100.768 102.687 100.985 103.431 101.109C103.806 101.172 104.1 101.471 104.155 101.848C104.264 102.594 104.472 103.095 104.715 103.097C104.958 103.099 105.175 102.602 105.299 101.859C105.362 101.483 105.661 101.19 106.038 101.134C106.784 101.025 107.286 100.817 107.289 100.574C107.291 100.329 106.794 100.112 106.05 99.9887C105.674 99.9264 105.38 99.627 105.325 99.25C105.215 98.5031 105.008 98.0022 104.765 97.9999C104.522 97.9976 104.305 98.4944 104.181 99.239C104.118 99.6149 103.819 99.9086 103.442 99.9636C102.696 100.073 102.195 100.28 102.193 100.525Z" fill="white"/>
<path d="M0.280074 73.5715C0.330114 73.8094 0.861343 73.9137 1.61326 73.8741C1.99295 73.8541 2.34345 74.0827 2.47856 74.4381C2.74609 75.142 3.05631 75.586 3.29419 75.5355C3.53206 75.4854 3.63645 74.954 3.59694 74.2019C3.57702 73.8221 3.80562 73.4715 4.16085 73.3363C4.86539 73.0682 5.31012 72.7578 5.26009 72.5199C5.20966 72.2808 4.67764 72.176 3.92572 72.2165C3.54562 72.2368 3.19434 72.0082 3.05923 71.6525C2.79132 70.9478 2.4811 70.5042 2.24361 70.5542C2.00574 70.6043 1.90135 71.1357 1.94086 71.8886C1.96077 72.2688 1.73178 72.6199 1.37615 72.7547C0.672805 73.022 0.229654 73.3323 0.280074 73.5715Z" fill="white"/>
<path d="M21.075 7.46239C21.0724 7.73171 21.6224 7.97213 22.4463 8.10969C22.8622 8.1791 23.1869 8.51026 23.2482 8.92747C23.3698 9.75399 23.5995 10.3087 23.8687 10.3113C24.138 10.3139 24.3783 9.76379 24.5158 8.94018C24.5852 8.52424 24.9162 8.19945 25.3334 8.13814C26.1601 8.01663 26.7163 7.78695 26.7189 7.51764C26.7215 7.24675 26.1707 7.00592 25.3468 6.86955C24.9305 6.80053 24.605 6.46896 24.5437 6.05137C24.4221 5.22406 24.1928 4.66937 23.9232 4.66675C23.6535 4.66413 23.4136 5.21426 23.2761 6.03905C23.2067 6.45537 22.8749 6.78055 22.4573 6.84147C21.6318 6.96142 21.0776 7.19151 21.075 7.46239Z" fill="white"/>
<path d="M12.469 26.5282C12.1881 26.2418 12.1926 25.7818 12.479 25.5009C12.7653 25.2199 13.2252 25.2244 13.5061 25.5108C13.7869 25.7973 13.7825 26.2572 13.4961 26.5382C13.2098 26.8191 12.7499 26.8147 12.469 26.5282Z" fill="white"/>
<path d="M13.0209 85.7534C12.9072 85.3966 13.1042 85.0152 13.4609 84.9015C13.8176 84.7878 14.199 84.9848 14.3127 85.3416C14.4264 85.6984 14.2294 86.0798 13.8727 86.1935C13.516 86.3073 13.1346 86.1102 13.0209 85.7534Z" fill="white"/>
<path d="M6.6426 97.9306C6.16692 97.9246 5.78613 97.5343 5.79207 97.0587C5.79801 96.5832 6.18845 96.2025 6.66412 96.2085C7.13979 96.2144 7.52057 96.6048 7.51463 97.0803C7.50869 97.5559 7.11827 97.9366 6.6426 97.9306Z" fill="white"/>
<path d="M92.785 20.7401C92.7733 20.1902 93.2094 19.735 93.7591 19.7233C94.3088 19.7116 94.7639 20.1478 94.7756 20.6976C94.7874 21.2475 94.3512 21.7027 93.8015 21.7144C93.2518 21.7262 92.7967 21.2899 92.785 20.7401Z" fill="white"/>
<path d="M41.7294 13.5196C41.3282 13.5157 41.0062 13.1873 41.0101 12.7861C41.014 12.3849 41.3423 12.0628 41.7434 12.0667C42.1446 12.0706 42.4666 12.399 42.4627 12.8002C42.4588 13.2014 42.1305 13.5235 41.7294 13.5196Z" fill="white"/>
<path d="M101.13 3.38608C100.623 3.17448 100.383 2.59141 100.595 2.08377C100.806 1.57613 101.389 1.33614 101.897 1.54774C102.404 1.75934 102.644 2.3424 102.432 2.85004C102.221 3.35769 101.638 3.59768 101.13 3.38608Z" fill="white"/>
<path d="M115.416 90.3422C115.315 89.9029 115.59 89.4655 116.029 89.3653C116.469 89.2651 116.906 89.54 117.006 89.9794C117.106 90.4187 116.831 90.8561 116.392 90.9563C115.953 91.0565 115.516 90.7815 115.416 90.3422Z" fill="white"/>
<path d="M3.06842 41.3778C2.8621 41.3758 2.69647 41.2069 2.69847 41.0005C2.70046 40.7942 2.86934 40.6285 3.07565 40.6305C3.28197 40.6325 3.4476 40.8014 3.4456 41.0078C3.44361 41.2141 3.27474 41.3798 3.06842 41.3778Z" fill="white"/>
<path d="M29.4663 101.284C29.3204 101.088 29.3613 100.811 29.5577 100.665C29.754 100.519 30.0314 100.56 30.1773 100.756C30.3232 100.953 30.2822 101.23 30.0859 101.376C29.8896 101.522 29.6122 101.481 29.4663 101.284Z" fill="white"/>
<path d="M81.6221 5.14208C81.3539 5.05205 81.2095 4.76163 81.2995 4.4934C81.3895 4.22517 81.6799 4.08071 81.948 4.17073C82.2162 4.26076 82.3606 4.55118 82.2706 4.81941C82.1806 5.08764 81.8903 5.2321 81.6221 5.14208Z" fill="white"/>
<path d="M111.773 26.2618C111.501 26.1837 111.344 25.9 111.422 25.628C111.5 25.3561 111.784 25.1989 112.056 25.277C112.327 25.355 112.485 25.6388 112.407 25.9107C112.328 26.1827 112.045 26.3398 111.773 26.2618Z" fill="white"/>
<path d="M105.921 43.8506C105.925 44.0822 106.116 44.2667 106.348 44.2627C106.579 44.2586 106.764 44.0675 106.76 43.8359C106.756 43.6043 106.564 43.4197 106.333 43.4238C106.101 43.4278 105.917 43.619 105.921 43.8506Z" fill="white"/>
<path d="M118.826 49.2939C118.456 49.0049 118.389 48.47 118.678 48.0992C118.967 47.7283 119.502 47.662 119.873 47.9509C120.243 48.2399 120.31 48.7749 120.021 49.1457C119.732 49.5166 119.197 49.5829 118.826 49.2939Z" fill="white"/>
</svg>
