<svg width="35" height="33" viewBox="0 0 35 33" fill="none" xmlns="http://www.w3.org/2000/svg">
<path d="M17.4481 32.4088L23.8736 12.6403H11.0225L17.448 32.4088H17.4481Z" fill="#002C23"/>
<path d="M17.4483 32.4088L11.0226 12.6402H2.01758L17.4483 32.4088Z" fill="#015241"/>
<path d="M2.01771 12.6402L0.0651224 18.6478C-0.0216958 18.9149 -0.0217077 19.2026 0.0650882 19.4697C0.151884 19.7367 0.321032 19.9695 0.548291 20.1346L17.4484 32.4089L2.01757 12.6403L2.01771 12.6402Z" fill="#03745C"/>
<path d="M2.01758 12.6403H11.0226L7.15278 0.733751C6.95362 0.121071 6.08659 0.121207 5.88756 0.733751L2.01758 12.6403Z" fill="#002C23"/>
<path d="M17.4484 32.4088L23.8739 12.6402H32.8791L17.4482 32.4088H17.4484Z" fill="#015241"/>
<path d="M32.8789 12.6402L34.8315 18.6478C34.9183 18.9149 34.9183 19.2026 34.8315 19.4697C34.7447 19.7368 34.5755 19.9695 34.3482 20.1346L17.4482 32.4089L32.8789 12.6403V12.6402Z" fill="#03745C"/>
<path d="M32.8792 12.6403H23.874L27.744 0.733751C27.9432 0.121071 28.8102 0.121207 29.0092 0.733751L32.8792 12.6403Z" fill="#002C23"/>
</svg>
